<svg width="56" height="64" viewBox="0 0 56 64" fill="none" xmlns="http://www.w3.org/2000/svg">
<mask id="path-1-outside-1_12597_30693" maskUnits="userSpaceOnUse" x="0" y="24" width="56" height="18" fill="black">
<rect fill="white" y="24" width="56" height="18"/>
<path d="M6.19844 40V29H2.03844V26H13.8584V29H9.59844V40H6.19844ZM16.2639 40V26H26.0239V28.9H19.5639V37.1H26.2239V40H16.2639ZM17.8639 34.26V31.5H25.1239V34.26H17.8639ZM37.3745 40L33.0345 33.72L27.4745 26H31.6145L35.8545 32.2L41.5145 40H37.3745ZM27.3745 40L32.7145 32.38L35.4545 33.96L31.3145 40H27.3745ZM36.1745 33.5L33.4545 31.98L37.3745 26H41.3145L36.1745 33.5ZM46.2961 40V29H42.1361V26H53.9561V29H49.6961V40H46.2961Z"/>
</mask>
<path d="M6.19844 40V29H2.03844V26H13.8584V29H9.59844V40H6.19844ZM16.2639 40V26H26.0239V28.9H19.5639V37.1H26.2239V40H16.2639ZM17.8639 34.26V31.5H25.1239V34.26H17.8639ZM37.3745 40L33.0345 33.72L27.4745 26H31.6145L35.8545 32.2L41.5145 40H37.3745ZM27.3745 40L32.7145 32.38L35.4545 33.96L31.3145 40H27.3745ZM36.1745 33.5L33.4545 31.98L37.3745 26H41.3145L36.1745 33.5ZM46.2961 40V29H42.1361V26H53.9561V29H49.6961V40H46.2961Z" fill="url(#paint0_linear_12597_30693)"/>
<path d="M6.19844 40H4.19844V42H6.19844V40ZM6.19844 29H8.19844V27H6.19844V29ZM2.03844 29H0.0384375V31H2.03844V29ZM2.03844 26V24H0.0384375V26H2.03844ZM13.8584 26H15.8584V24H13.8584V26ZM13.8584 29V31H15.8584V29H13.8584ZM9.59844 29V27H7.59844V29H9.59844ZM9.59844 40V42H11.5984V40H9.59844ZM6.19844 40H8.19844V29H6.19844H4.19844V40H6.19844ZM6.19844 29V27H2.03844V29V31H6.19844V29ZM2.03844 29H4.03844V26H2.03844H0.0384375V29H2.03844ZM2.03844 26V28H13.8584V26V24H2.03844V26ZM13.8584 26H11.8584V29H13.8584H15.8584V26H13.8584ZM13.8584 29V27H9.59844V29V31H13.8584V29ZM9.59844 29H7.59844V40H9.59844H11.5984V29H9.59844ZM9.59844 40V38H6.19844V40V42H9.59844V40ZM16.2639 40H14.2639V42H16.2639V40ZM16.2639 26V24H14.2639V26H16.2639ZM26.0239 26H28.0239V24H26.0239V26ZM26.0239 28.9V30.9H28.0239V28.9H26.0239ZM19.5639 28.9V26.9H17.5639V28.9H19.5639ZM19.5639 37.1H17.5639V39.1H19.5639V37.1ZM26.2239 37.1H28.2239V35.1H26.2239V37.1ZM26.2239 40V42H28.2239V40H26.2239ZM17.8639 34.26H15.8639V36.26H17.8639V34.26ZM17.8639 31.5V29.5H15.8639V31.5H17.8639ZM25.1239 31.5H27.1239V29.5H25.1239V31.5ZM25.1239 34.26V36.26H27.1239V34.26H25.1239ZM16.2639 40H18.2639V26H16.2639H14.2639V40H16.2639ZM16.2639 26V28H26.0239V26V24H16.2639V26ZM26.0239 26H24.0239V28.9H26.0239H28.0239V26H26.0239ZM26.0239 28.9V26.9H19.5639V28.9V30.9H26.0239V28.9ZM19.5639 28.9H17.5639V37.1H19.5639H21.5639V28.9H19.5639ZM19.5639 37.1V39.1H26.2239V37.1V35.1H19.5639V37.1ZM26.2239 37.1H24.2239V40H26.2239H28.2239V37.1H26.2239ZM26.2239 40V38H16.2639V40V42H26.2239V40ZM17.8639 34.26H19.8639V31.5H17.8639H15.8639V34.26H17.8639ZM17.8639 31.5V33.5H25.1239V31.5V29.5H17.8639V31.5ZM25.1239 31.5H23.1239V34.26H25.1239H27.1239V31.5H25.1239ZM25.1239 34.26V32.26H17.8639V34.26V36.26H25.1239V34.26ZM37.3745 40L35.7292 41.1371L36.3256 42H37.3745V40ZM33.0345 33.72L34.6799 32.5829L34.6688 32.5669L34.6574 32.5512L33.0345 33.72ZM27.4745 26V24H23.5694L25.8516 27.1688L27.4745 26ZM31.6145 26L33.2654 24.871L32.6697 24H31.6145V26ZM35.8545 32.2L34.2037 33.329L34.2194 33.352L34.2358 33.3746L35.8545 32.2ZM41.5145 40V42H45.4369L43.1333 38.8254L41.5145 40ZM27.3745 40L25.7367 38.8522L23.5307 42H27.3745V40ZM32.7145 32.38L33.7136 30.6474L32.1275 29.7328L31.0767 31.2322L32.7145 32.38ZM35.4545 33.96L37.1042 35.0907L38.3265 33.3074L36.4536 32.2274L35.4545 33.96ZM31.3145 40V42H32.3684L32.9642 41.1307L31.3145 40ZM36.1745 33.5L35.1989 35.2459L36.7924 36.1364L37.8243 34.6306L36.1745 33.5ZM33.4545 31.98L31.7819 30.8835L30.6051 32.6788L32.4789 33.7259L33.4545 31.98ZM37.3745 26V24H36.2942L35.7019 24.9035L37.3745 26ZM41.3145 26L42.9643 27.1306L45.1098 24H41.3145V26ZM37.3745 40L39.0199 38.8629L34.6799 32.5829L33.0345 33.72L31.3892 34.8571L35.7292 41.1371L37.3745 40ZM33.0345 33.72L34.6574 32.5512L29.0974 24.8312L27.4745 26L25.8516 27.1688L31.4116 34.8888L33.0345 33.72ZM27.4745 26V28H31.6145V26V24H27.4745V26ZM31.6145 26L29.9637 27.129L34.2037 33.329L35.8545 32.2L37.5054 31.071L33.2654 24.871L31.6145 26ZM35.8545 32.2L34.2358 33.3746L39.8958 41.1746L41.5145 40L43.1333 38.8254L37.4733 31.0254L35.8545 32.2ZM41.5145 40V38H37.3745V40V42H41.5145V40ZM27.3745 40L29.0124 41.1478L34.3524 33.5278L32.7145 32.38L31.0767 31.2322L25.7367 38.8522L27.3745 40ZM32.7145 32.38L31.7155 34.1126L34.4555 35.6926L35.4545 33.96L36.4536 32.2274L33.7136 30.6474L32.7145 32.38ZM35.4545 33.96L33.8049 32.8293L29.6649 38.8693L31.3145 40L32.9642 41.1307L37.1042 35.0907L35.4545 33.96ZM31.3145 40V38H27.3745V40V42H31.3145V40ZM36.1745 33.5L37.1502 31.7541L34.4302 30.2341L33.4545 31.98L32.4789 33.7259L35.1989 35.2459L36.1745 33.5ZM33.4545 31.98L35.1272 33.0765L39.0472 27.0965L37.3745 26L35.7019 24.9035L31.7819 30.8835L33.4545 31.98ZM37.3745 26V28H41.3145V26V24H37.3745V26ZM41.3145 26L39.6648 24.8694L34.5248 32.3694L36.1745 33.5L37.8243 34.6306L42.9643 27.1306L41.3145 26ZM46.2961 40H44.2961V42H46.2961V40ZM46.2961 29H48.2961V27H46.2961V29ZM42.1361 29H40.1361V31H42.1361V29ZM42.1361 26V24H40.1361V26H42.1361ZM53.9561 26H55.9561V24H53.9561V26ZM53.9561 29V31H55.9561V29H53.9561ZM49.6961 29V27H47.6961V29H49.6961ZM49.6961 40V42H51.6961V40H49.6961ZM46.2961 40H48.2961V29H46.2961H44.2961V40H46.2961ZM46.2961 29V27H42.1361V29V31H46.2961V29ZM42.1361 29H44.1361V26H42.1361H40.1361V29H42.1361ZM42.1361 26V28H53.9561V26V24H42.1361V26ZM53.9561 26H51.9561V29H53.9561H55.9561V26H53.9561ZM53.9561 29V27H49.6961V29V31H53.9561V29ZM49.6961 29H47.6961V40H49.6961H51.6961V29H49.6961ZM49.6961 40V38H46.2961V40V42H49.6961V40Z" fill="#3F3F46" mask="url(#path-1-outside-1_12597_30693)"/>
<defs>
<linearGradient id="paint0_linear_12597_30693" x1="28" y1="24" x2="28" y2="40" gradientUnits="userSpaceOnUse">
<stop stop-color="#52525B" stop-opacity="0"/>
<stop offset="1" stop-color="#52525B" stop-opacity="0.4"/>
</linearGradient>
</defs>
</svg>
