<svg width="64" height="64" viewBox="0 0 64 64" fill="none" xmlns="http://www.w3.org/2000/svg">
<path d="M32 4C32 4 18 16 18 28C18 34 21 40 32 40C43 40 46 34 46 28C46 16 32 4 32 4Z" fill="url(#paint0_linear_fire)" stroke="#3F3F46" stroke-width="2" stroke-linecap="round" stroke-linejoin="round"/>
<path d="M32 40C32 40 26 46 26 52C26 58 29 62 32 62C35 62 38 58 38 52C38 46 32 40 32 40Z" fill="url(#paint0_linear_fire)" stroke="#3F3F46" stroke-width="2" stroke-linecap="round" stroke-linejoin="round"/>
<path d="M18 28C12 22 9 14 12 8" stroke="#3F3F46" stroke-width="2" stroke-linecap="round" stroke-dasharray="8 2"/>
<path d="M46 28C52 22 55 14 52 8" stroke="#3F3F46" stroke-width="2" stroke-linecap="round" stroke-dasharray="8 2"/>
<defs>
<linearGradient id="paint0_linear_fire" x1="32" y1="0" x2="32" y2="64" gradientUnits="userSpaceOnUse">
<stop stop-color="#52525B" stop-opacity="0"/>
<stop offset="1" stop-color="#52525B" stop-opacity="0.4"/>
</linearGradient>
</defs>
</svg>
