<svg width="56" height="64" viewBox="0 0 56 64" fill="none" xmlns="http://www.w3.org/2000/svg">
<path d="M53.249 46.5771L52.749 46.8662L28.5 60.8662L28 61.1543L27.5 60.8662L3.25098 46.8662L2.75098 46.5771V17.4229L3.25098 17.1338L27.5 3.13379L28 2.8457L28.5 3.13379L52.749 17.1338L53.249 17.4229V46.5771Z" fill="url(#paint0_linear_12546_30053)" stroke="#3F3F46" stroke-width="2"/>
<path d="M4.63477 19.0156L14.8692 23.4794H40.7451L51.752 19.0156" stroke="#3F3F46" stroke-width="2" stroke-dasharray="18 6"/>
<path d="M28.5801 4.61133L40.5525 23.4809L28.5801 47.4229V59.7997" stroke="#3F3F46" stroke-width="2" stroke-dasharray="18 6"/>
<path d="M28.0002 4L14.8691 23.4783L28.0002 47.8261" stroke="#3F3F46" stroke-width="2" stroke-dasharray="18 6"/>
<path d="M41.9034 25.1022L52.9103 45.5949L28.3862 48.0297L3.66895 45.5949L14.4827 23.8848" stroke="#3F3F46" stroke-width="2" stroke-dasharray="18 6"/>
<defs>
<linearGradient id="paint0_linear_12546_30053" x1="28" y1="4" x2="28" y2="60" gradientUnits="userSpaceOnUse">
<stop stop-color="#52525B" stop-opacity="0"/>
<stop offset="1" stop-color="#52525B" stop-opacity="0.4"/>
</linearGradient>
</defs>
</svg>
