<svg width="45" height="45" viewBox="0 0 45 45" fill="none" xmlns="http://www.w3.org/2000/svg">
<path d="M11.6154 1.77189C11.5768 1.77892 11.5381 1.78947 11.5029 1.80001C11.0846 1.89493 10.7893 2.27111 10.7998 2.70001V5.40001C10.7717 5.40001 10.7436 5.40001 10.7154 5.40001C10.2197 5.42462 9.83301 5.8465 9.85762 6.3422C9.88223 6.8379 10.3041 7.22462 10.7998 7.20001H12.5998C12.9232 7.20353 13.2256 7.03478 13.3908 6.75353C13.5525 6.47228 13.5525 6.12775 13.3908 5.8465C13.2256 5.56525 12.9232 5.3965 12.5998 5.40001V2.70001C12.6104 2.43986 12.5049 2.19025 12.3186 2.01447C12.1287 1.83517 11.8721 1.74728 11.6154 1.77189ZM22.4154 1.77189C22.3768 1.77892 22.3381 1.78947 22.3029 1.80001C21.8846 1.89493 21.5893 2.27111 21.5998 2.70001V5.40001C21.5717 5.40001 21.5436 5.40001 21.5154 5.40001C21.0197 5.42462 20.633 5.8465 20.6576 6.3422C20.6822 6.8379 21.1041 7.22462 21.5998 7.20001H23.3998C23.7232 7.20353 24.0256 7.03478 24.1908 6.75353C24.3525 6.47228 24.3525 6.12775 24.1908 5.8465C24.0256 5.56525 23.7232 5.3965 23.3998 5.40001V2.70001C23.4104 2.43986 23.3049 2.19025 23.1186 2.01447C22.9287 1.83517 22.6721 1.74728 22.4154 1.77189ZM33.2154 1.77189C33.1768 1.77892 33.1381 1.78947 33.1029 1.80001C32.6846 1.89493 32.3893 2.27111 32.3998 2.70001V5.40001C32.3717 5.40001 32.3436 5.40001 32.3154 5.40001C31.8197 5.42462 31.433 5.8465 31.4576 6.3422C31.4822 6.8379 31.9041 7.22462 32.3998 7.20001H34.1998C34.5232 7.20353 34.8256 7.03478 34.9908 6.75353C35.1525 6.47228 35.1525 6.12775 34.9908 5.8465C34.8256 5.56525 34.5232 5.3965 34.1998 5.40001V2.70001C34.2104 2.43986 34.1049 2.19025 33.9186 2.01447C33.7287 1.83517 33.4721 1.74728 33.2154 1.77189ZM2.6998 2.70001C2.2041 2.70001 1.7998 3.10431 1.7998 3.60001V27.9C1.7998 28.3992 2.2041 28.8 2.6998 28.8H42.2998C42.799 28.8 43.1998 28.3992 43.1998 27.9V3.60001C43.1998 3.10431 42.799 2.70001 42.2998 2.70001H35.9998V4.30314C36.5518 4.79884 36.8998 5.50197 36.8998 6.30001C36.8998 7.78712 35.6869 9.00001 34.1998 9.00001H32.3998C30.9127 9.00001 29.6998 7.78712 29.6998 6.30001C29.6998 5.50197 30.0479 4.79884 30.5998 4.30314V2.70001H25.1998V4.30314C25.7518 4.79884 26.0998 5.50197 26.0998 6.30001C26.0998 7.78712 24.8869 9.00001 23.3998 9.00001H21.5998C20.1127 9.00001 18.8998 7.78712 18.8998 6.30001C18.8998 5.50197 19.2479 4.79884 19.7998 4.30314V2.70001H14.3998V4.30314C14.9518 4.79884 15.2998 5.50197 15.2998 6.30001C15.2998 7.78712 14.0869 9.00001 12.5998 9.00001H10.7998C9.3127 9.00001 8.0998 7.78712 8.0998 6.30001C8.0998 5.50197 8.44785 4.79884 8.9998 4.30314V2.70001H2.6998ZM17.9998 30.6V41.4H16.1998C16.1717 41.4 16.1436 41.4 16.1154 41.4C16.0873 41.4 16.0592 41.4 16.0311 41.4C15.5354 41.4457 15.1697 41.8887 15.2154 42.3844C15.2611 42.8801 15.7041 43.2457 16.1998 43.2H28.7998C29.1232 43.2035 29.4256 43.0348 29.5908 42.7535C29.7525 42.4723 29.7525 42.1277 29.5908 41.8465C29.4256 41.5652 29.1232 41.3965 28.7998 41.4H26.9998V30.6H17.9998Z" fill="#B4B0B0"/>
</svg>
