<svg width="22" height="22" viewBox="0 0 22 22" fill="none" xmlns="http://www.w3.org/2000/svg">
<g clip-path="url(#clip0_2350_25209)">
<path d="M21.9948 5.6925C21.9914 5.65125 21.9845 5.61172 21.9708 5.57391C21.9639 5.55672 21.957 5.54125 21.9502 5.52578C21.9347 5.49484 21.9141 5.46562 21.89 5.43813C21.8797 5.42438 21.8694 5.41234 21.8591 5.40031C21.8539 5.39516 21.8505 5.39 21.8453 5.38484L15.6853 0.104844C15.6062 0.0378125 15.5048 0 15.4 0H0.44C0.433125 0 0.42625 0.0034375 0.419375 0.0034375C0.397031 0.0034375 0.376406 0.00859377 0.355781 0.0120313C0.333438 0.0171875 0.312813 0.020625 0.292188 0.0292188C0.285313 0.0309375 0.278438 0.0309375 0.271563 0.0326563C0.257813 0.0395313 0.2475 0.048125 0.235469 0.055C0.216563 0.0653127 0.195938 0.075625 0.17875 0.089375C0.161563 0.101406 0.146094 0.116875 0.132344 0.132344C0.116875 0.146094 0.101406 0.161563 0.089375 0.17875C0.075625 0.195938 0.0653127 0.214844 0.055 0.235469C0.048125 0.2475 0.0395313 0.257813 0.0326563 0.271563C0.0309375 0.278438 0.0309375 0.285313 0.0292188 0.292188C0.020625 0.312813 0.0171875 0.333438 0.0120313 0.355781C0.00859377 0.376406 0.0034375 0.397031 0.0034375 0.419375C0.0034375 0.42625 0 0.433125 0 0.44V15.4C0 15.5048 0.0378125 15.6062 0.106563 15.6853L5.38656 21.8453C5.39 21.8505 5.39516 21.8522 5.39859 21.8556C5.42953 21.8883 5.46734 21.9141 5.50688 21.9364C5.52063 21.945 5.52922 21.9553 5.54297 21.9622C5.59797 21.9862 5.65641 22 5.72 22H21.56C21.8041 22 22 21.8041 22 21.56V5.72C22 5.70969 21.9948 5.70281 21.9948 5.6925ZM15.2367 0.88L20.3706 5.28H5.90219L1.50219 0.88H15.2367ZM21.12 21.12H6.16V6.16H21.12V21.12Z" fill="white"/>
</g>
<defs>
<clipPath id="clip0_2350_25209">
<rect width="22" height="22" fill="white"/>
</clipPath>
</defs>
</svg>
