<svg width="14" height="30" viewBox="0 0 14 30" fill="none" xmlns="http://www.w3.org/2000/svg">
<path d="M7 0C4.97917 0 3.33333 1.61005 3.33333 3.58696C3.33333 5.56386 4.97917 7.17391 7 7.17391C9.02083 7.17391 10.6667 5.56386 10.6667 3.58696C10.6667 1.61005 9.02083 0 7 0ZM3.66667 7.82609C1.64583 7.82609 0 9.43614 0 11.413V19.5652C0 20.2862 0.598959 20.8696 1.33333 20.8696C2.06771 20.8696 2.66667 20.2862 2.66667 19.5652V13.3492C2.66667 13.1734 2.82031 13.0231 3 13.0231C3.17969 13.0231 3.33333 13.1734 3.33333 13.3492V28.2473C3.33333 29.2663 3.89323 30 4.9375 30C5.92448 30 6.66667 29.251 6.66667 28.2473V19.8709C6.66667 19.69 6.8151 19.5448 7 19.5448C7.1849 19.5448 7.33333 19.69 7.33333 19.8709V28.4307C7.33594 28.4358 7.35156 28.4256 7.35417 28.4307C7.44531 29.3325 8.14063 30 9.0625 30C10.1042 30 10.6667 29.2663 10.6667 28.2473V13.4715C10.6667 13.2957 10.8203 13.1454 11 13.1454C11.1797 13.1454 11.3333 13.2957 11.3333 13.4715V19.5652C11.3333 20.2862 11.9323 20.8696 12.6667 20.8696C13.401 20.8696 14 20.2862 14 19.5652V11.413C14 9.43614 12.3542 7.82609 10.3333 7.82609H3.66667Z" fill="white"/>
</svg>
