<svg width="12" height="14" viewBox="0 0 12 14" fill="none" xmlns="http://www.w3.org/2000/svg">
<path d="M4.8 0C4.48594 0 4.16484 0.107096 3.9375 0.328125C3.71016 0.549154 3.6 0.861328 3.6 1.16667V1.75H0V2.91667H0.6V12.25C0.6 13.2093 1.41328 14 2.4 14H9.6C10.5867 14 11.4 13.2093 11.4 12.25V2.91667H12V1.75H8.4V1.16667C8.4 0.861328 8.28984 0.549154 8.0625 0.328125C7.83516 0.107096 7.51406 0 7.2 0H4.8ZM4.8 1.16667H7.2V1.75H4.8V1.16667ZM1.8 2.91667H10.2V12.25C10.2 12.5736 9.93281 12.8333 9.6 12.8333H2.4C2.06719 12.8333 1.8 12.5736 1.8 12.25V2.91667ZM3 4.66667V11.0833H4.2V4.66667H3ZM5.4 4.66667V11.0833H6.6V4.66667H5.4ZM7.8 4.66667V11.0833H9V4.66667H7.8Z" fill="white" fill-opacity="0.6"/>
</svg>
