<?xml version="1.0" encoding="UTF-8" standalone="no"?>
<!DOCTYPE svg PUBLIC "-//W3C//DTD SVG 1.1//EN" "http://www.w3.org/Graphics/SVG/1.1/DTD/svg11.dtd">
<svg width="100%" height="100%" viewBox="0 0 256 256" version="1.1" xmlns="http://www.w3.org/2000/svg" xmlns:xlink="http://www.w3.org/1999/xlink" xml:space="preserve" xmlns:serif="http://www.serif.com/" style="fill-rule:evenodd;clip-rule:evenodd;stroke-linejoin:round;stroke-miterlimit:2;">
    <g transform="matrix(1.142857,0,0,1.142857,-18.285714,-18.285714)">
        <path d="M128,16C189.814,16 240,66.186 240,128C240,189.814 189.814,240 128,240C66.186,240 16,189.814 16,128C16,66.186 66.186,16 128,16ZM209.551,113.417C202.653,74.644 168.742,45.167 128,45.167C87.258,45.167 53.347,74.644 46.449,113.417L96.178,113.417C101.712,101.372 113.886,93 128,93C142.114,93 154.288,101.372 159.822,113.417L209.551,113.417ZM142.583,209.551C176.621,203.495 203.495,176.621 209.551,142.583L159.822,142.583C156.328,150.187 150.187,156.328 142.583,159.822L142.583,209.551ZM46.449,142.583C52.505,176.621 79.379,203.495 113.417,209.551L113.417,159.822C105.813,156.328 99.672,150.187 96.178,142.583L46.449,142.583Z" style="fill:white;"/>
    </g>
</svg>
