<svg width="34" height="38" viewBox="0 0 34 38" fill="none" xmlns="http://www.w3.org/2000/svg">
<path d="M13.2222 3.61905C12.687 3.61905 12.2387 3.44533 11.8773 3.0979C11.5147 2.75168 11.3333 2.32222 11.3333 1.80952C11.3333 1.29683 11.5147 0.866762 11.8773 0.519333C12.2387 0.173111 12.687 0 13.2222 0H20.7778C21.313 0 21.7619 0.173111 22.1246 0.519333C22.486 0.866762 22.6667 1.29683 22.6667 1.80952C22.6667 2.32222 22.486 2.75168 22.1246 3.0979C21.7619 3.44533 21.313 3.61905 20.7778 3.61905H13.2222ZM17 23.5238C17.5352 23.5238 17.9841 23.3501 18.3468 23.0027C18.7082 22.6564 18.8889 22.227 18.8889 21.7143V14.4762C18.8889 13.9635 18.7082 13.5334 18.3468 13.186C17.9841 12.8398 17.5352 12.6667 17 12.6667C16.4648 12.6667 16.0165 12.8398 15.6551 13.186C15.2924 13.5334 15.1111 13.9635 15.1111 14.4762V21.7143C15.1111 22.227 15.2924 22.6564 15.6551 23.0027C16.0165 23.3501 16.4648 23.5238 17 23.5238ZM17 38C14.6704 38 12.4742 37.5705 10.4116 36.7116C8.35015 35.8515 6.54815 34.6825 5.00556 33.2048C3.46296 31.727 2.24274 30.0007 1.34489 28.0259C0.448296 26.0499 0 23.946 0 21.7143C0 19.4825 0.448296 17.3787 1.34489 15.4027C2.24274 13.4279 3.46296 11.7016 5.00556 10.2238C6.54815 8.74603 8.35015 7.57768 10.4116 6.71876C12.4742 5.85863 14.6704 5.42857 17 5.42857C18.9519 5.42857 20.825 5.73016 22.6194 6.33333C24.4139 6.93651 26.0981 7.81111 27.6722 8.95714L29.0417 7.64524C29.388 7.31349 29.813 7.14762 30.3167 7.14762C30.8204 7.14762 31.2611 7.32857 31.6389 7.69048C31.9852 8.02222 32.1583 8.44444 32.1583 8.95714C32.1583 9.46984 31.9852 9.89206 31.6389 10.2238L30.3167 11.4905C31.513 12.9984 32.4259 14.6119 33.0556 16.331C33.6852 18.05 34 19.8444 34 21.7143C34 23.946 33.5517 26.0499 32.6551 28.0259C31.7573 30.0007 30.537 31.727 28.9944 33.2048C27.4519 34.6825 25.6499 35.8515 23.5884 36.7116C21.5258 37.5705 19.3296 38 17 38Z" fill="white"/>
</svg>
