<svg width="24" height="21" viewBox="0 0 24 21" fill="none" xmlns="http://www.w3.org/2000/svg">
<rect x="0.5" y="0.5" width="23" height="20" rx="5.5" fill="#0C0C0C" stroke="white"/>
<mask id="path-2-outside-1_2210_228" maskUnits="userSpaceOnUse" x="6" y="5" width="12" height="11" fill="black">
<rect fill="white" x="6" y="5" width="12" height="11"/>
<path d="M9.69531 6.54688L11.9766 9.96094L14.2656 6.54688H15.375L12.5078 10.6875L15.4922 15H14.3984L11.9844 11.4297L9.57812 15H8.48438L11.4688 10.6875L8.60156 6.54688H9.69531Z"/>
</mask>
<path d="M9.69531 6.54688L11.9766 9.96094L14.2656 6.54688H15.375L12.5078 10.6875L15.4922 15H14.3984L11.9844 11.4297L9.57812 15H8.48438L11.4688 10.6875L8.60156 6.54688H9.69531Z" fill="white"/>
<path d="M9.69531 6.54688L10.5268 5.9913L10.2298 5.54688H9.69531V6.54688ZM11.9766 9.96094L11.1451 10.5165L11.9751 11.7587L12.8071 10.5178L11.9766 9.96094ZM14.2656 6.54688V5.54688H13.7321L13.435 5.98998L14.2656 6.54688ZM15.375 6.54688L16.1971 7.11617L17.2838 5.54688H15.375V6.54688ZM12.5078 10.6875L11.6857 10.1182L11.2916 10.6873L11.6855 11.2566L12.5078 10.6875ZM15.4922 15V16H17.4003L16.3145 14.4309L15.4922 15ZM14.3984 15L13.57 15.5601L13.8675 16H14.3984V15ZM11.9844 11.4297L12.8128 10.8696L11.983 9.64239L11.1551 10.8708L11.9844 11.4297ZM9.57812 15V16H10.1101L10.4074 15.5589L9.57812 15ZM8.48438 15L7.66208 14.4309L6.57624 16H8.48438V15ZM11.4688 10.6875L12.291 11.2566L12.685 10.6873L12.2909 10.1182L11.4688 10.6875ZM8.60156 6.54688V5.54688H6.69277L7.77943 7.11617L8.60156 6.54688ZM8.86385 7.10245L11.1451 10.5165L12.808 9.40536L10.5268 5.9913L8.86385 7.10245ZM12.8071 10.5178L15.0962 7.10377L13.435 5.98998L11.146 9.40405L12.8071 10.5178ZM14.2656 7.54688H15.375V5.54688H14.2656V7.54688ZM14.5529 5.97758L11.6857 10.1182L13.3299 11.2568L16.1971 7.11617L14.5529 5.97758ZM11.6855 11.2566L14.6699 15.5691L16.3145 14.4309L13.3301 10.1184L11.6855 11.2566ZM15.4922 14H14.3984V16H15.4922V14ZM15.2268 14.4399L12.8128 10.8696L11.156 11.9898L13.57 15.5601L15.2268 14.4399ZM11.1551 10.8708L8.74888 14.4411L10.4074 15.5589L12.8136 11.9886L11.1551 10.8708ZM9.57812 14H8.48438V16H9.57812V14ZM9.30667 15.5691L12.291 11.2566L10.6465 10.1184L7.66208 14.4309L9.30667 15.5691ZM12.2909 10.1182L9.4237 5.97758L7.77943 7.11617L10.6466 11.2568L12.2909 10.1182ZM8.60156 7.54688H9.69531V5.54688H8.60156V7.54688Z" fill="white" mask="url(#path-2-outside-1_2210_228)"/>
</svg>
