<svg width="33" height="33" viewBox="0 0 33 33" fill="none" xmlns="http://www.w3.org/2000/svg">
<path d="M8.75 0V2.91667H11.6667V0H8.75ZM14.5833 0V2.91667H17.5V0H14.5833ZM20.4167 0V2.91667H23.3333V0H20.4167ZM7.29167 4.375C5.69762 4.375 4.375 5.69762 4.375 7.29167V24.7917C4.375 26.3857 5.69762 27.7083 7.29167 27.7083H24.7917C26.3857 27.7083 27.7083 26.3857 27.7083 24.7917V7.29167C27.7083 5.69762 26.3857 4.375 24.7917 4.375H7.29167ZM7.29167 7.29167H24.7917V24.7917H7.29167V7.29167ZM0 8.75V11.6667H2.91667V8.75H0ZM29.1667 8.75V11.6667H32.0833V8.75H29.1667ZM11.6667 11.6667V13.125V20.4167H20.4167V11.6667H11.6667ZM0 14.5833V17.5H2.91667V14.5833H0ZM14.5833 14.5833H17.5V17.5H14.5833V14.5833ZM29.1667 14.5833V17.5H32.0833V14.5833H29.1667ZM0 20.4167V23.3333H2.91667V20.4167H0ZM29.1667 20.4167V23.3333H32.0833V20.4167H29.1667ZM8.75 29.1667V32.0833H11.6667V29.1667H8.75ZM14.5833 29.1667V32.0833H17.5V29.1667H14.5833ZM20.4167 29.1667V32.0833H23.3333V29.1667H20.4167Z" fill="#B4B0B0"/>
</svg>
