<svg width="17" height="16" viewBox="0 0 17 16" fill="none" xmlns="http://www.w3.org/2000/svg">
<path d="M9.24985 2.75C9.24985 2.55109 9.17083 2.36032 9.03018 2.21967C8.88952 2.07902 8.69876 2 8.49985 2C8.30093 2 8.11017 2.07902 7.96952 2.21967C7.82886 2.36032 7.74985 2.55109 7.74985 2.75V8.44L5.52985 6.22C5.38767 6.08752 5.19963 6.0154 5.00532 6.01883C4.81102 6.02225 4.62564 6.10097 4.48822 6.23838C4.35081 6.37579 4.2721 6.56118 4.26867 6.75548C4.26524 6.94978 4.33737 7.13783 4.46985 7.28L7.96985 10.78C8.11047 10.9205 8.3011 10.9993 8.49985 10.9993C8.6986 10.9993 8.88922 10.9205 9.02985 10.78L12.5298 7.28C12.6623 7.13783 12.7345 6.94978 12.731 6.75548C12.7276 6.56118 12.6489 6.37579 12.5115 6.23838C12.3741 6.10097 12.1887 6.02225 11.9944 6.01883C11.8001 6.0154 11.612 6.08752 11.4698 6.22L9.24985 8.44V2.75Z" fill="#F8FAFC"/>
<path d="M4 9.75C4 9.55109 3.92098 9.36032 3.78033 9.21967C3.63968 9.07902 3.44891 9 3.25 9C3.05109 9 2.86032 9.07902 2.71967 9.21967C2.57902 9.36032 2.5 9.55109 2.5 9.75V11.25C2.5 11.9793 2.78973 12.6788 3.30546 13.1945C3.82118 13.7103 4.52065 14 5.25 14H11.75C12.4793 14 13.1788 13.7103 13.6945 13.1945C14.2103 12.6788 14.5 11.9793 14.5 11.25V9.75C14.5 9.55109 14.421 9.36032 14.2803 9.21967C14.1397 9.07902 13.9489 9 13.75 9C13.5511 9 13.3603 9.07902 13.2197 9.21967C13.079 9.36032 13 9.55109 13 9.75V11.25C13 11.94 12.44 12.5 11.75 12.5H5.25C4.56 12.5 4 11.94 4 11.25V9.75Z" fill="#F8FAFC"/>
</svg>
