<svg width="23" height="20" viewBox="0 0 23 20" fill="none" xmlns="http://www.w3.org/2000/svg">
<path d="M4.03396 0.471436C3.89932 0.471468 3.76775 0.511703 3.65609 0.586992C3.54442 0.66228 3.45774 0.769198 3.40713 0.894067C3.35653 1.01894 3.3443 1.15608 3.372 1.28794C3.39971 1.41981 3.4661 1.5404 3.56267 1.63429L4.20045 2.27258C4.26279 2.33756 4.33746 2.38944 4.42008 2.42518C4.50271 2.46092 4.59162 2.4798 4.68163 2.48072C4.77164 2.48163 4.86092 2.46457 4.94425 2.43052C5.02759 2.39647 5.10329 2.34612 5.16694 2.28242C5.23059 2.21872 5.2809 2.14295 5.31492 2.05955C5.34894 1.97615 5.36599 1.88679 5.36508 1.79672C5.36416 1.70664 5.3453 1.61765 5.30959 1.53495C5.27388 1.45226 5.22204 1.37754 5.15711 1.31514L4.51934 0.676853C4.45628 0.611859 4.38083 0.56019 4.29745 0.524906C4.21408 0.489621 4.12448 0.471439 4.03396 0.471436ZM19.5458 0.472317C19.3701 0.477442 19.2033 0.550797 19.0807 0.676853L18.4429 1.31514C18.378 1.37753 18.3262 1.45226 18.2904 1.53495C18.2547 1.61765 18.2359 1.70664 18.235 1.79672C18.234 1.8868 18.2511 1.97615 18.2851 2.05955C18.3191 2.14296 18.3694 2.21872 18.4331 2.28242C18.4967 2.34612 18.5724 2.39647 18.6558 2.43052C18.7391 2.46457 18.8284 2.48164 18.9184 2.48072C19.0084 2.4798 19.0973 2.46092 19.18 2.42518C19.2626 2.38944 19.3372 2.33756 19.3996 2.27258L20.0374 1.63429C20.135 1.53916 20.2016 1.41675 20.2285 1.28309C20.2555 1.14944 20.2415 1.01075 20.1884 0.885188C20.1352 0.759626 20.0455 0.653037 19.9308 0.57937C19.8162 0.505704 19.682 0.468392 19.5458 0.472317ZM11.8 1.48265C8.31947 1.48401 5.48569 4.30858 5.48569 7.7924C5.48569 9.53657 6.2096 11.191 7.45804 12.3759C7.93342 12.8269 8.23651 13.4299 8.37858 14.0695L8.58912 15.0146H15.0109L15.2215 14.0695C15.3635 13.4299 15.6671 12.8269 16.142 12.3759C17.3909 11.191 18.1143 9.53657 18.1143 7.7924C18.1143 4.30858 15.2806 1.48401 11.8 1.48265ZM1.65199 6.43823C1.56234 6.43696 1.47334 6.45354 1.39014 6.487C1.30695 6.52045 1.23123 6.57012 1.16739 6.63312C1.10354 6.69612 1.05285 6.77119 1.01824 6.85397C0.98364 6.93675 0.96582 7.02558 0.96582 7.11532C0.96582 7.20505 0.98364 7.29388 1.01824 7.37666C1.05285 7.45944 1.10354 7.53451 1.16739 7.59751C1.23123 7.66051 1.30695 7.71018 1.39014 7.74363C1.47334 7.77709 1.56234 7.79367 1.65199 7.7924H3.00506C3.09471 7.79367 3.18372 7.77709 3.26691 7.74363C3.3501 7.71018 3.42582 7.66051 3.48966 7.59751C3.55351 7.53451 3.60421 7.45944 3.63881 7.37666C3.67341 7.29388 3.69123 7.20505 3.69123 7.11532C3.69123 7.02558 3.67341 6.93675 3.63881 6.85397C3.60421 6.77119 3.55351 6.69612 3.48966 6.63312C3.42582 6.57012 3.3501 6.52045 3.26691 6.487C3.18372 6.45354 3.09471 6.43696 3.00506 6.43823H1.65199ZM20.595 6.43823C20.5053 6.43696 20.4163 6.45354 20.3331 6.487C20.2499 6.52045 20.1742 6.57012 20.1104 6.63312C20.0465 6.69612 19.9958 6.77119 19.9612 6.85397C19.9266 6.93675 19.9088 7.02558 19.9088 7.11532C19.9088 7.20505 19.9266 7.29388 19.9612 7.37666C19.9958 7.45944 20.0465 7.53451 20.1104 7.59751C20.1742 7.66051 20.2499 7.71018 20.3331 7.74363C20.4163 7.77709 20.5053 7.79367 20.595 7.7924H21.948C22.0377 7.79367 22.1267 7.77709 22.2099 7.74363C22.2931 7.71018 22.3688 7.66051 22.4326 7.59751C22.4965 7.53451 22.5472 7.45944 22.5818 7.37666C22.6164 7.29388 22.6342 7.20505 22.6342 7.11532C22.6342 7.02558 22.6164 6.93675 22.5818 6.85397C22.5472 6.77119 22.4965 6.69612 22.4326 6.63312C22.3688 6.57012 22.2931 6.52045 22.2099 6.487C22.1267 6.45354 22.0377 6.43696 21.948 6.43823H20.595ZM18.9142 11.7526C18.7796 11.7527 18.648 11.7929 18.5363 11.8682C18.4247 11.9435 18.338 12.0504 18.2874 12.1753C18.2368 12.3001 18.2245 12.4373 18.2523 12.5691C18.28 12.701 18.3463 12.8216 18.4429 12.9155L19.0807 13.5538C19.143 13.6188 19.2177 13.6706 19.3003 13.7064C19.383 13.7421 19.4719 13.761 19.5619 13.7619C19.6519 13.7628 19.7412 13.7458 19.8245 13.7117C19.9078 13.6777 19.9835 13.6273 20.0472 13.5636C20.1108 13.4999 20.1611 13.4241 20.1952 13.3407C20.2292 13.2573 20.2462 13.168 20.2453 13.0779C20.2444 12.9878 20.2255 12.8988 20.1898 12.8161C20.1541 12.7335 20.1023 12.6587 20.0374 12.5963L19.3996 11.958C19.3365 11.8931 19.2611 11.8414 19.1777 11.8061C19.0943 11.7708 19.0047 11.7526 18.9142 11.7526ZM4.66557 11.7535C4.48987 11.7586 4.32306 11.832 4.20045 11.958L3.56267 12.5963C3.49775 12.6587 3.44591 12.7335 3.4102 12.8161C3.37449 12.8988 3.35563 12.9878 3.35471 13.0779C3.3538 13.168 3.37085 13.2573 3.40487 13.3407C3.43889 13.4241 3.4892 13.4999 3.55285 13.5636C3.61649 13.6273 3.6922 13.6777 3.77553 13.7117C3.85887 13.7458 3.94815 13.7628 4.03816 13.7619C4.12816 13.761 4.21708 13.7421 4.29971 13.7064C4.38233 13.6706 4.457 13.6188 4.51934 13.5538L5.15711 12.9155C5.25471 12.8204 5.32135 12.6979 5.34829 12.5643C5.37523 12.4306 5.36123 12.2919 5.30811 12.1664C5.25499 12.0408 5.16524 11.9342 5.05059 11.8606C4.93595 11.7869 4.80175 11.7496 4.66557 11.7535ZM8.88951 16.3688L9.31587 18.2916C9.47643 19.0147 10.1178 19.5285 10.8575 19.5285H12.7426C13.4823 19.5285 14.1236 19.0147 14.2842 18.2916L14.7105 16.3688H8.88951Z" fill="#B4B0B0"/>
</svg>
