<svg width="17" height="16" viewBox="0 0 17 16" fill="none" xmlns="http://www.w3.org/2000/svg">
<path fill-rule="evenodd" clip-rule="evenodd" d="M5.49989 4C5.67557 3.99998 5.84568 4.06164 5.98055 4.17422C6.11542 4.28679 6.2065 4.44315 6.23789 4.616L6.48989 6.004C6.5354 6.25408 6.65607 6.48434 6.8358 6.66408C7.01554 6.84382 7.2458 6.96449 7.49589 7.01L8.88389 7.262C9.05681 7.29331 9.21325 7.38435 9.3259 7.51923C9.43855 7.65411 9.50026 7.82427 9.50026 8C9.50026 8.17573 9.43855 8.34589 9.3259 8.48077C9.21325 8.61565 9.05681 8.70669 8.88389 8.738L7.49589 8.99C7.2458 9.03551 7.01554 9.15618 6.8358 9.33592C6.65607 9.51566 6.5354 9.74592 6.48989 9.996L6.23789 11.384C6.20657 11.5569 6.11554 11.7134 5.98066 11.826C5.84578 11.9387 5.67562 12.0004 5.49989 12.0004C5.32415 12.0004 5.154 11.9387 5.01912 11.826C4.88424 11.7134 4.7932 11.5569 4.76189 11.384L4.50989 9.996C4.46438 9.74592 4.3437 9.51566 4.16397 9.33592C3.98423 9.15618 3.75397 9.03551 3.50389 8.99L2.11589 8.738C1.94296 8.70669 1.78652 8.61565 1.67387 8.48077C1.56122 8.34589 1.49951 8.17573 1.49951 8C1.49951 7.82427 1.56122 7.65411 1.67387 7.51923C1.78652 7.38435 1.94296 7.29331 2.11589 7.262L3.50389 7.01C3.75397 6.96449 3.98423 6.84382 4.16397 6.66408C4.3437 6.48434 4.46438 6.25408 4.50989 6.004L4.76189 4.616C4.79327 4.44315 4.88435 4.28679 5.01922 4.17422C5.15409 4.06164 5.3242 3.99998 5.49989 4ZM12.4999 1C12.6628 1.00003 12.8214 1.05314 12.9515 1.1513C13.0815 1.24945 13.1761 1.3873 13.2209 1.544L13.4159 2.226C13.5339 2.641 13.8589 2.966 14.2739 3.084L14.9559 3.279C15.1125 3.32386 15.2502 3.41848 15.3483 3.54856C15.4463 3.67864 15.4993 3.83711 15.4993 4C15.4993 4.16289 15.4463 4.32136 15.3483 4.45144C15.2502 4.58152 15.1125 4.67614 14.9559 4.721L14.2739 4.916C14.0698 4.97439 13.8839 5.0838 13.7338 5.23391C13.5837 5.38402 13.4743 5.56989 13.4159 5.774L13.2209 6.456C13.176 6.6126 13.0814 6.75033 12.9513 6.84838C12.8212 6.94643 12.6628 6.99946 12.4999 6.99946C12.337 6.99946 12.1785 6.94643 12.0484 6.84838C11.9184 6.75033 11.8237 6.6126 11.7789 6.456L11.5839 5.774C11.5255 5.56989 11.4161 5.38402 11.266 5.23391C11.1159 5.0838 10.93 4.97439 10.7259 4.916L10.0439 4.721C9.88729 4.67614 9.74956 4.58152 9.65151 4.45144C9.55346 4.32136 9.50043 4.16289 9.50043 4C9.50043 3.83711 9.55346 3.67864 9.65151 3.54856C9.74956 3.41848 9.88729 3.32386 10.0439 3.279L10.7259 3.084C10.93 3.02561 11.1159 2.9162 11.266 2.76609C11.4161 2.61598 11.5255 2.43011 11.5839 2.226L11.7789 1.544C11.8236 1.3873 11.9182 1.24945 12.0483 1.1513C12.1784 1.05314 12.3369 1.00003 12.4999 1ZM10.4999 11C10.6672 10.9999 10.8297 11.0558 10.9617 11.1587C11.0936 11.2616 11.1873 11.4057 11.2279 11.568C11.2705 11.7381 11.3584 11.8935 11.4824 12.0174C11.6064 12.1414 11.7618 12.2294 11.9319 12.272C12.0945 12.3123 12.239 12.4059 12.3422 12.5378C12.4455 12.6697 12.5016 12.8325 12.5016 13C12.5016 13.1675 12.4455 13.3303 12.3422 13.4622C12.239 13.5941 12.0945 13.6877 11.9319 13.728C11.7618 13.7706 11.6064 13.8586 11.4824 13.9826C11.3584 14.1065 11.2705 14.2619 11.2279 14.432C11.1876 14.5946 11.094 14.7391 10.9621 14.8423C10.8301 14.9456 10.6674 15.0017 10.4999 15.0017C10.3323 15.0017 10.1696 14.9456 10.0377 14.8423C9.90574 14.7391 9.81217 14.5946 9.77189 14.432C9.72931 14.2619 9.64133 14.1065 9.51733 13.9826C9.39334 13.8586 9.23799 13.7706 9.06789 13.728C8.90526 13.6877 8.7608 13.5941 8.65755 13.4622C8.55431 13.3303 8.49821 13.1675 8.49821 13C8.49821 12.8325 8.55431 12.6697 8.65755 12.5378C8.7608 12.4059 8.90526 12.3123 9.06789 12.272C9.23799 12.2294 9.39334 12.1414 9.51733 12.0174C9.64133 11.8935 9.72931 11.7381 9.77189 11.568C9.81249 11.4057 9.9062 11.2616 10.0381 11.1587C10.17 11.0558 10.3326 10.9999 10.4999 11Z" fill="white"/>
</svg>
