<svg width="22" height="22" viewBox="0 0 22 22" fill="none" xmlns="http://www.w3.org/2000/svg">
<path d="M6 22V20H8V22H6ZM10 22V20H12V22H10ZM14 22V20H16V22H14ZM5 19C3.90694 19 3 18.0931 3 17V5C3 3.90694 3.90694 3 5 3H17C18.0931 3 19 3.90694 19 5V17C19 18.0931 18.0931 19 17 19H5ZM5 17H17V5H5V17ZM0 16V14H2V16H0ZM20 16V14H22V16H20ZM8 14V8H14V14H8ZM10 12H12V10H10V12ZM0 12V10H2V12H0ZM20 12V10H22V12H20ZM0 8V6H2V8H0ZM20 8V6H22V8H20ZM6 2V0H8V2H6ZM10 2V0H12V2H10ZM14 2V0H16V2H14Z" fill="#6EE7B7"/>
</svg>
