<svg width="24" height="24" viewBox="0 0 24 24" fill="none" xmlns="http://www.w3.org/2000/svg">
<path d="M0 8C0 3.58172 3.58172 0 8 0H16C20.4183 0 24 3.58172 24 8V16C24 20.4183 20.4183 24 16 24H8C3.58172 24 0 20.4183 0 16V8Z" fill="transparent"/>
<path fill-rule="evenodd" clip-rule="evenodd" d="M19 12C19 15.866 15.866 19 12 19C8.13401 19 5 15.866 5 12C5 8.13401 8.13401 5 12 5C15.866 5 19 8.13401 19 12ZM13 15.5C13 16.0523 12.5523 16.5 12 16.5C11.4477 16.5 11 16.0523 11 15.5C11 14.9477 11.4477 14.5 12 14.5C12.5523 14.5 13 14.9477 13 15.5ZM11.293 9.29289C11.6835 8.90237 12.3167 8.90237 12.7072 9.29289C13.0978 9.68342 13.0978 10.3166 12.7072 10.7071C12.5835 10.8308 12.4374 10.9143 12.2827 10.9596C11.824 11.0939 11.2501 11.5258 11.2501 12.25V12.5002C11.2501 12.9144 11.5859 13.2502 12.0001 13.2502C12.4143 13.2502 12.7501 12.9144 12.7501 12.5002V12.3852C13.1231 12.2682 13.4739 12.0618 13.7679 11.7678C14.7442 10.7915 14.7442 9.20854 13.7679 8.23223C12.7916 7.25592 11.2087 7.25592 10.2324 8.23223C9.93947 8.52513 9.93947 9 10.2324 9.29289C10.5253 9.58579 11.0001 9.58579 11.293 9.29289Z" fill="#71717A"/>
</svg>
