<svg width="72" height="72" viewBox="0 0 72 72" fill="none" xmlns="http://www.w3.org/2000/svg">
<path d="M38.519 0C37.4796 0 36.4769 0.440217 35.7738 1.19837L15.6522 21.913V50.087L35.7738 70.8016C36.4769 71.5659 37.4796 72 38.519 72C40.5795 72 42.2609 70.3186 42.2609 68.2581V3.74185C42.2609 1.68139 40.5795 0 38.519 0ZM59.0014 13.1821L57.2466 15.7683C64.1861 19.8465 68.8696 27.3791 68.8696 36C68.8696 44.6209 64.1861 52.1535 57.2466 56.2317L59.0014 58.8179C66.7724 54.1712 72 45.697 72 36C72 26.303 66.7724 17.8288 59.0014 13.1821ZM53.7249 20.9409L51.9518 23.5455C56.4212 25.9117 59.4783 30.6012 59.4783 36C59.4783 41.3988 56.4212 46.0883 51.9518 48.4545L53.7249 51.0591C59.0197 48.1121 62.6087 42.4749 62.6087 36C62.6087 29.5251 59.0197 23.8879 53.7249 20.9409ZM4.69565 21.913C2.10937 21.913 0 24.0224 0 26.6087V45.3913C0 47.9776 2.10937 50.087 4.69565 50.087H12.5217V21.913H4.69565ZM48.3995 28.7792L46.5713 31.4755C48.589 32.0014 50.087 33.8173 50.087 36C50.087 38.1827 48.589 39.9986 46.5713 40.5245L48.3995 43.2208C51.2242 42.0346 53.2174 39.2466 53.2174 36C53.2174 32.7534 51.2242 29.9592 48.3995 28.7792Z" fill="#AEAEAE"/>
</svg>
