<?xml version="1.0" encoding="UTF-8" standalone="no"?>
<!DOCTYPE svg PUBLIC "-//W3C//DTD SVG 1.1//EN" "http://www.w3.org/Graphics/SVG/1.1/DTD/svg11.dtd">
<svg width="100%" height="100%" viewBox="0 0 243 266" version="1.1" xmlns="http://www.w3.org/2000/svg" xmlns:xlink="http://www.w3.org/1999/xlink" xml:space="preserve" xmlns:serif="http://www.serif.com/" style="fill-rule:evenodd;clip-rule:evenodd;stroke-linejoin:round;stroke-miterlimit:2;">
    <g transform="matrix(1,0,0,1,-133.045,-43.1338)">
        <g transform="matrix(1,0,0,1,-93.5883,-485.895)">
            <g id="v2-hex-logo" serif:id="v2 hex logo" transform="matrix(3.94761,0,0,3.94761,162.16,479.838)">
                <path d="M18.629,64.532C17.206,63.71 16.331,62.191 16.332,60.548L16.351,31.543C16.352,29.9 17.23,28.382 18.653,27.561L43.781,13.076C45.205,12.255 46.958,12.256 48.381,13.079L73.49,27.598C74.913,28.42 75.788,29.939 75.787,31.582L75.768,60.587C75.767,62.23 74.889,63.748 73.466,64.569L48.338,79.054C46.914,79.875 45.161,79.874 43.738,79.052L18.629,64.532ZM47.329,60.098C47.588,60.194 47.84,60.317 48.081,60.467L56.755,65.88C58.025,66.672 59.625,66.707 60.928,65.972L68.754,61.557C70.037,60.833 70.832,59.474 70.833,58L70.849,34.13C70.85,32.669 70.071,31.319 68.807,30.588L48.121,18.627C46.857,17.896 45.298,17.895 44.033,18.624L23.331,30.558C22.066,31.288 21.286,32.637 21.285,34.097L21.27,57.929C21.269,59.423 22.083,60.799 23.394,61.517L31.238,65.812C32.533,66.522 34.11,66.477 35.364,65.696L43.754,60.466C44.114,60.241 44.501,60.078 44.899,59.975C44.947,57.741 45.062,55.507 45.244,53.273L41.572,51.978C35.599,49.873 32.464,43.324 34.569,37.352L38.498,38.736C44.016,40.681 47.112,46.419 45.892,51.991L46.374,51.946C47.193,48.601 50.098,46.022 53.717,45.777L56.66,45.578C56.963,50.053 53.58,53.926 49.105,54.229L47.104,54.364C47.228,56.275 47.303,58.187 47.329,60.098Z" style="fill:white;"/>
            </g>
        </g>
        <g transform="matrix(1,0,0,1,-93.5883,-485.895)">
            <g transform="matrix(0.883931,0,0,0.883931,53.5542,96.0443)">
                <g transform="matrix(1,0,0,0.722222,-525.707,290.955)">
                    <path d="M995.723,566.284L995.723,596.532C995.723,604.879 990.829,611.655 984.8,611.655L873.894,611.655C867.865,611.655 862.971,604.879 862.971,596.532L862.971,566.284C862.971,557.937 867.865,551.161 873.894,551.161L984.8,551.161C985.9,551.161 990.639,551.329 991.503,550.998C991.922,550.837 992.894,550.538 994.51,548.275C995.349,547.101 995.598,545.558 995.598,545.558C995.598,545.558 995.723,563.761 995.723,566.284Z" style="fill:rgb(219,19,41);"/>
                </g>
                <g transform="matrix(1,0,0,1,-458.333,0)">
                    <path d="M919.67,680.988L919.67,689.041L924.084,688.956C924.084,688.956 925.885,688.27 927.144,686.992C928.701,685.413 928.227,682.566 926.981,681.565C925.736,680.564 919.67,680.988 919.67,680.988Z" style="fill:rgb(112,13,23);"/>
                </g>
                <g transform="matrix(1.20339,0,0,0.613636,-719.782,353.833)">
                    <path d="M890.673,599.941L897.572,565.719L901.173,565.719L908.022,599.941L903.738,599.941L900.437,582.566C900.311,581.889 900.179,581.158 900.043,580.371C899.906,579.585 899.771,578.78 899.635,577.957C899.5,577.134 899.372,576.321 899.251,575.518C899.13,574.716 899.031,573.969 898.952,573.277L899.683,573.257C899.583,574.073 899.475,574.872 899.357,575.654C899.24,576.435 899.116,577.21 898.987,577.977C898.858,578.745 898.721,579.512 898.576,580.277C898.431,581.043 898.285,581.833 898.138,582.649L894.847,599.941L890.673,599.941ZM893.951,593.4L895.278,587.108L903.305,587.108L904.609,593.4L893.951,593.4Z" style="fill:white;fill-rule:nonzero;"/>
                    <path d="M910.181,599.941L910.181,565.719L914.419,565.719L914.419,592.611L922.195,592.611L922.195,599.941L910.181,599.941Z" style="fill:white;fill-rule:nonzero;"/>
                    <path d="M925.363,599.941L925.363,565.719L932.897,565.719C933.988,565.719 934.964,566.207 935.828,567.183C936.691,568.159 937.375,569.492 937.878,571.183C938.382,572.873 938.634,574.789 938.634,576.932C938.634,579.131 938.382,581.103 937.878,582.85C937.375,584.597 936.691,585.979 935.828,586.997C934.964,588.015 933.988,588.524 932.897,588.524L929.601,588.524L929.601,599.941L925.363,599.941ZM929.544,581.193L932.303,581.193C932.676,581.193 933.011,581.016 933.31,580.66C933.609,580.305 933.847,579.819 934.023,579.203C934.2,578.587 934.288,577.868 934.288,577.045C934.288,576.221 934.2,575.514 934.023,574.924C933.847,574.334 933.609,573.874 933.31,573.545C933.011,573.215 932.676,573.05 932.303,573.05L929.544,573.05L929.544,581.193Z" style="fill:white;fill-rule:nonzero;"/>
                    <path d="M952.687,599.941L952.687,565.719L956.925,565.719L956.925,599.941L952.687,599.941ZM941.866,599.941L941.866,565.719L946.104,565.719L946.104,599.941L941.866,599.941ZM943.525,586.6L943.539,579.158L954.942,579.158L954.942,586.6L943.525,586.6Z" style="fill:white;fill-rule:nonzero;"/>
                    <path d="M959.08,599.941L965.979,565.719L969.58,565.719L976.429,599.941L972.145,599.941L968.844,582.566C968.717,581.889 968.586,581.158 968.449,580.371C968.313,579.585 968.177,578.78 968.042,577.957C967.907,577.134 967.779,576.321 967.658,575.518C967.537,574.716 967.438,573.969 967.359,573.277L968.09,573.257C967.99,574.073 967.881,574.872 967.764,575.654C967.646,576.435 967.523,577.21 967.394,577.977C967.265,578.745 967.128,579.512 966.983,580.277C966.838,581.043 966.692,581.833 966.545,582.649L963.254,599.941L959.08,599.941ZM962.358,593.4L963.684,587.108L971.712,587.108L973.016,593.4L962.358,593.4Z" style="fill:white;fill-rule:nonzero;"/>
                </g>
            </g>
        </g>
    </g>
</svg>
