<svg width="17" height="20" viewBox="0 0 17 20" fill="none" xmlns="http://www.w3.org/2000/svg">
<path d="M1.54545 0C0.691591 0 0 0.688462 0 1.53846V14.6154C0 15.4654 0.691591 16.1538 1.54545 16.1538H7.72727V6.47236L5.95543 8.23618C5.6533 8.53695 5.16488 8.53695 4.86275 8.23618C4.56061 7.93541 4.56061 7.44921 4.86275 7.14844L7.95366 4.07151C8.10434 3.92151 8.30218 3.84615 8.5 3.84615C8.69782 3.84615 8.89566 3.92151 9.04634 4.07151L12.1373 7.14844C12.4394 7.44921 12.4394 7.93541 12.1373 8.23618C11.8351 8.53695 11.3467 8.53695 11.0446 8.23618L9.27273 6.47236V16.1538H15.4545C16.3084 16.1538 17 15.4654 17 14.6154V1.53846C17 0.688462 16.3084 0 15.4545 0H1.54545ZM9.27273 16.1538H7.72727V19.2308C7.72727 19.6554 8.07345 20 8.5 20C8.92655 20 9.27273 19.6554 9.27273 19.2308V16.1538Z" fill="white"/>
</svg>
