<svg width="17" height="16" viewBox="0 0 17 16" fill="none" xmlns="http://www.w3.org/2000/svg">
<path d="M7.75 10.25C7.75 10.6642 8.08579 11 8.5 11C8.91421 11 9.25 10.6642 9.25 10.25L9.25 4.56066L11.4697 6.78033C11.7626 7.07322 12.2374 7.07322 12.5303 6.78033C12.8232 6.48744 12.8232 6.01256 12.5303 5.71967L9.03033 2.21967C8.73744 1.92678 8.26256 1.92678 7.96967 2.21967L4.46967 5.71967C4.17678 6.01256 4.17678 6.48744 4.46967 6.78033C4.76256 7.07322 5.23744 7.07322 5.53033 6.78033L7.75 4.56066L7.75 10.25Z" fill="#FAFAFA"/>
<path d="M4 9.75C4 9.33579 3.66421 9 3.25 9C2.83579 9 2.5 9.33579 2.5 9.75V11.25C2.5 12.7688 3.73122 14 5.25 14H11.75C13.2688 14 14.5 12.7688 14.5 11.25V9.75C14.5 9.33579 14.1642 9 13.75 9C13.3358 9 13 9.33579 13 9.75V11.25C13 11.9404 12.4404 12.5 11.75 12.5H5.25C4.55964 12.5 4 11.9404 4 11.25V9.75Z" fill="#FAFAFA"/>
</svg>
