<svg width="17" height="16" viewBox="0 0 17 16" fill="none" xmlns="http://www.w3.org/2000/svg">
<path fill-rule="evenodd" clip-rule="evenodd" d="M7.20111 2.25C7.77846 1.25 9.22184 1.25 9.79919 2.25L14.9953 11.25C15.5727 12.25 14.851 13.5 13.6963 13.5H3.30399C2.14929 13.5 1.42761 12.25 2.00496 11.25L7.20111 2.25ZM8.50015 4C8.91436 4 9.25015 4.33579 9.25015 4.75V7.75C9.25015 8.16421 8.91436 8.5 8.50015 8.5C8.08593 8.5 7.75015 8.16421 7.75015 7.75V4.75C7.75015 4.33579 8.08593 4 8.50015 4ZM8.50015 12C9.05243 12 9.50015 11.5523 9.50015 11C9.50015 10.4477 9.05243 10 8.50015 10C7.94786 10 7.50015 10.4477 7.50015 11C7.50015 11.5523 7.94786 12 8.50015 12Z" fill="#FAFAFA"/>
</svg>
