<svg width="80" height="80" viewBox="0 0 80 80" fill="none" xmlns="http://www.w3.org/2000/svg">
<g clip-path="url(#clip0_6716_34623)">
<g filter="url(#filter0_di_6716_34623)">
<path fill-rule="evenodd" clip-rule="evenodd" d="M40 7.5C22.05 7.5 7.5 22.05 7.5 40C7.5 57.95 22.05 72.5 40 72.5C57.95 72.5 72.5 57.95 72.5 40C72.5 22.05 57.95 7.5 40 7.5ZM20.8733 20.24C16.8166 24.1677 14.0673 29.249 12.9989 34.7935C11.9305 40.3381 12.5947 46.0771 14.9014 51.231C17.2081 56.3849 21.0453 60.7039 25.8919 63.6011C30.7386 66.4983 36.3595 67.8334 41.9913 67.425C47.6231 67.0165 52.9926 64.8844 57.3705 61.3182C61.7483 57.7519 64.9223 52.9245 66.4611 47.4917C68 42.0589 67.8292 36.2841 65.9719 30.9517C64.1147 25.6193 60.661 20.9879 56.08 17.6867C54.9526 19.4887 53.4551 21.0305 51.6867 22.21L47.5 25L48.05 26.1C48.3031 26.6064 48.3904 27.1796 48.2996 27.7384C48.2087 28.2972 47.9443 28.8132 47.5438 29.2133C47.1433 29.6135 46.627 29.8774 46.0682 29.9677C45.5093 30.0581 44.9362 29.9702 44.43 29.7167L42.4167 28.71C41.7132 28.3582 40.9169 28.2365 40.1404 28.3621C39.364 28.4877 38.6467 28.8543 38.09 29.41L37.65 29.8467C36.1867 31.3133 36.1867 33.6867 37.65 35.15L38.6367 36.1367C39.49 36.9933 40.71 37.3833 41.9033 37.1833L45.8033 36.5333C46.88 36.3533 47.9833 36.6533 48.82 37.35L53.2533 41.0433C54.32 41.9333 54.7867 43.3567 54.4467 44.71C53.1713 49.8069 50.5352 54.4615 46.82 58.1767L44.41 60.59C43.8533 61.1457 43.136 61.5123 42.3596 61.6379C41.5831 61.7635 40.7868 61.6418 40.0833 61.29L39.5733 61.0367C38.9505 60.7253 38.4266 60.2467 38.0604 59.6545C37.6942 59.0622 37.5002 58.3797 37.5 57.6833V54.0533C37.5 53.06 37.1033 52.1033 36.4 51.4L31.91 46.91C31.3543 46.3533 30.9877 45.636 30.8621 44.8596C30.7365 44.0831 30.8582 43.2868 31.21 42.5833L32.5 40L27.0333 34.5333C24.085 31.5852 22.1317 27.7894 21.4467 23.6767L20.8733 20.24Z" fill="white"/>
<path d="M40 8C57.6739 8 72 22.3261 72 40C72 57.6739 57.6739 72 40 72C22.3261 72 8 57.6739 8 40C8 22.3261 22.3261 8 40 8ZM55.6562 17.4219C54.6345 19.0549 53.2981 20.4666 51.7266 21.5762L51.4092 21.7939L47.2227 24.584L46.8555 24.8291L47.6025 26.3232C47.783 26.6843 47.8603 27.0873 47.8271 27.4873L47.8057 27.6582C47.7409 28.0565 47.5684 28.4284 47.3076 28.7334L47.1904 28.8594C46.9049 29.1446 46.5473 29.3455 46.1572 29.4404L45.9883 29.4746C45.5899 29.539 45.1824 29.492 44.8105 29.3408L44.6543 29.2695H44.6533L42.6406 28.2627C41.9431 27.9138 41.1647 27.7647 40.3916 27.8281L40.0605 27.8682C39.2905 27.9927 38.5717 28.3267 37.9814 28.8301L37.7363 29.0557L37.2979 29.4922L37.2959 29.4932C35.6381 31.1548 35.6381 33.8451 37.2969 35.5039L38.2832 36.4902C39.2512 37.4615 40.6341 37.9034 41.9863 37.6768L41.9854 37.6758L45.8857 37.0264C46.7602 36.8802 47.6555 37.0997 48.3613 37.625L48.5 37.7344L52.9336 41.4277C53.7954 42.1472 54.2028 43.2704 54.0088 44.3691L53.9619 44.5879V44.5889C52.7477 49.4414 50.2783 53.8861 46.8057 57.4785L46.4668 57.8232H46.4658L44.0566 60.2363C43.6345 60.6577 43.1057 60.9535 42.5293 61.0938L42.2793 61.1445C41.6906 61.2397 41.0886 61.1711 40.5391 60.9482L40.3066 60.8428L40.3057 60.8418L39.7959 60.5889H39.7949C39.2559 60.319 38.8024 59.9043 38.4854 59.3916C38.1681 58.8784 38.0002 58.2869 38 57.6836V54.0537C38 52.9978 37.6046 51.9791 36.8984 51.1992L36.7539 51.0469L32.2637 46.5566C31.7822 46.0742 31.4643 45.4522 31.3555 44.7793C31.2603 44.1906 31.3289 43.5886 31.5518 43.0391L31.6572 42.8066L32.9473 40.2236L33.1084 39.9014L27.3867 34.1797C24.6918 31.485 22.8492 28.0639 22.0791 24.3428L21.9395 23.5947L21.3662 20.1582L21.21 19.2188L20.5254 19.8809C16.5241 23.7549 13.7724 28.7313 12.6152 34.1709L12.5078 34.6992C11.4541 40.168 12.0557 45.8226 14.2295 50.9414L14.4453 51.4355C16.7205 56.519 20.4582 60.8043 25.1758 63.749L25.6357 64.0303C30.5704 66.9801 36.2933 68.3397 42.0273 67.9238C47.5824 67.521 52.887 65.4709 57.2656 62.042L57.6865 61.7061C62.1439 58.075 65.3755 53.1595 66.9424 47.6279C68.4602 42.2693 68.3441 36.5839 66.6162 31.2979L66.4443 30.7871C64.5533 25.3578 61.0363 20.6425 56.3721 17.2812L55.9395 16.9688L55.6562 17.4219Z" stroke="black" stroke-opacity="0.1"/>
</g>
</g>
<defs>
<filter id="filter0_di_6716_34623" x="3.5" y="7.2" width="73" height="73.3" filterUnits="userSpaceOnUse" color-interpolation-filters="sRGB">
<feFlood flood-opacity="0" result="BackgroundImageFix"/>
<feColorMatrix in="SourceAlpha" type="matrix" values="0 0 0 0 0 0 0 0 0 0 0 0 0 0 0 0 0 0 127 0" result="hardAlpha"/>
<feOffset dy="4"/>
<feGaussianBlur stdDeviation="2"/>
<feComposite in2="hardAlpha" operator="out"/>
<feColorMatrix type="matrix" values="0 0 0 0 0 0 0 0 0 0 0 0 0 0 0 0 0 0 0.25 0"/>
<feBlend mode="normal" in2="BackgroundImageFix" result="effect1_dropShadow_6716_34623"/>
<feBlend mode="normal" in="SourceGraphic" in2="effect1_dropShadow_6716_34623" result="shape"/>
<feColorMatrix in="SourceAlpha" type="matrix" values="0 0 0 0 0 0 0 0 0 0 0 0 0 0 0 0 0 0 127 0" result="hardAlpha"/>
<feOffset dy="-4"/>
<feGaussianBlur stdDeviation="0.15"/>
<feComposite in2="hardAlpha" operator="arithmetic" k2="-1" k3="1"/>
<feColorMatrix type="matrix" values="0 0 0 0 0 0 0 0 0 0 0 0 0 0 0 0 0 0 0.1 0"/>
<feBlend mode="normal" in2="shape" result="effect2_innerShadow_6716_34623"/>
</filter>
<clipPath id="clip0_6716_34623">
<rect width="80" height="80" fill="white"/>
</clipPath>
</defs>
</svg>
