<svg width="16" height="16" viewBox="0 0 16 16" fill="none" xmlns="http://www.w3.org/2000/svg">
<path fill-rule="evenodd" clip-rule="evenodd" d="M6.70111 2.25C7.27846 1.25 8.72184 1.25 9.29919 2.25L14.4953 11.25C15.0727 12.25 14.351 13.5 13.1963 13.5H2.80399C1.64929 13.5 0.927608 12.25 1.50496 11.25L6.70111 2.25ZM8.00015 4C8.41436 4 8.75015 4.33579 8.75015 4.75V7.75C8.75015 8.16421 8.41436 8.5 8.00015 8.5C7.58593 8.5 7.25015 8.16421 7.25015 7.75V4.75C7.25015 4.33579 7.58593 4 8.00015 4ZM8.00015 12C8.55243 12 9.00015 11.5523 9.00015 11C9.00015 10.4477 8.55243 10 8.00015 10C7.44786 10 7.00015 10.4477 7.00015 11C7.00015 11.5523 7.44786 12 8.00015 12Z" fill="#FB7185"/>
</svg>
