<svg xmlns="http://www.w3.org/2000/svg" width="215" height="38" viewBox="0 0 215 38" fill="none">
  <g clip-path="url(#clip0_17399_27954)">
    <path fill-rule="evenodd" clip-rule="evenodd" d="M45.7664 16.5731C45.3688 16.5731 44.6184 17.0463 44.6184 18.0159C44.6184 19.3609 45.3654 19.6526 45.7664 19.6526H55.3009C57.0873 19.6526 58.599 21.5668 58.599 23.5021V25.5125C58.599 27.4245 57.0873 28.937 55.3009 28.937H43.7332C43.1227 28.937 42.4013 28.2626 42.4013 27.3517C42.4013 26.4408 43.1227 25.7663 43.7332 25.7663H54.8761C55.4158 25.7663 56.2004 25.1999 56.2004 24.2103C56.2004 23.2207 55.4158 22.8234 54.8761 22.8234H45.483C43.7177 22.8234 42.2031 20.8866 42.2031 18.9739C42.2031 18.9403 42.2039 16.7462 42.205 16.7128C42.2636 14.8526 43.7524 13.4023 45.483 13.4023H56.1321C56.7426 13.4023 57.4641 14.0519 57.4641 14.9878C57.4641 15.9235 56.7426 16.5731 56.1321 16.5731H45.7664Z" fill="white"/>
    <path fill-rule="evenodd" clip-rule="evenodd" d="M127.675 16.5731C127.277 16.5731 126.527 17.0463 126.527 18.0159C126.527 19.3609 127.274 19.6526 127.675 19.6526H137.209C138.995 19.6526 140.507 21.5668 140.507 23.5021V25.5125C140.507 27.4245 138.995 28.937 137.209 28.937H125.641C125.031 28.937 124.309 28.2626 124.309 27.3517C124.309 26.4408 125.031 25.7663 125.641 25.7663H136.784C137.324 25.7663 138.109 25.1999 138.109 24.2103C138.109 23.2207 137.324 22.8234 136.784 22.8234H127.391C125.626 22.8234 124.111 20.8866 124.111 18.9739C124.111 18.9403 124.112 16.7462 124.113 16.7128C124.172 14.8526 125.661 13.4023 127.391 13.4023H138.04C138.651 13.4023 139.372 14.0519 139.372 14.9878C139.372 15.9235 138.651 16.5731 138.04 16.5731H127.675Z" fill="white"/>
    <path fill-rule="evenodd" clip-rule="evenodd" d="M64.764 13.38L71.6382 13.3797C72.3508 13.3797 73.0276 14.0518 73.0276 14.9424C73.0276 15.8825 72.3508 16.5052 71.6382 16.5052H71.6376L64.764 16.499V23.7475C64.764 24.317 64.9361 24.8478 65.2432 25.2587C65.5205 25.5822 65.8699 25.7857 66.2553 25.7857H69.7458C70.183 25.7857 70.5739 25.4842 70.8198 25.0403C70.9211 24.857 71.0998 24.7292 71.306 24.6926C71.5122 24.6558 71.7239 24.7139 71.8825 24.8509L73.039 25.8497C73.2896 26.0661 73.3528 26.4289 73.1903 26.7173C72.4034 28.1134 71.0912 28.9112 69.7458 28.9112H66.4025C65.39 28.9112 64.403 28.5626 63.5929 27.8031L63.5814 27.792C62.5735 26.8022 61.9853 25.3373 61.9853 23.7475V16.5052H61.7135C61.001 16.5052 60.3242 15.8825 60.3242 14.9424C60.3242 14.0518 61.001 13.3797 61.7135 13.3797H61.9853V9.03162C61.9853 8.14089 62.6622 7.46875 63.3746 7.46875C64.0872 7.46875 64.764 8.14089 64.764 9.03162V13.38Z" fill="white"/>
    <path fill-rule="evenodd" clip-rule="evenodd" d="M78.3411 22.7271V23.0127C78.3411 24.5102 79.2234 25.7869 80.4212 25.7869H88.4325C89.1807 25.7869 89.8429 26.4635 89.8429 27.3496C89.8429 28.2356 89.1807 28.9123 88.4325 28.9123H80.4212C77.7689 28.9123 75.5625 26.3283 75.5625 23.0127V19.2804C75.5625 15.9949 77.7689 13.3809 80.4212 13.3809H86.5821C88.3989 13.3809 90.0852 14.8786 90.4636 17.0865L90.4644 17.0908C90.9622 20.109 89.0061 22.7093 86.6678 22.7093L78.3411 22.7271ZM78.3411 19.5808L86.5821 19.5839C87.1586 19.5839 87.6472 19.0417 87.7433 18.3212L87.7436 18.3195C87.8253 17.7167 87.6514 17.1568 87.3151 16.8092C87.1383 16.6265 86.915 16.5063 86.6662 16.5063H80.4212C79.2234 16.5063 78.3411 17.7831 78.3411 19.2804V19.5808Z" fill="white"/>
    <path fill-rule="evenodd" clip-rule="evenodd" d="M95.3904 18.4919V27.3496C95.3904 28.3049 94.7537 28.9386 94.116 28.9386L93.9178 28.9202L93.732 28.8679L93.4195 28.6893C93.1026 28.4377 92.8418 27.9461 92.8418 27.3496V18.4919C92.8418 16.8479 93.4045 15.3818 94.2348 14.4668C94.8653 13.7721 95.6511 13.3809 96.4844 13.3809H101.011C101.893 13.3809 102.728 13.8268 103.378 14.6082C104.022 13.8268 104.849 13.3809 105.747 13.3809H110.273C111.107 13.3809 111.891 13.7675 112.522 14.4576C113.352 15.3672 113.916 16.8296 113.916 18.4919V27.3496C113.916 27.9461 113.655 28.4377 113.338 28.6893L113.027 28.8679L112.84 28.9202L112.642 28.9386C112.004 28.9386 111.367 28.3049 111.367 27.3496V18.4919C111.367 17.9071 111.216 17.3719 110.958 16.9856C110.776 16.7126 110.55 16.5063 110.273 16.5063H105.747C105.472 16.5063 105.245 16.7126 105.063 16.9856C104.804 17.3719 104.653 17.9071 104.653 18.4919V27.3496C104.653 27.9461 104.392 28.4377 104.076 28.6893L103.763 28.8679L103.577 28.9202L103.379 28.9386L103.18 28.9202L102.995 28.8679L102.682 28.6893C102.366 28.4377 102.105 27.9461 102.105 27.3496V18.4919C102.105 17.9071 101.953 17.3719 101.695 16.9856C101.513 16.7126 101.286 16.5063 101.011 16.5063H96.4844C96.2087 16.5063 95.9818 16.7126 95.7997 16.9856C95.5418 17.3719 95.3904 17.9071 95.3904 18.4919Z" fill="white"/>
    <path fill-rule="evenodd" clip-rule="evenodd" d="M146.664 13.3797H153.546C154.259 13.3797 154.936 14.0518 154.936 14.9424C154.936 15.8825 154.259 16.5052 153.546 16.5052H148.142C148.014 16.5052 147.255 16.5081 146.672 16.5106V23.7475C146.672 24.317 146.844 24.8478 147.151 25.2587C147.429 25.5822 147.778 25.7857 148.163 25.7857H151.654C152.091 25.7857 152.482 25.4842 152.728 25.0403C152.829 24.857 153.008 24.7292 153.214 24.6926C153.42 24.6558 153.632 24.7139 153.791 24.8509L154.947 25.8497C155.198 26.0661 155.261 26.4289 155.098 26.7173C154.312 28.1134 152.999 28.9112 151.654 28.9112H148.311C147.298 28.9112 146.311 28.5626 145.501 27.8031L145.49 27.792C144.482 26.8022 143.894 25.3373 143.894 23.7475V16.5052H143.622C142.909 16.5052 142.232 15.8825 142.232 14.9424C142.232 14.0518 142.909 13.3797 143.622 13.3797H143.894V9.03162C143.894 8.14089 144.57 7.46875 145.283 7.46875C145.995 7.46875 146.672 8.14089 146.672 9.03162V9.03337L146.664 13.3797Z" fill="white"/>
    <path fill-rule="evenodd" clip-rule="evenodd" d="M160.249 23.8013C160.249 24.8552 160.855 25.7869 161.699 25.7869H168.049C168.892 25.7869 169.498 24.8552 169.498 23.8013V14.9436C169.498 14.053 170.175 13.3809 170.887 13.3809C171.6 13.3809 172.277 14.053 172.277 14.9436V23.8013C172.277 26.6685 170.343 28.9123 168.049 28.9123H161.699C159.405 28.9123 157.471 26.6685 157.471 23.8013V14.9436C157.471 14.053 158.148 13.3809 158.86 13.3809C159.573 13.3809 160.249 14.053 160.249 14.9436V23.8013Z" fill="white"/>
    <path fill-rule="evenodd" clip-rule="evenodd" d="M186.503 28.9114H180.511C177.272 28.9114 174.559 25.6938 174.559 21.6451V20.6463C174.559 16.5976 177.272 13.38 180.511 13.38H185.599C186.312 13.38 186.988 14.0521 186.988 14.9427C186.988 15.8828 186.312 16.5054 185.599 16.5054H180.511C178.704 16.5054 177.337 18.4101 177.337 20.6463V21.6451C177.337 23.9035 178.704 25.786 180.511 25.786H186.503C187.198 25.786 187.679 25.011 187.679 24.1421V7.26781C187.679 6.37722 188.356 5.70508 189.069 5.70508C189.781 5.70508 190.458 6.37722 190.458 7.26781V24.1421C190.458 26.8264 188.651 28.9114 186.503 28.9114Z" fill="white"/>
    <path fill-rule="evenodd" clip-rule="evenodd" d="M194.363 13.3806C195.076 13.3806 195.752 14.0527 195.752 14.9433V27.3493C195.752 28.2809 195.068 28.9383 194.363 28.9383C193.656 28.9383 192.973 28.2809 192.973 27.3493V14.9433C192.973 14.0527 193.65 13.3806 194.363 13.3806ZM194.363 11.2244C193.519 11.2244 192.742 10.453 192.742 9.39872C192.742 8.30692 193.525 7.54688 194.363 7.54688C195.201 7.54688 195.984 8.30692 195.984 9.39872C195.984 10.453 195.206 11.2244 194.363 11.2244Z" fill="white"/>
    <path fill-rule="evenodd" clip-rule="evenodd" d="M198.266 18.5691C198.266 15.7311 200.199 13.4844 202.493 13.4844H210.736C213.031 13.4844 214.965 15.7311 214.965 18.5691V23.8259C214.965 26.664 213.031 28.9107 210.736 28.9107H202.493C200.199 28.9107 198.266 26.664 198.266 23.8259V18.5691ZM201.044 18.5691V23.8259C201.044 24.877 201.653 25.7852 202.493 25.7852H210.736C211.575 25.7852 212.164 24.8757 212.164 23.8259V18.5691C212.164 17.5194 211.575 16.6098 210.736 16.6098H202.493C201.653 16.6098 201.044 17.5368 201.044 18.5691Z" fill="white"/>
    <path fill-rule="evenodd" clip-rule="evenodd" d="M1.28428 29.1137C0.488664 28.6541 -0.000558634 27.8048 4.78727e-07 26.8862L0.0106231 10.669C0.0111822 9.75041 0.502083 8.90168 1.2977 8.44264L15.3471 0.343856C16.1432 -0.115177 17.1234 -0.114618 17.919 0.345534L31.9577 8.46333C32.7534 8.92292 33.2426 9.77222 33.242 10.6908L33.2314 26.908C33.2308 27.8266 32.7399 28.6753 31.9443 29.1344L17.8949 37.2332C17.0988 37.6922 16.1186 37.6916 15.323 37.232L1.28428 29.1137ZM17.3308 26.6346C17.4756 26.6883 17.6165 26.757 17.7513 26.8409L22.601 29.8674C23.3111 30.3102 24.2057 30.3298 24.9342 29.9188L29.3098 27.4503C30.0271 27.0455 30.4716 26.2857 30.4722 25.4616L30.4811 12.1155C30.4817 11.2986 30.0461 10.5438 29.3394 10.1351L17.7736 3.44751C17.0669 3.03879 16.1952 3.03823 15.488 3.44583L3.91323 10.1183C3.20595 10.5265 2.76984 11.2807 2.76928 12.097L2.7609 25.4219C2.76034 26.2572 3.21545 27.0265 3.94845 27.428L8.33413 29.8294C9.05818 30.2263 9.9399 30.2012 10.641 29.7645L15.332 26.8403C15.5333 26.7145 15.7496 26.6234 15.9722 26.5658C15.999 25.3167 16.0633 24.0677 16.1651 22.8186L14.112 22.0946C10.7724 20.9176 9.0196 17.256 10.1965 13.9169L12.3933 14.6908C15.4785 15.7782 17.2095 18.9864 16.5274 22.1018L16.7969 22.0767C17.2548 20.2064 18.879 18.7645 20.9024 18.6275L22.5479 18.5162C22.7173 21.0183 20.8258 23.1837 18.3238 23.3531L17.205 23.4286C17.2743 24.4971 17.3163 25.5661 17.3308 26.6346Z" fill="white"/>
    <path fill-rule="evenodd" clip-rule="evenodd" d="M34.3287 26.3037V29.0387C34.3287 29.7934 33.716 30.4061 32.9612 30.4061H19.0765C18.3217 30.4061 17.709 29.7934 17.709 29.0387V26.3037C17.709 25.549 18.3217 24.9363 19.0765 24.9363H32.9612C33.0989 24.9363 33.6922 24.9515 33.8004 24.9216C33.8529 24.907 33.9746 24.88 34.1769 24.6754C34.2819 24.5692 34.3131 24.4297 34.3131 24.4297C34.3131 24.4297 34.3287 26.0756 34.3287 26.3037Z" fill="#DB1329"/>
    <path fill-rule="evenodd" clip-rule="evenodd" d="M33.2422 23.9311V24.9393L33.7948 24.9286C33.7948 24.9286 34.0203 24.8428 34.1779 24.6828C34.3728 24.4851 34.3135 24.1286 34.1575 24.0033C34.0016 23.878 33.2422 23.9311 33.2422 23.9311Z" fill="#700D17"/>
    <path d="M19.5605 29.0627L20.5999 26.4336H21.1424L22.1743 29.0627H21.5289L21.0316 27.7278C21.0126 27.6758 20.9927 27.6197 20.9722 27.5592C20.9516 27.4988 20.9312 27.437 20.9107 27.3738C20.8904 27.3105 20.8711 27.2481 20.8529 27.1864C20.8347 27.1248 20.8197 27.0674 20.8078 27.0142L20.918 27.0127C20.9029 27.0754 20.8866 27.1368 20.8689 27.1968C20.8512 27.2568 20.8325 27.3164 20.8131 27.3753C20.7937 27.4343 20.773 27.4932 20.7512 27.552C20.7293 27.6108 20.7074 27.6715 20.6852 27.7342L20.1894 29.0627H19.5605ZM20.0544 28.5602L20.2543 28.0768H21.4637L21.6601 28.5602H20.0544Z" fill="white"/>
    <path d="M22.498 29.0627V26.4336H23.1365V28.4995H24.308V29.0627H22.498Z" fill="white"/>
    <path d="M24.7871 29.0627V26.4336H25.9222C26.0865 26.4336 26.2336 26.4711 26.3637 26.5461C26.4938 26.621 26.5968 26.7234 26.6726 26.8534C26.7485 26.9832 26.7865 27.1304 26.7865 27.295C26.7865 27.464 26.7485 27.6155 26.6726 27.7497C26.5968 27.8839 26.4938 27.99 26.3637 28.0683C26.2336 28.1465 26.0865 28.1856 25.9222 28.1856H25.4256V29.0627H24.7871ZM25.417 27.6224H25.8327C25.8889 27.6224 25.9393 27.6088 25.9844 27.5814C26.0294 27.5541 26.0653 27.5168 26.0918 27.4695C26.1185 27.4222 26.1317 27.3669 26.1317 27.3037C26.1317 27.2404 26.1185 27.1861 26.0918 27.1408C26.0653 27.0954 26.0294 27.0601 25.9844 27.0348C25.9393 27.0095 25.8889 26.9968 25.8327 26.9968H25.417V27.6224Z" fill="white"/>
    <path d="M28.9037 29.0627V26.4336H29.5422V29.0627H28.9037ZM27.2734 29.0627V26.4336H27.9119V29.0627H27.2734ZM27.5234 28.0378L27.5255 27.466H29.2434V28.0378H27.5234Z" fill="white"/>
    <path d="M29.8652 29.0627L30.9046 26.4336H31.4471L32.479 29.0627H31.8336L31.3362 27.7278C31.3171 27.6758 31.2974 27.6197 31.2767 27.5592C31.2562 27.4988 31.2358 27.437 31.2154 27.3738C31.1951 27.3105 31.1758 27.2481 31.1576 27.1864C31.1393 27.1248 31.1244 27.0674 31.1125 27.0142L31.2227 27.0127C31.2076 27.0754 31.1912 27.1368 31.1735 27.1968C31.1558 27.2568 31.1372 27.3164 31.1178 27.3753C31.0984 27.4343 31.0777 27.4932 31.0559 27.552C31.034 27.6108 31.012 27.6715 30.9899 27.7342L30.4941 29.0627H29.8652ZM30.3591 28.5602L30.5589 28.0768H31.7683L31.9648 28.5602H30.3591Z" fill="white"/>
  </g>
  <defs>
    <clipPath id="clip0_17399_27954">
      <rect width="215" height="37.6746" fill="white"/>
    </clipPath>
  </defs>
</svg>