<svg width="16" height="17" viewBox="0 0 16 17" fill="none" xmlns="http://www.w3.org/2000/svg">
<path fill-rule="evenodd" clip-rule="evenodd" d="M8 15.5C11.866 15.5 15 12.366 15 8.5C15 4.63401 11.866 1.5 8 1.5C4.13401 1.5 1 4.63401 1 8.5C1 12.366 4.13401 15.5 8 15.5ZM11.8435 6.70859C12.0967 6.38082 12.0363 5.90981 11.7086 5.65654C11.3808 5.40327 10.9098 5.46365 10.6565 5.79141L6.95615 10.5801L5.30747 8.74828C5.03038 8.44039 4.55616 8.41543 4.24828 8.69253C3.94039 8.96962 3.91544 9.44384 4.19253 9.75172L6.44253 12.2517C6.59132 12.417 6.80582 12.5078 7.02809 12.4995C7.25036 12.4911 7.45746 12.3846 7.59346 12.2086L11.8435 6.70859Z" fill="#34D399"/>
</svg>
