<svg width="20" height="20" viewBox="0 0 20 20" fill="none" xmlns="http://www.w3.org/2000/svg">
<path d="M2.5 3.75C2.5 3.41848 2.6317 3.10054 2.86612 2.86612C3.10054 2.6317 3.41848 2.5 3.75 2.5L16.25 2.5C16.5815 2.5 16.8995 2.6317 17.1339 2.86612C17.3683 3.10054 17.5 3.41848 17.5 3.75V5C17.5 5.33152 17.3683 5.64946 17.1339 5.88388C16.8995 6.1183 16.5815 6.25 16.25 6.25L3.75 6.25C3.41848 6.25 3.10054 6.1183 2.86612 5.88388C2.6317 5.64946 2.5 5.33152 2.5 5L2.5 3.75Z" fill="white"/>
<path fill-rule="evenodd" clip-rule="evenodd" d="M16.25 7.5L3.75 7.5L3.75 15C3.75 15.663 4.01339 16.2989 4.48223 16.7678C4.95107 17.2366 5.58696 17.5 6.25 17.5H13.75C14.413 17.5 15.0489 17.2366 15.5178 16.7678C15.9866 16.2989 16.25 15.663 16.25 15V7.5ZM10.9375 9.6875C10.9375 9.43886 10.8387 9.2004 10.6629 9.02459C10.4871 8.84877 10.2486 8.75 10 8.75C9.75136 8.75 9.5129 8.84877 9.33709 9.02459C9.16127 9.2004 9.0625 9.43886 9.0625 9.6875V13.05L7.5375 11.525C7.35978 11.3594 7.12472 11.2692 6.88185 11.2735C6.63897 11.2778 6.40724 11.3762 6.23547 11.548C6.06371 11.7197 5.96532 11.9515 5.96103 12.1943C5.95675 12.4372 6.0469 12.6723 6.2125 12.85L9.3375 15.975C9.51328 16.1506 9.75156 16.2492 10 16.2492C10.2484 16.2492 10.4867 16.1506 10.6625 15.975L13.7875 12.85C13.8796 12.7642 13.9535 12.6607 14.0047 12.5457C14.056 12.4307 14.0835 12.3065 14.0857 12.1807C14.088 12.0548 14.0648 11.9297 14.0177 11.813C13.9705 11.6963 13.9003 11.5902 13.8113 11.5012C13.7223 11.4122 13.6162 11.342 13.4995 11.2948C13.3828 11.2477 13.2577 11.2245 13.1318 11.2268C13.006 11.229 12.8818 11.2565 12.7668 11.3078C12.6518 11.359 12.5483 11.4329 12.4625 11.525L10.9375 13.05V9.6875Z" fill="white"/>
</svg>
