<svg xmlns="http://www.w3.org/2000/svg" width="32" height="32" viewBox="0 0 32 32" fill="none">
  <path d="M21.9852 10.6763C22.8869 9.77456 24.3489 9.77456 25.2507 10.6763C26.1524 11.5781 26.1524 13.0401 25.2507 13.9418L17.7867 21.4058C16.885 22.3076 15.4229 22.3076 14.5212 21.4058C13.6194 20.5041 13.6194 19.042 14.5212 18.1403L21.9852 10.6763Z" fill="#F8FAFC" fill-opacity="0.8"/>
  <path d="M10.1918 10.6763C9.2901 9.77456 7.82807 9.77456 6.92631 10.6763C6.02456 11.5781 6.02456 13.0401 6.92631 13.9418L14.3903 21.4058C15.292 22.3076 16.7541 22.3076 17.6558 21.4058C18.5576 20.5041 18.5576 19.042 17.6558 18.1403L10.1918 10.6763Z" fill="#F8FAFC" fill-opacity="0.8"/>
</svg>