<svg width="24" height="24" viewBox="0 0 24 24" fill="none" xmlns="http://www.w3.org/2000/svg">
<path d="M20.232 3.7695C19.9883 3.52572 19.6989 3.33234 19.3804 3.20041C19.0619 3.06847 18.7205 3.00056 18.3758 3.00056C18.031 3.00056 17.6897 3.06847 17.3712 3.20041C17.0527 3.33234 16.7633 3.52572 16.5195 3.7695L10.125 10.161C9.74206 10.544 9.43828 10.9986 9.23101 11.499L7.95901 14.5695C7.87381 14.7751 7.85149 15.0013 7.89489 15.2196C7.93828 15.4379 8.04544 15.6384 8.2028 15.7957C8.36016 15.9531 8.56065 16.0602 8.77892 16.1036C8.99719 16.147 9.22342 16.1247 9.42901 16.0395L12.4995 14.7675C12.9999 14.5602 13.4545 14.2565 13.8375 13.8735L20.229 7.4805C20.7209 6.98827 20.9972 6.32088 20.9972 5.625C20.9972 4.92913 20.7209 4.26173 20.229 3.7695H20.232Z" fill="white"/>
<path d="M7.125 5.25C6.09 5.25 5.25 6.09 5.25 7.125V16.875C5.25 17.91 6.09 18.75 7.125 18.75H16.875C17.91 18.75 18.75 17.91 18.75 16.875V13.5C18.75 13.2016 18.8685 12.9155 19.0795 12.7045C19.2905 12.4935 19.5766 12.375 19.875 12.375C20.1734 12.375 20.4595 12.4935 20.6705 12.7045C20.8815 12.9155 21 13.2016 21 13.5V16.875C21 17.969 20.5654 19.0182 19.7918 19.7918C19.0182 20.5654 17.969 21 16.875 21H7.125C6.03098 21 4.98177 20.5654 4.20818 19.7918C3.4346 19.0182 3 17.969 3 16.875V7.125C3 6.03098 3.4346 4.98177 4.20818 4.20818C4.98177 3.4346 6.03098 3 7.125 3H10.5C10.7984 3 11.0845 3.11853 11.2955 3.3295C11.5065 3.54048 11.625 3.82663 11.625 4.125C11.625 4.42337 11.5065 4.70952 11.2955 4.9205C11.0845 5.13147 10.7984 5.25 10.5 5.25H7.125Z" fill="white"/>
</svg>
