<svg width="20" height="20" viewBox="0 0 20 20" fill="none" xmlns="http://www.w3.org/2000/svg">
<path d="M16.555 5.412C15.6784 4.16117 14.4632 3.18635 13.052 2.602C13.843 3.99365 14.4045 5.50368 14.715 7.074C15.4059 6.61238 16.0257 6.05249 16.555 5.412ZM13.326 7.825C12.9874 5.73752 12.1607 3.75951 10.913 2.052C10.3063 1.98306 9.69373 1.98306 9.08702 2.052C7.83938 3.75951 7.01261 5.73752 6.67402 7.825C7.72582 8.27201 8.85718 8.50161 10 8.5C11.18 8.5 12.304 8.26 13.326 7.825ZM6.51402 9.376C7.62953 9.79016 8.81011 10.0015 10 10C11.226 10 12.4 9.78 13.486 9.376C13.5451 10.6392 13.427 11.9045 13.135 13.135C12.1078 13.3785 11.0557 13.501 10 13.5C8.92102 13.5 7.87202 13.373 6.86602 13.134C6.57378 11.9039 6.4553 10.639 6.51402 9.376ZM5.28502 7.074C5.59564 5.50403 6.15717 3.99435 6.94802 2.603C5.53681 3.18735 4.32159 4.16217 3.44502 5.413C3.97402 6.051 4.59402 6.613 5.28502 7.074ZM17.334 6.798C17.8993 8.09115 18.1112 9.51117 17.948 10.913C16.9707 11.6265 15.9018 12.205 14.77 12.633C15 11.3333 15.0585 10.009 14.944 8.694C15.8326 8.1874 16.6386 7.54802 17.334 6.798ZM2.66602 6.798C3.36148 7.54803 4.16744 8.18741 5.05602 8.694C4.94262 10.0093 5.00112 11.3338 5.23002 12.634C4.09825 12.206 3.0293 11.6274 2.05202 10.914C1.8892 9.51208 2.10142 8.09206 2.66702 6.799L2.66602 6.798ZM10 15C10.898 15 11.778 14.921 12.633 14.77C12.205 15.9018 11.6265 16.9707 10.913 17.948C10.3063 18.0168 9.69374 18.0168 9.08702 17.948C8.37355 16.9707 7.79501 15.9018 7.36702 14.77C8.22202 14.921 9.10202 15 10 15ZM14.357 14.357C14.0361 15.4156 13.5984 16.4352 13.052 17.397C14.0261 16.9936 14.9112 16.4023 15.6567 15.6567C16.4023 14.9112 16.9936 14.0261 17.397 13.052C16.444 13.594 15.426 14.033 14.357 14.357ZM6.94802 17.397C5.97391 16.9936 5.08882 16.4023 4.34329 15.6567C3.59777 14.9112 3.00642 14.0261 2.60302 13.052C3.55602 13.594 4.57402 14.033 5.64302 14.357C5.96392 15.4156 6.40161 16.4352 6.94802 17.397Z" fill="white"/>
</svg>
