<svg width="20" height="20" viewBox="0 0 20 20" fill="none" xmlns="http://www.w3.org/2000/svg">
<path d="M13.6953 2.5C16.0649 2.5 18 4.44373 18 6.83887C17.9999 8.83655 17.1356 10.4343 15.9092 11.7773C14.6736 13.1303 13.0985 14.1944 11.7188 15.125C11.0623 15.5667 10.4636 15.9726 10 16.3516C9.53636 15.9726 8.93674 15.5667 8.28027 15.125C6.90064 14.1945 5.32621 13.1301 4.09082 11.7773C2.8644 10.4343 2.00007 8.83655 2 6.83887C2 4.44373 3.93514 2.5 6.30469 2.5C7.59281 2.5001 8.80029 3.07722 9.61426 4.06641L10 4.53613L10.3857 4.06641C11.1997 3.07722 12.4072 2.5001 13.6953 2.5Z" stroke="#B2B2B9"/>
</svg>
