<svg width="20" height="20" viewBox="0 0 20 20" fill="none" xmlns="http://www.w3.org/2000/svg">
<path d="M20 6.66998e-07C20 6.66998e-07 12.5112 -0.0179189 6.67264 5.82064C6.40307 6.09021 6.16836 6.38366 5.95585 6.6873C4.92069 6.60453 3.33612 6.63157 2.52505 7.44319C0.631685 9.33655 0 12.4933 0 12.4933L4.1704 11.897V13.3274L6.67264 15.8296H8.10296L7.50672 20C7.50672 20 10.6635 19.3683 12.5568 17.475C13.3684 16.6639 13.3955 15.0793 13.3127 14.0441C13.6163 13.8316 13.9098 13.5969 14.1794 13.3274C20.0179 7.4888 20 6.66998e-07 20 6.66998e-07ZM13.3453 4.98656C14.2669 4.98656 15.0134 5.73306 15.0134 6.65472C15.0134 7.57638 14.2669 8.32288 13.3453 8.32288C12.4236 8.32288 11.6771 7.57638 11.6771 6.65472C11.6771 5.73306 12.4236 4.98656 13.3453 4.98656ZM3.50248 14.1582C3.18553 14.2416 2.88517 14.4008 2.63745 14.6485C1.4981 15.7879 1.67956 18.3188 1.67956 18.3188C1.67956 18.3188 4.19385 18.5153 5.34821 17.3609C5.59593 17.1132 5.75515 16.8112 5.83856 16.4943L5.45736 16.1131C5.41983 16.1664 5.39659 16.2284 5.34821 16.276C4.53498 17.0892 3.31514 16.6832 3.31514 16.6832C3.31514 16.6832 2.90835 15.4634 3.72241 14.6502C3.77078 14.6018 3.8303 14.5794 3.88368 14.541L3.50248 14.1582Z" fill="#E9E9E9"/>
</svg>
