<svg width="20" height="20" viewBox="0 0 20 20" fill="none" xmlns="http://www.w3.org/2000/svg">
<path fill-rule="evenodd" clip-rule="evenodd" d="M17.2926 3.09629C17.8103 3.09629 18.2301 3.51602 18.2301 4.03379V8.01126C18.2301 8.52903 17.8103 8.94876 17.2926 8.94876H13.3151C12.7973 8.94876 12.3776 8.52903 12.3776 8.01126C12.3776 7.49349 12.7973 7.07376 13.3151 7.07376H15.0292L13.978 6.02252C11.7813 3.82583 8.21976 3.82583 6.02306 6.02252C5.66584 6.37974 5.36753 6.7719 5.12729 7.18744C4.86815 7.63569 4.29469 7.78899 3.84645 7.52985C3.3982 7.27071 3.2449 6.69725 3.50404 6.249C3.82537 5.69318 4.22338 5.17055 4.69723 4.6967C7.62617 1.76777 12.3749 1.76777 15.3038 4.6967L16.3551 5.74794V4.03379C16.3551 3.51602 16.7748 3.09629 17.2926 3.09629ZM16.1544 12.4708C16.6026 12.73 16.7558 13.3034 16.4966 13.7517C16.1754 14.3072 15.7775 14.8296 15.3038 15.3033C12.3749 18.2322 7.62617 18.2322 4.69723 15.3033L3.646 14.2521V15.9662C3.646 16.484 3.22626 16.9037 2.7085 16.9037C2.19073 16.9037 1.771 16.484 1.771 15.9662L1.771 11.9887C1.771 11.471 2.19073 11.0512 2.7085 11.0512H6.68597C7.20374 11.0512 7.62347 11.471 7.62347 11.9887C7.62347 12.5065 7.20374 12.9262 6.68597 12.9262H4.97182L6.02306 13.9775C8.21976 16.1742 11.7813 16.1742 13.978 13.9775C14.3351 13.6204 14.6333 13.2284 14.8735 12.813C15.1327 12.3648 15.7062 12.2116 16.1544 12.4708Z" fill="white"/>
</svg>
