<svg xmlns="http://www.w3.org/2000/svg" width="10" height="10" viewBox="0 0 10 10" fill="none">
  <path fill-rule="evenodd" clip-rule="evenodd" d="M4.875 0C2.1825 0 0 2.1825 0 4.875C0 7.5675 2.1825 9.75 4.875 9.75C7.5675 9.75 9.75 7.5675 9.75 4.875C9.75 2.1825 7.5675 0 4.875 0ZM5.25 1.875C5.25 1.77554 5.21049 1.68016 5.14016 1.60983C5.06984 1.53951 4.97446 1.5 4.875 1.5C4.77554 1.5 4.68016 1.53951 4.60984 1.60983C4.53951 1.68016 4.5 1.77554 4.5 1.875V4.875C4.5 5.082 4.668 5.25 4.875 5.25H7.125C7.22446 5.25 7.31984 5.21049 7.39017 5.14016C7.46049 5.06984 7.5 4.97446 7.5 4.875C7.5 4.77554 7.46049 4.68016 7.39017 4.60984C7.31984 4.53951 7.22446 4.5 7.125 4.5H5.25V1.875Z" fill="#F8FAFC" fill-opacity="0.8"/>
</svg>