<svg width="26" height="26" viewBox="0 0 26 26" fill="none" xmlns="http://www.w3.org/2000/svg">
<path d="M23.381 2.61865C23.381 2.61865 15.5996 2.60003 9.53294 8.6667C9.25284 8.9468 9.00896 9.25172 8.78815 9.56722C7.71255 9.48122 6.06607 9.50931 5.22331 10.3526C3.25597 12.32 2.59961 15.6 2.59961 15.6L6.93294 14.9805V16.4667L9.53294 19.0667H11.0191L10.3996 23.4C10.3996 23.4 13.6797 22.7437 15.647 20.7763C16.4903 19.9336 16.5184 18.2871 16.4324 17.2115C16.7479 16.9907 17.0528 16.7468 17.3329 16.4667C23.3996 10.4 23.381 2.61865 23.381 2.61865ZM16.4663 7.80003C17.4239 7.80003 18.1996 8.5757 18.1996 9.53337C18.1996 10.491 17.4239 11.2667 16.4663 11.2667C15.5086 11.2667 14.7329 10.491 14.7329 9.53337C14.7329 8.5757 15.5086 7.80003 16.4663 7.80003ZM6.23893 17.33C5.9096 17.4166 5.5975 17.5821 5.3401 17.8395C4.15624 19.0233 4.34479 21.6532 4.34479 21.6532C4.34479 21.6532 6.9573 21.8573 8.15677 20.6578C8.41417 20.4004 8.57961 20.0867 8.66628 19.7573L8.27018 19.3612C8.23118 19.4167 8.20704 19.4811 8.15677 19.5305C7.31177 20.3755 6.04427 19.9537 6.04427 19.9537C6.04427 19.9537 5.62158 18.6862 6.46745 17.8412C6.51771 17.7909 6.57956 17.7676 6.63503 17.7278L6.23893 17.33Z" fill="#E9E9E9"/>
<path d="M5.21094 3.25L23.5619 21.601" stroke="#414979" stroke-width="4" stroke-linecap="round"/>
<path d="M5.21191 3.25L23.5629 21.601" stroke="#E9E9E9" stroke-linecap="round"/>
</svg>
