<svg width="20" height="20" viewBox="0 0 20 20" fill="none" xmlns="http://www.w3.org/2000/svg">
<rect width="20" height="20" rx="6.92627" fill="#353535" fill-opacity="0.8"/>
<path d="M6.60041 5.27459C6.2343 4.90847 5.6407 4.90847 5.27459 5.27459C4.90847 5.6407 4.90847 6.2343 5.27459 6.60041L8.67417 10L5.27459 13.3996C4.90847 13.7657 4.90847 14.3593 5.27459 14.7254C5.6407 15.0915 6.2343 15.0915 6.60041 14.7254L10 11.3258L13.3996 14.7254C13.7657 15.0915 14.3593 15.0915 14.7254 14.7254C15.0915 14.3593 15.0915 13.7657 14.7254 13.3996L11.3258 10L14.7254 6.60041C15.0915 6.2343 15.0915 5.6407 14.7254 5.27459C14.3593 4.90847 13.7657 4.90847 13.3996 5.27459L10 8.67417L6.60041 5.27459Z" fill="#F8FAFC" fill-opacity="0.8"/>
</svg>
