<svg width="22" height="21" viewBox="0 0 22 21" fill="none" xmlns="http://www.w3.org/2000/svg">
<path d="M20.7482 0L21.7852 1.00956L1.25182 21L0.214843 19.9904L4.63346 15.6886C1.62987 13.7087 0.147279 10.9402 0.127473 10.903C0.0442764 10.7842 -0.000153196 10.6438 -4.76837e-07 10.5C0.000110738 10.339 0.0561386 10.1827 0.158984 10.0566C0.235391 9.93683 4.45992 3.36056 11 3.36056C12.8554 3.36056 14.5205 3.89615 15.9615 4.66016L20.7482 0ZM11 5.50239C8.16493 5.50239 5.86667 7.73989 5.86667 10.5C5.86667 11.6223 6.2553 12.651 6.89792 13.4841L8.47773 11.946C8.21848 11.5224 8.06667 11.0295 8.06667 10.5C8.06667 8.9229 9.38007 7.64422 11 7.64422C11.5439 7.64422 12.0502 7.79202 12.4853 8.04442L14.0651 6.50637C13.2094 5.88075 12.1528 5.50239 11 5.50239ZM18.3691 6.27072C20.5486 8.05554 21.7983 9.99098 21.8396 10.0552C21.9432 10.1815 21.9998 10.3383 22 10.5C21.9999 10.6399 21.9575 10.7766 21.8783 10.8932C21.8656 10.9186 18.3195 17.6394 11 17.6394C9.64333 17.6394 8.41828 17.4063 7.31901 17.0301L9.2168 15.1811C9.7734 15.3824 10.3723 15.4976 11 15.4976C13.8351 15.4976 16.1333 13.2601 16.1333 10.5C16.1333 9.88886 16.015 9.30583 15.8082 8.76394L18.3691 6.27072ZM13.9247 10.5795C13.8807 12.0909 12.6355 13.3046 11.0831 13.3474L13.9247 10.5795Z" fill="white"/>
</svg>
