<svg width="1200" height="480" viewBox="0 0 1200 480" fill="none" xmlns="http://www.w3.org/2000/svg">
  <defs>
    <linearGradient id="playGlow" x1="740" y1="50" x2="1120" y2="410" gradientUnits="userSpaceOnUse">
      <stop stop-color="#38BDF8" stop-opacity="0.75"/>
      <stop offset="1" stop-color="#8B5CF6" stop-opacity="0.35"/>
    </linearGradient>
    <linearGradient id="playPlatform" x1="760" y1="338" x2="1104" y2="338" gradientUnits="userSpaceOnUse">
      <stop stop-color="#1D4ED8" stop-opacity="0.3"/>
      <stop offset="1" stop-color="#38BDF8" stop-opacity="0.7"/>
    </linearGradient>
    <filter id="blur40" x="657" y="-22" width="525" height="525" filterUnits="userSpaceOnUse" color-interpolation-filters="sRGB">
      <feGaussianBlur stdDeviation="28"/>
    </filter>
  </defs>
  <g opacity="0.55">
    <path d="M700 90H1140" stroke="#334155" stroke-width="2" stroke-dasharray="5 9"/>
    <path d="M730 138H1118" stroke="#1E293B" stroke-width="2" stroke-dasharray="4 8"/>
    <path d="M720 388H1128" stroke="#334155" stroke-width="2" stroke-dasharray="5 9"/>
  </g>
  <g filter="url(#blur40)" opacity="0.7">
    <circle cx="920" cy="240" r="178" fill="url(#playGlow)"/>
  </g>
  <circle cx="1036" cy="98" r="5" fill="#E0F2FE"/>
  <circle cx="1090" cy="150" r="3" fill="#BAE6FD"/>
  <circle cx="964" cy="68" r="3" fill="#F5D0FE"/>
  <circle cx="1144" cy="112" r="4" fill="#E9D5FF"/>
  <circle cx="1008" cy="166" r="2" fill="#E0F2FE"/>
  <path d="M828 120L838 138L858 142L844 156L846 176L828 167L810 176L812 156L798 142L818 138L828 120Z" fill="#E0F2FE" fill-opacity="0.9"/>
  <path d="M918 98C947.823 98 972 122.177 972 152V160C972 189.823 947.823 214 918 214H910L874 242L884 208H878C848.177 208 824 183.823 824 154V152C824 122.177 848.177 98 878 98H918Z" fill="#0F172A" fill-opacity="0.82" stroke="#38BDF8" stroke-width="3"/>
  <circle cx="876" cy="153" r="15" fill="#1E293B" stroke="#38BDF8" stroke-width="3"/>
  <path d="M904 154H936" stroke="#38BDF8" stroke-width="8" stroke-linecap="round"/>
  <path d="M920 138V170" stroke="#38BDF8" stroke-width="8" stroke-linecap="round"/>
  <rect x="774" y="314" width="330" height="48" rx="24" fill="url(#playPlatform)" stroke="#38BDF8" stroke-opacity="0.35"/>
  <path d="M812 332H1018" stroke="#7DD3FC" stroke-opacity="0.45" stroke-width="4" stroke-linecap="round"/>
  <circle cx="832" cy="332" r="9" fill="#E0F2FE"/>
  <circle cx="998" cy="332" r="9" fill="#E0F2FE"/>
  <path d="M852 298C852 262.654 880.654 234 916 234H962C997.346 234 1026 262.654 1026 298V312H852V298Z" fill="#0F172A" fill-opacity="0.9" stroke="#67E8F9" stroke-width="3"/>
  <rect x="888" y="270" width="38" height="24" rx="12" fill="#111827" stroke="#38BDF8" stroke-width="3"/>
  <rect x="952" y="270" width="38" height="24" rx="12" fill="#111827" stroke="#38BDF8" stroke-width="3"/>
  <path d="M880 284H898" stroke="#E0F2FE" stroke-width="6" stroke-linecap="round"/>
  <path d="M889 275V293" stroke="#E0F2FE" stroke-width="6" stroke-linecap="round"/>
  <circle cx="973" cy="282" r="5" fill="#F9A8D4"/>
  <circle cx="989" cy="282" r="5" fill="#93C5FD"/>
  <path d="M1076 236L1096 248L1116 236" stroke="#F0ABFC" stroke-width="6" stroke-linecap="round" stroke-linejoin="round"/>
  <path d="M1096 248V274" stroke="#F0ABFC" stroke-width="6" stroke-linecap="round"/>
  <circle cx="1096" cy="288" r="10" fill="#F0ABFC" fill-opacity="0.25" stroke="#F0ABFC" stroke-width="3"/>
</svg>
