<svg width="1200" height="480" viewBox="0 0 1200 480" fill="none" xmlns="http://www.w3.org/2000/svg">
  <defs>
    <linearGradient id="remixGlow" x1="744" y1="50" x2="1122" y2="422" gradientUnits="userSpaceOnUse">
      <stop stop-color="#A78BFA" stop-opacity="0.6"/>
      <stop offset="1" stop-color="#22D3EE" stop-opacity="0.22"/>
    </linearGradient>
    <linearGradient id="cardA" x1="832" y1="122" x2="1064" y2="290" gradientUnits="userSpaceOnUse">
      <stop stop-color="#312E81"/>
      <stop offset="1" stop-color="#1D4ED8"/>
    </linearGradient>
    <linearGradient id="cardB" x1="780" y1="166" x2="1012" y2="334" gradientUnits="userSpaceOnUse">
      <stop stop-color="#5B21B6"/>
      <stop offset="1" stop-color="#0F766E"/>
    </linearGradient>
    <filter id="remixBlur" x="661" y="-33" width="515" height="515" filterUnits="userSpaceOnUse" color-interpolation-filters="sRGB">
      <feGaussianBlur stdDeviation="30"/>
    </filter>
  </defs>
  <g filter="url(#remixBlur)" opacity="0.85">
    <circle cx="919" cy="224" r="167" fill="url(#remixGlow)"/>
  </g>
  <rect x="804" y="118" width="246" height="156" rx="28" fill="url(#cardA)" fill-opacity="0.92" stroke="#C4B5FD" stroke-width="3" transform="rotate(-7 804 118)"/>
  <rect x="780" y="160" width="246" height="156" rx="28" fill="url(#cardB)" fill-opacity="0.86" stroke="#67E8F9" stroke-width="3" transform="rotate(6 780 160)"/>
  <circle cx="918" cy="178" r="34" fill="#111827" fill-opacity="0.8" stroke="#E9D5FF" stroke-width="3"/>
  <path d="M898 178H938" stroke="#E9D5FF" stroke-width="7" stroke-linecap="round"/>
  <path d="M918 158V198" stroke="#E9D5FF" stroke-width="7" stroke-linecap="round"/>
  <path d="M850 244C865 221 887 210 916 210C947 210 972 224 990 252" stroke="#A5B4FC" stroke-width="8" stroke-linecap="round"/>
  <path d="M1014 196C1039 221 1046 252 1036 289" stroke="#67E8F9" stroke-width="6" stroke-linecap="round"/>
  <path d="M1036 289L1017 275" stroke="#67E8F9" stroke-width="6" stroke-linecap="round"/>
  <path d="M1036 289L1012 294" stroke="#67E8F9" stroke-width="6" stroke-linecap="round"/>
  <path d="M812 290C790 263 783 236 792 208" stroke="#C4B5FD" stroke-width="6" stroke-linecap="round"/>
  <path d="M792 208L809 221" stroke="#C4B5FD" stroke-width="6" stroke-linecap="round"/>
  <path d="M792 208L814 203" stroke="#C4B5FD" stroke-width="6" stroke-linecap="round"/>
  <path d="M770 116L786 128L802 116" stroke="#E9D5FF" stroke-width="5" stroke-linecap="round" stroke-linejoin="round"/>
  <path d="M1084 322L1100 334L1116 322" stroke="#67E8F9" stroke-width="5" stroke-linecap="round" stroke-linejoin="round"/>
  <circle cx="1092" cy="108" r="6" fill="#E9D5FF"/>
  <circle cx="1120" cy="84" r="3" fill="#67E8F9"/>
  <circle cx="1058" cy="86" r="4" fill="#C4B5FD"/>
  <path d="M864 350H1062" stroke="#312E81" stroke-width="3" stroke-dasharray="6 10" opacity="0.6"/>
</svg>
