<svg width="24" height="24" viewBox="0 0 24 24" fill="none" xmlns="http://www.w3.org/2000/svg">
<path d="M9.28033 8.21967C8.98744 7.92678 8.51256 7.92678 8.21967 8.21967C7.92678 8.51256 7.92678 8.98744 8.21967 9.28033L10.9393 12L8.21967 14.7197C7.92678 15.0126 7.92678 15.4874 8.21967 15.7803C8.51256 16.0732 8.98744 16.0732 9.28033 15.7803L12 13.0607L14.7197 15.7803C15.0126 16.0732 15.4874 16.0732 15.7803 15.7803C16.0732 15.4874 16.0732 15.0126 15.7803 14.7197L13.0607 12L15.7803 9.28033C16.0732 8.98744 16.0732 8.51256 15.7803 8.21967C15.4874 7.92678 15.0126 7.92678 14.7197 8.21967L12 10.9393L9.28033 8.21967Z" fill="#FAFAFA"/>
</svg>
