<svg width="16" height="16" viewBox="0 0 16 16" fill="none" xmlns="http://www.w3.org/2000/svg">
<path fill-rule="evenodd" clip-rule="evenodd" d="M2 2.75C2 2.55109 2.07902 2.36032 2.21967 2.21967C2.36032 2.07902 2.55109 2 2.75 2H13.25C13.4489 2 13.6397 2.07902 13.7803 2.21967C13.921 2.36032 14 2.55109 14 2.75C14 2.94891 13.921 3.13968 13.7803 3.28033C13.6397 3.42098 13.4489 3.5 13.25 3.5H2.75C2.55109 3.5 2.36032 3.42098 2.21967 3.28033C2.07902 3.13968 2 2.94891 2 2.75ZM2 13.25C2 13.0511 2.07902 12.8603 2.21967 12.7197C2.36032 12.579 2.55109 12.5 2.75 12.5H13.25C13.4489 12.5 13.6397 12.579 13.7803 12.7197C13.921 12.8603 14 13.0511 14 13.25C14 13.4489 13.921 13.6397 13.7803 13.7803C13.6397 13.921 13.4489 14 13.25 14H2.75C2.55109 14 2.36032 13.921 2.21967 13.7803C2.07902 13.6397 2 13.4489 2 13.25ZM2 6.25C2 6.05109 2.07902 5.86032 2.21967 5.71967C2.36032 5.57902 2.55109 5.5 2.75 5.5H13.25C13.4489 5.5 13.6397 5.57902 13.7803 5.71967C13.921 5.86032 14 6.05109 14 6.25C14 6.44891 13.921 6.63968 13.7803 6.78033C13.6397 6.92098 13.4489 7 13.25 7H2.75C2.55109 7 2.36032 6.92098 2.21967 6.78033C2.07902 6.63968 2 6.44891 2 6.25ZM2 9.75C2 9.55109 2.07902 9.36032 2.21967 9.21967C2.36032 9.07902 2.55109 9 2.75 9H13.25C13.4489 9 13.6397 9.07902 13.7803 9.21967C13.921 9.36032 14 9.55109 14 9.75C14 9.94891 13.921 10.1397 13.7803 10.2803C13.6397 10.421 13.4489 10.5 13.25 10.5H2.75C2.55109 10.5 2.36032 10.421 2.21967 10.2803C2.07902 10.1397 2 9.94891 2 9.75Z" fill="#71717A"/>
</svg>
