<svg width="24" height="25" viewBox="0 0 24 25" fill="none" xmlns="http://www.w3.org/2000/svg">
<path fill-rule="evenodd" clip-rule="evenodd" d="M9 7.75V8.5H6.75C6.33579 8.5 6 8.83579 6 9.25C6 9.66421 6.33579 10 6.75 10H7.05L7.86493 18.1493C7.94161 18.9161 8.58685 19.5 9.35748 19.5H14.6425C15.4131 19.5 16.0584 18.9161 16.1351 18.1493L16.95 10H17.25C17.6642 10 18 9.66421 18 9.25C18 8.83579 17.6642 8.5 17.25 8.5H15V7.75C15 6.50736 13.9926 5.5 12.75 5.5H11.25C10.0074 5.5 9 6.50736 9 7.75ZM11.25 7C10.8358 7 10.5 7.33579 10.5 7.75V8.5H13.5V7.75C13.5 7.33579 13.1642 7 12.75 7H11.25ZM10.0504 10.5009C10.4641 10.4803 10.8163 10.7989 10.837 11.2125L11.112 16.7125C11.1326 17.1262 10.814 17.4784 10.4003 17.4991C9.98665 17.5197 9.63451 17.2011 9.61383 16.7875L9.33883 11.2875C9.31814 10.8738 9.63674 10.5216 10.0504 10.5009ZM13.9503 10.5009C14.364 10.5216 14.6826 10.8738 14.662 11.2875L14.387 16.7875C14.3663 17.2011 14.0141 17.5197 13.6004 17.4991C13.1867 17.4784 12.8681 17.1262 12.8888 16.7125L13.1638 11.2125C13.1845 10.7989 13.5366 10.4803 13.9503 10.5009Z" fill="#FAFAFA"/>
</svg>
