<svg width="16" height="17" viewBox="0 0 16 17" fill="none" xmlns="http://www.w3.org/2000/svg">
<path d="M11.5556 12.1198C11.9259 12.1198 12.2406 12.0021 12.4996 11.7667C12.7591 11.5319 12.8889 11.2466 12.8889 10.9107C12.8889 10.5748 12.7591 10.2895 12.4996 10.0547C12.2406 9.81931 11.9259 9.70163 11.5556 9.70163C11.1852 9.70163 10.8705 9.81931 10.6116 10.0547C10.352 10.2895 10.2222 10.5748 10.2222 10.9107C10.2222 11.2466 10.352 11.5319 10.6116 11.7667C10.8705 12.0021 11.1852 12.1198 11.5556 12.1198ZM11.5556 14.5379C12.0148 14.5379 12.437 14.4404 12.8222 14.2453C13.2074 14.0508 13.5185 13.7923 13.7556 13.4699C13.4296 13.2952 13.0815 13.1609 12.7111 13.0669C12.3407 12.9728 11.9556 12.9258 11.5556 12.9258C11.1556 12.9258 10.7704 12.9728 10.4 13.0669C10.0296 13.1609 9.68148 13.2952 9.35556 13.4699C9.59259 13.7923 9.9037 14.0508 10.2889 14.2453C10.6741 14.4404 11.0963 14.5379 11.5556 14.5379ZM11.5556 16.15C10.3259 16.15 9.27793 15.7572 8.41156 14.9716C7.54459 14.1854 7.11111 13.2348 7.11111 12.1198C7.11111 11.0047 7.54459 10.0541 8.41156 9.26798C9.27793 8.48235 10.3259 8.08954 11.5556 8.08954C12.7852 8.08954 13.8335 8.48235 14.7004 9.26798C15.5668 10.0541 16 11.0047 16 12.1198C16 13.2348 15.5668 14.1854 14.7004 14.9716C13.8335 15.7572 12.7852 16.15 11.5556 16.15ZM7.11111 16.0895H6.89956C6.83319 16.0895 6.76296 16.0761 6.68889 16.0492C4.74815 15.5119 3.14815 14.4237 1.88889 12.7848C0.62963 11.1458 0 9.33891 0 7.3641V3.55554C0 3.21968 0.107555 2.91742 0.322667 2.64873C0.537185 2.38005 0.814815 2.18526 1.15556 2.06435L6.48889 0.25075C6.6963 0.183579 6.9037 0.149994 7.11111 0.149994C7.31852 0.149994 7.52593 0.183579 7.73333 0.25075L13.0667 2.06435C13.4074 2.18526 13.6853 2.38005 13.9004 2.64873C14.115 2.91742 14.2222 3.21968 14.2222 3.55554V7.02153C13.7926 6.84689 13.3594 6.71255 12.9227 6.61851C12.4853 6.52447 12.0296 6.47745 11.5556 6.47745C9.83704 6.47745 8.37037 7.02825 7.15556 8.12984C5.94074 9.23144 5.33333 10.5614 5.33333 12.1198C5.33333 12.8855 5.48148 13.601 5.77778 14.2663C6.07407 14.931 6.52593 15.5387 7.13333 16.0895H7.11111Z" fill="#FAFAFA"/>
</svg>
