<svg width="16" height="16" viewBox="0 0 16 16" fill="none" xmlns="http://www.w3.org/2000/svg">
<path d="M11.9831 1.38415C11.8779 1.21788 11.7117 1.09956 11.5202 1.0547C11.3286 1.00985 11.1271 1.04205 10.9591 1.14436C10.7911 1.24667 10.67 1.4109 10.6219 1.60166C10.5738 1.79242 10.6026 1.99443 10.7021 2.16415C10.7981 2.32215 10.8861 2.48515 10.9661 2.65315C10.7383 2.79925 10.4999 2.92827 10.2531 3.03915C9.97181 2.7186 9.62529 2.46185 9.23673 2.28611C8.84817 2.11037 8.42653 2.01969 8.00008 2.02015C7.10208 2.02015 6.29708 2.41415 5.74708 3.04015C5.50018 2.92893 5.26187 2.79958 5.03408 2.65315C5.11408 2.48515 5.20208 2.32315 5.29808 2.16415C5.35378 2.08005 5.39195 1.98558 5.41029 1.88639C5.42863 1.7872 5.42678 1.68533 5.40484 1.58687C5.3829 1.48842 5.34133 1.3954 5.2826 1.31338C5.22388 1.23136 5.14921 1.16204 5.06307 1.10954C4.97693 1.05705 4.88109 1.02248 4.78128 1.00789C4.68147 0.993297 4.57974 0.99899 4.48218 1.02463C4.38462 1.05026 4.29323 1.09532 4.21349 1.15709C4.13375 1.21887 4.06728 1.2961 4.01808 1.38415C3.77308 1.78515 3.56808 2.21415 3.40808 2.66215C3.35521 2.80959 3.34984 2.96988 3.3927 3.12053C3.43556 3.27118 3.52452 3.40463 3.64708 3.50215C4.08442 3.84986 4.56182 4.14395 5.06908 4.37815C5.02312 4.58906 4.99999 4.8043 5.00008 5.02015C5.00008 5.14615 5.07208 5.26015 5.18308 5.32015C5.56908 5.52515 5.97908 5.69015 6.41008 5.80715C6.28408 5.97215 6.18308 6.15715 6.11308 6.35615C5.21245 6.19304 4.33725 5.91195 3.51008 5.52015C3.49903 5.27598 3.49636 5.03151 3.50208 4.78715C3.50424 4.68866 3.48699 4.59071 3.4513 4.49888C3.41561 4.40706 3.36219 4.32317 3.29407 4.25199C3.22596 4.18081 3.1445 4.12375 3.05433 4.08406C2.96417 4.04436 2.86707 4.02282 2.76858 4.02065C2.67009 4.01849 2.57213 4.03574 2.48031 4.07143C2.38849 4.10712 2.30459 4.16054 2.23341 4.22866C2.08967 4.36621 2.00645 4.55524 2.00208 4.75415C1.9923 5.19124 2.00599 5.62853 2.04308 6.06415C2.05397 6.18972 2.09632 6.31051 2.16624 6.41538C2.23615 6.52025 2.33136 6.60581 2.44308 6.66415C3.61817 7.27888 4.8876 7.69323 6.19908 7.89015C6.23908 7.97415 6.28708 8.05615 6.33908 8.13315L6.12508 8.16415L6.09808 8.16915C4.79908 8.37615 3.56908 8.79115 2.44408 9.38015C2.33236 9.4385 2.23715 9.52406 2.16724 9.62893C2.09732 9.73379 2.05497 9.85459 2.04408 9.98015C1.94568 11.1313 2.01201 12.2907 2.24108 13.4232C2.28073 13.6181 2.39619 13.7893 2.56207 13.8991C2.72794 14.0089 2.93064 14.0483 3.12558 14.0087C3.32051 13.969 3.49171 13.8535 3.60151 13.6877C3.71132 13.5218 3.75073 13.3191 3.71108 13.1242C3.53716 12.2691 3.46998 11.3958 3.51108 10.5242C3.86308 10.3572 4.22508 10.2102 4.59608 10.0832C4.53308 10.3832 4.50008 10.6972 4.50008 11.0192C4.50008 13.2292 6.06708 15.0192 8.00008 15.0192C9.93308 15.0192 11.5001 13.2292 11.5001 11.0192C11.5001 10.6972 11.4661 10.3832 11.4031 10.0822C11.7751 10.2102 12.1371 10.3572 12.4881 10.5242C12.528 11.3957 12.4611 12.2688 12.2891 13.1242C12.2694 13.2207 12.2689 13.3201 12.2876 13.4168C12.3064 13.5136 12.344 13.6056 12.3983 13.6878C12.4526 13.77 12.5226 13.8407 12.6042 13.8958C12.6859 13.9509 12.7776 13.9895 12.8741 14.0092C12.9706 14.0289 13.0701 14.0293 13.1668 14.0106C13.2635 13.9919 13.3556 13.9543 13.4377 13.8999C13.5199 13.8456 13.5906 13.7756 13.6457 13.694C13.7009 13.6124 13.7394 13.5207 13.7591 13.4242C13.9895 12.2919 14.0558 11.1323 13.9561 9.98115C13.9452 9.85559 13.9028 9.73479 13.8329 9.62992C13.763 9.52506 13.6678 9.4395 13.5561 9.38115C12.4067 8.77907 11.1667 8.36867 9.88508 8.16615L9.87408 8.16415C9.80317 8.15351 9.73217 8.14351 9.66108 8.13415C9.71308 8.05615 9.76108 7.97415 9.80108 7.89015C11.1371 7.68815 12.4011 7.26715 13.5561 6.66315C13.6678 6.60481 13.763 6.51925 13.8329 6.41438C13.9028 6.30951 13.9452 6.18872 13.9561 6.06315C13.9932 5.62754 14.0069 5.19024 13.9971 4.75315C13.9949 4.65466 13.9734 4.55756 13.9337 4.4674C13.894 4.37723 13.8369 4.29577 13.7657 4.22766C13.6946 4.15954 13.6107 4.10612 13.5188 4.07043C13.427 4.03474 13.3291 4.01749 13.2306 4.01965C13.1321 4.02182 13.035 4.04337 12.9448 4.08306C12.8547 4.12275 12.7732 4.17981 12.7051 4.25099C12.5675 4.39474 12.4927 4.58724 12.4971 4.78615C12.5025 5.03051 12.4998 5.27498 12.4891 5.51915C11.6741 5.90515 10.8011 6.18915 9.88708 6.35515C9.81708 6.15515 9.71708 5.97115 9.59008 5.80515C10.0201 5.68815 10.4321 5.52315 10.8181 5.31715C10.8724 5.28866 10.918 5.24602 10.95 5.19373C10.982 5.14145 10.9993 5.08147 11.0001 5.02015C11.0001 4.80015 10.9761 4.58515 10.9311 4.37815C11.4383 4.14395 11.9157 3.84986 12.3531 3.50215C12.4758 3.40475 12.565 3.27136 12.608 3.1207C12.6511 2.97005 12.6458 2.80969 12.5931 2.66215C12.4337 2.21655 12.2293 1.78834 11.9831 1.38415Z" fill="#A3A3A3"/>
</svg>
