<svg width="11" height="13" viewBox="0 0 11 13" fill="none" xmlns="http://www.w3.org/2000/svg">
<path d="M4.33333 0C4.0498 0 3.75993 0.0994467 3.55469 0.304688C3.34945 0.509928 3.25 0.799805 3.25 1.08333V1.625H0V2.70833H0.541667V11.375C0.541667 12.2658 1.27588 13 2.16667 13H8.66667C9.55745 13 10.2917 12.2658 10.2917 11.375V2.70833H10.8333V1.625H7.58333V1.08333C7.58333 0.799805 7.48389 0.509928 7.27865 0.304688C7.0734 0.0994467 6.78353 0 6.5 0H4.33333ZM4.33333 1.08333H6.5V1.625H4.33333V1.08333ZM1.625 2.70833H9.20833V11.375C9.20833 11.6755 8.96712 11.9167 8.66667 11.9167H2.16667C1.86621 11.9167 1.625 11.6755 1.625 11.375V2.70833ZM2.70833 4.33333V10.2917H3.79167V4.33333H2.70833ZM4.875 4.33333V10.2917H5.95833V4.33333H4.875ZM7.04167 4.33333V10.2917H8.125V4.33333H7.04167Z" fill="white"/>
</svg>
