<svg width="13" height="13" viewBox="0 0 13 13" fill="none" xmlns="http://www.w3.org/2000/svg">
<path d="M11.6398 0C11.2919 0 10.9439 0.132844 10.6785 0.397983L9.92972 1.14671L11.8535 3.07049L12.6023 2.32177C13.1326 1.79088 13.1326 0.930048 12.6023 0.399164L12.6011 0.397983C12.3357 0.132844 11.9876 0 11.6398 0ZM2.26749 1.2093C1.01523 1.2093 0 2.22451 0 3.47674V10.7326C0 11.9848 1.01523 13 2.26749 13H9.52346C10.7757 13 11.7909 11.9848 11.7909 10.7326V5.50445C11.7909 5.25413 11.5878 5.05096 11.3374 5.05096C11.0871 5.05096 10.884 5.25413 10.884 5.50445V10.7326C10.884 11.4841 10.2751 12.093 9.52346 12.093H2.26749C1.51589 12.093 0.906996 11.4841 0.906996 10.7326V3.47674C0.906996 2.72516 1.51589 2.11628 2.26749 2.11628H7.49571C7.74604 2.11628 7.9492 1.91312 7.9492 1.66279C7.9492 1.41246 7.74604 1.2093 7.49571 1.2093H2.26749ZM9.28726 1.78797L5.33214 5.743C5.28256 5.79259 5.24587 5.85421 5.22349 5.92133L4.58222 7.84511C4.5278 8.00776 4.57051 8.18651 4.69205 8.30805C4.81359 8.42958 4.99234 8.4723 5.155 8.41788L7.07882 7.77662C7.14594 7.75424 7.20757 7.71755 7.25715 7.66797L11.2123 3.71294L9.28726 1.78797Z" fill="white"/>
</svg>
