<svg width="24" height="24" viewBox="0 0 24 24" fill="none" xmlns="http://www.w3.org/2000/svg">
<path fill-rule="evenodd" clip-rule="evenodd" d="M6 8.75C6 8.55109 6.07902 8.36032 6.21967 8.21967C6.36032 8.07902 6.55109 8 6.75 8H17.25C17.4489 8 17.6397 8.07902 17.7803 8.21967C17.921 8.36032 18 8.55109 18 8.75C18 8.94891 17.921 9.13968 17.7803 9.28033C17.6397 9.42098 17.4489 9.5 17.25 9.5H6.75C6.55109 9.5 6.36032 9.42098 6.21967 9.28033C6.07902 9.13968 6 8.94891 6 8.75ZM6 15.25C6 15.0511 6.07902 14.8603 6.21967 14.7197C6.36032 14.579 6.55109 14.5 6.75 14.5H17.25C17.4489 14.5 17.6397 14.579 17.7803 14.7197C17.921 14.8603 18 15.0511 18 15.25C18 15.4489 17.921 15.6397 17.7803 15.7803C17.6397 15.921 17.4489 16 17.25 16H6.75C6.55109 16 6.36032 15.921 6.21967 15.7803C6.07902 15.6397 6 15.4489 6 15.25Z" fill="#A3A3A3"/>
</svg>
