<svg width="128" height="84" viewBox="0 0 128 84" fill="none" xmlns="http://www.w3.org/2000/svg">
<rect x="44" width="40" height="40" rx="8" fill="white" fill-opacity="0.2"/>
<path d="M57.3129 29L52.3867 11.5455H55.7873L58.9322 24.3722H59.0941L62.4521 11.5455H65.5458L68.9123 24.3807H69.0657L72.2106 11.5455H75.6112L70.685 29H67.5657L64.0714 16.7528H63.935L60.4322 29H57.3129Z" fill="#FAFAFA"/>
<rect y="44" width="40" height="40" rx="8" fill="white" fill-opacity="0.2"/>
<path d="M15.2795 73H11.9045L18.0494 55.5455H21.9528L28.1062 73H24.7312L20.0692 59.125H19.9329L15.2795 73ZM15.3903 66.1562H24.5948V68.696H15.3903V66.1562Z" fill="#FAFAFA"/>
<rect x="44" y="44" width="40" height="40" rx="8" fill="white" fill-opacity="0.2"/>
<path d="M67.4144 60.3438C67.3349 59.5994 66.9996 59.0199 66.4087 58.6051C65.8235 58.1903 65.0621 57.983 64.1246 57.983C63.4656 57.983 62.9002 58.0824 62.4286 58.2812C61.957 58.4801 61.5962 58.75 61.3462 59.0909C61.0962 59.4318 60.9684 59.821 60.9627 60.2585C60.9627 60.6222 61.0451 60.9375 61.2099 61.2045C61.3803 61.4716 61.6104 61.6989 61.9002 61.8864C62.19 62.0682 62.511 62.2216 62.8633 62.3466C63.2156 62.4716 63.5707 62.5767 63.9286 62.6619L65.565 63.071C66.2241 63.2244 66.8576 63.4318 67.4656 63.6932C68.0792 63.9545 68.6275 64.2841 69.1104 64.6818C69.5991 65.0795 69.9854 65.5597 70.2695 66.1222C70.5536 66.6847 70.6957 67.3437 70.6957 68.0994C70.6957 69.1222 70.4343 70.0227 69.9116 70.8011C69.3889 71.5739 68.6332 72.179 67.6445 72.6165C66.6616 73.0483 65.4712 73.2642 64.0735 73.2642C62.7156 73.2642 61.5366 73.054 60.5366 72.6335C59.5423 72.2131 58.7638 71.5994 58.2013 70.7926C57.6445 69.9858 57.3434 69.0028 57.2979 67.8438H60.4087C60.4542 68.4517 60.6417 68.9574 60.9712 69.3608C61.3008 69.7642 61.7298 70.0653 62.2582 70.2642C62.7923 70.4631 63.3888 70.5625 64.0479 70.5625C64.7354 70.5625 65.3377 70.4602 65.8548 70.2557C66.3775 70.0455 66.7866 69.7557 67.082 69.3864C67.3775 69.0114 67.5281 68.5739 67.5337 68.0739C67.5281 67.6193 67.3945 67.2443 67.1332 66.9489C66.8718 66.6477 66.5053 66.3977 66.0337 66.1989C65.5678 65.9943 65.0224 65.8125 64.3974 65.6534L62.4116 65.142C60.9741 64.7727 59.8377 64.2131 59.0025 63.4631C58.1729 62.7074 57.7582 61.7045 57.7582 60.4545C57.7582 59.4261 58.0366 58.5256 58.5934 57.7528C59.1559 56.9801 59.9201 56.3807 60.886 55.9545C61.8519 55.5227 62.9457 55.3068 64.1673 55.3068C65.4059 55.3068 66.4911 55.5227 67.4229 55.9545C68.3604 56.3807 69.0962 56.9744 69.6303 57.7358C70.1644 58.4915 70.44 59.3608 70.457 60.3438H67.4144Z" fill="#FAFAFA"/>
<rect x="88" y="44" width="40" height="40" rx="8" fill="white" fill-opacity="0.2"/>
<path d="M106.941 73H101.026V55.5455H107.06C108.793 55.5455 110.282 55.8949 111.526 56.5938C112.776 57.2869 113.737 58.2841 114.407 59.5852C115.077 60.8864 115.413 62.4432 115.413 64.2557C115.413 66.0739 115.075 67.6364 114.398 68.9432C113.728 70.25 112.759 71.2528 111.492 71.9517C110.231 72.6506 108.714 73 106.941 73ZM104.188 70.2642H106.788C108.004 70.2642 109.018 70.0426 109.83 69.5994C110.643 69.1506 111.254 68.483 111.663 67.5966C112.072 66.7045 112.276 65.5909 112.276 64.2557C112.276 62.9205 112.072 61.8125 111.663 60.9318C111.254 60.0455 110.648 59.3835 109.847 58.946C109.052 58.5028 108.063 58.2812 106.881 58.2812H104.188V70.2642Z" fill="#FAFAFA"/>
</svg>
