<svg width="12" height="14" viewBox="0 0 12 14" fill="none" xmlns="http://www.w3.org/2000/svg">
<path d="M5.27083 0.25C4.9873 0.25 4.69743 0.349447 4.49219 0.554688C4.28695 0.759928 4.1875 1.0498 4.1875 1.33333V1.875H0.9375V2.95833H1.47917V11.625C1.47917 12.5158 2.21338 13.25 3.10417 13.25H9.60417C10.495 13.25 11.2292 12.5158 11.2292 11.625V2.95833H11.7708V1.875H8.52083V1.33333C8.52083 1.0498 8.42139 0.759928 8.21615 0.554688C8.0109 0.349447 7.72103 0.25 7.4375 0.25H5.27083ZM5.27083 1.33333H7.4375V1.875H5.27083V1.33333ZM2.5625 2.95833H10.1458V11.625C10.1458 11.9255 9.90462 12.1667 9.60417 12.1667H3.10417C2.80371 12.1667 2.5625 11.9255 2.5625 11.625V2.95833ZM3.64583 4.58333V10.5417H4.72917V4.58333H3.64583ZM5.8125 4.58333V10.5417H6.89583V4.58333H5.8125ZM7.97917 4.58333V10.5417H9.0625V4.58333H7.97917Z" fill="white"/>
</svg>
