<svg width="72" height="72" viewBox="0 0 72 72" fill="none" xmlns="http://www.w3.org/2000/svg">
<path d="M27.7187 13.4961C31.3993 7.12109 40.601 7.12109 44.2816 13.4961L64.7459 48.9418C68.4265 55.3168 63.826 63.2855 56.4649 63.2856H15.5354C8.17425 63.2855 3.57384 55.3168 7.25442 48.9418L27.7187 13.4961ZM40.8715 15.4648C38.7064 11.7149 33.2939 11.7149 31.1288 15.4648L10.664 50.9106C8.49905 54.6605 11.2054 59.348 15.5354 59.3481H56.4649L56.6665 59.3448C60.8115 59.2042 63.3848 54.7468 61.434 51.0869L61.3363 50.9106L40.8715 15.4648Z" fill="#F7F0E7"/>
<path d="M33.6888 42.3751L32.1387 31.4C32.1387 30.7827 32.293 30.2977 32.6017 29.9449C32.9103 29.5701 33.2961 29.3276 33.7591 29.2174C34.2221 29.0851 37.7854 29.0851 38.2484 29.2174C38.7113 29.3276 39.0972 29.5701 39.4058 29.9449C39.7145 30.2977 39.8688 30.7827 39.8688 31.4L38.3186 42.309C38.3186 43.0586 38.0871 43.6318 37.6242 44.0286C37.1832 44.4034 36.6541 44.6018 36.0368 44.6239C35.4415 44.6239 34.9014 44.4365 34.4164 44.0617C33.9534 43.6869 33.7109 43.1247 33.6888 42.3751Z" fill="#F7F0E7"/>
<path d="M38.3497 49.2928C38.3056 48.8078 38.0631 48.3558 37.6221 47.9369C37.2032 47.496 36.7513 47.2535 36.2663 47.2094C35.8033 47.1653 35.3623 47.2645 34.9435 47.507C34.5246 47.7495 34.1939 48.0802 33.9514 48.4991C33.7088 48.896 33.6096 49.3369 33.6537 49.8219C33.6978 50.307 33.9403 50.7589 34.3813 51.1778C34.8002 51.6187 35.2521 51.8613 35.7371 51.9053C36.2222 51.9494 36.6631 51.8502 37.0599 51.6077C37.4788 51.3652 37.8095 51.0345 38.052 50.6156C38.2946 50.1967 38.3938 49.7558 38.3497 49.2928Z" fill="#F7F0E7"/>
</svg>
