<svg width="72" height="76" viewBox="0 0 72 76" fill="none" xmlns="http://www.w3.org/2000/svg">
<g filter="url(#filter0_di_2996_26019)">
<path d="M0 16C0 7.16344 7.16344 0 16 0H56C64.8366 0 72 7.16344 72 16V56C72 64.8366 64.8366 72 56 72H16C7.16344 72 0 64.8366 0 56V16Z" fill="url(#paint0_linear_2996_26019)" shape-rendering="crispEdges"/>
<path d="M16 1H56C64.2843 1 71 7.71573 71 16V56C71 64.2843 64.2843 71 56 71H16C7.71573 71 1 64.2843 1 56V16C1 7.71573 7.71573 1 16 1Z" stroke="#A2453A" stroke-width="2" shape-rendering="crispEdges"/>
<path fill-rule="evenodd" clip-rule="evenodd" d="M47.2003 21.8501C48.005 21.8501 48.7346 22.1207 49.3071 22.6931C49.8796 23.2656 50.1501 23.9956 50.1501 24.8003C50.1501 25.605 49.8796 26.335 49.3071 26.9075L40.2145 36.0001L49.3071 45.0928C49.8797 45.6653 50.1501 46.3955 50.1501 47.2003C50.1501 48.0051 49.8796 48.7346 49.3071 49.3071C48.7346 49.8796 48.0051 50.1501 47.2003 50.1501C46.3955 50.1501 45.6653 49.8797 45.0928 49.3071L36.0001 40.2145L26.9075 49.3071C26.335 49.8796 25.605 50.1501 24.8003 50.1501C23.9955 50.1501 23.2656 49.8796 22.6931 49.3071C22.1207 48.7346 21.8501 48.005 21.8501 47.2003C21.8501 46.3955 22.1206 45.6653 22.6931 45.0928L31.7858 36.0001L22.6931 26.9075C22.1207 26.335 21.8501 25.605 21.8501 24.8003C21.8501 23.9956 22.1206 23.2656 22.6931 22.6931C23.2656 22.1206 23.9955 21.8501 24.8003 21.8501C25.605 21.8501 26.335 22.1207 26.9075 22.6931L36.0001 31.7858L45.0928 22.6931C45.6653 22.1206 46.3955 21.8501 47.2003 21.8501Z" fill="#F7F0E7"/>
<path d="M47.3424 18.8516C48.7647 18.8828 50.1801 19.3837 51.3158 20.4618L51.4282 20.5713L51.4286 20.5717C52.6202 21.7633 53.1498 23.2836 53.1498 24.8003C53.1497 26.3173 52.6199 27.8372 51.4286 29.0286L44.4567 35.9998L51.4286 42.9713C52.6202 44.163 53.1498 45.6835 53.1498 47.2003C53.1497 48.7175 52.6199 50.2373 51.4286 51.4286C50.2373 52.6199 48.7175 53.1497 47.2003 53.1498C45.6835 53.1498 44.163 52.6202 42.9713 51.4286L35.9998 44.4567L29.0286 51.4286C27.8372 52.6199 26.3173 53.1497 24.8003 53.1498C23.2836 53.1498 21.7633 52.6202 20.5717 51.4286L20.5713 51.4282C19.3803 50.2371 18.8501 48.7175 18.8501 47.2003C18.8501 45.6835 19.38 44.163 20.5717 42.9713L27.5428 35.9998L20.5717 29.0286C19.3804 27.8373 18.8502 26.3173 18.8501 24.8003C18.8501 23.2835 19.38 21.7633 20.5717 20.5717C21.7633 19.38 23.2835 18.8501 24.8003 18.8501C26.2699 18.8502 27.7422 19.3477 28.9158 20.4618L29.0286 20.5717L35.9998 27.5428L42.9713 20.5717C44.163 19.38 45.6835 18.8501 47.2003 18.8501L47.3424 18.8516ZM47.2003 21.8501C46.3956 21.8501 45.6653 22.1203 45.0928 22.6927L36.0001 31.7858L26.9071 22.6927C26.3346 22.1204 25.6049 21.8501 24.8003 21.8501C23.9955 21.8501 23.2653 22.1202 22.6927 22.6927C22.1202 23.2653 21.8501 23.9955 21.8501 24.8003C21.8501 25.6049 22.1204 26.3346 22.6927 26.9071L31.7858 36.0001L22.6927 45.0928C22.1203 45.6653 21.8501 46.3956 21.8501 47.2003C21.8501 48.0049 22.1204 48.7347 22.6927 49.3071C23.2653 49.8797 23.9955 50.1498 24.8003 50.1498C25.605 50.1497 26.3346 49.8796 26.9071 49.3071L36.0001 40.2145L45.0928 49.3071C45.6653 49.8797 46.3955 50.1498 47.2003 50.1498C48.005 50.1497 48.7347 49.8796 49.3071 49.3071C49.8796 48.7347 50.1497 48.005 50.1498 47.2003C50.1498 46.3955 49.8797 45.6653 49.3071 45.0928L40.2145 36.0001L49.3071 26.9071C49.8796 26.3346 50.1497 25.605 50.1498 24.8003C50.1498 23.9955 49.8797 23.2653 49.3071 22.6927C48.7347 22.1204 48.0049 21.8501 47.2003 21.8501Z" fill="#79342C"/>
</g>
<defs>
<filter id="filter0_di_2996_26019" x="0" y="0" width="72" height="76" filterUnits="userSpaceOnUse" color-interpolation-filters="sRGB">
<feFlood flood-opacity="0" result="BackgroundImageFix"/>
<feColorMatrix in="SourceAlpha" type="matrix" values="0 0 0 0 0 0 0 0 0 0 0 0 0 0 0 0 0 0 127 0" result="hardAlpha"/>
<feOffset dy="4"/>
<feComposite in2="hardAlpha" operator="out"/>
<feColorMatrix type="matrix" values="0 0 0 0 0.121569 0 0 0 0 0.0901961 0 0 0 0 0.0784314 0 0 0 0.25 0"/>
<feBlend mode="normal" in2="BackgroundImageFix" result="effect1_dropShadow_2996_26019"/>
<feBlend mode="normal" in="SourceGraphic" in2="effect1_dropShadow_2996_26019" result="shape"/>
<feColorMatrix in="SourceAlpha" type="matrix" values="0 0 0 0 0 0 0 0 0 0 0 0 0 0 0 0 0 0 127 0" result="hardAlpha"/>
<feOffset dy="-8"/>
<feComposite in2="hardAlpha" operator="arithmetic" k2="-1" k3="1"/>
<feColorMatrix type="matrix" values="0 0 0 0 0.47451 0 0 0 0 0.203922 0 0 0 0 0.172549 0 0 0 1 0"/>
<feBlend mode="normal" in2="shape" result="effect2_innerShadow_2996_26019"/>
</filter>
<linearGradient id="paint0_linear_2996_26019" x1="36" y1="72" x2="36" y2="0" gradientUnits="userSpaceOnUse">
<stop stop-color="#79342C"/>
<stop offset="0.3" stop-color="#A2453A"/>
<stop offset="0.75" stop-color="#CA5649"/>
</linearGradient>
</defs>
</svg>
