<svg xmlns="http://www.w3.org/2000/svg" width="12" height="3" viewBox="0 0 12 3" fill="none">
  <path d="M12 1.5C12 2.32843 11.3284 3 10.5 3C9.67157 3 9 2.32843 9 1.5C9 0.671573 9.67157 -1.01779e-07 10.5 -6.55671e-08C11.3284 -2.93554e-08 12 0.671573 12 1.5Z" fill="#FAFAFA"/>
  <path d="M7.5 1.5C7.5 2.32843 6.82843 3 6 3C5.17157 3 4.5 2.32843 4.5 1.5C4.5 0.671572 5.17157 -2.9848e-07 6 -2.62268e-07C6.82843 -2.26057e-07 7.5 0.671573 7.5 1.5Z" fill="#FAFAFA"/>
  <path d="M1.5 3C2.32843 3 3 2.32843 3 1.5C3 0.671573 2.32843 -4.22758e-07 1.5 -4.5897e-07C0.671573 -4.95181e-07 -2.93554e-08 0.671572 -6.55671e-08 1.5C-1.01779e-07 2.32843 0.671573 3 1.5 3Z" fill="#FAFAFA"/>
</svg>