<svg width="13" height="14" viewBox="0 0 13 14" fill="none" xmlns="http://www.w3.org/2000/svg">
<path d="M9.44 0C8.645 0 8 0.645 8 1.44C8 2.235 8.645 2.88 9.44 2.88C10.2363 2.88 10.88 2.235 10.88 1.44C10.88 0.645 10.2363 0 9.44 0ZM4.8 2.24C4.6775 2.24 4.5575 2.275 4.455 2.34125H4.45375L4.44375 2.34375L2.22625 3.935C2.03625 4.05 1.92 4.2575 1.92 4.48C1.92 4.83375 2.20625 5.12 2.56 5.12C2.71125 5.12 2.85625 5.06625 2.97125 4.96875L2.9725 4.97L4.89 3.59L6.30125 4.03875L4.7225 6.61125V6.6125C4.565 6.83 4.48 7.09125 4.48 7.36C4.48125 7.84375 4.755 8.28625 5.1875 8.50375L7.60125 9.9925L7.055 12.8038C7.045 12.855 7.04 12.9075 7.04 12.96C7.04 13.4013 7.39875 13.76 7.84 13.76C8.225 13.76 8.555 13.4863 8.625 13.1088H8.62625L9.275 9.6925L9.27375 9.6875C9.2775 9.65875 9.28 9.62875 9.28 9.6C9.28 9.42 9.20375 9.24875 9.07 9.1275L9.06875 9.1225L7.34 7.59L8.835 4.635H8.83375C8.91625 4.49 8.96 4.32625 8.96 4.16C8.96 3.7775 8.7325 3.43125 8.38125 3.28V3.27875L7.58 2.83125L4.96625 2.26125H4.9625C4.91 2.2475 4.855 2.24 4.8 2.24ZM9.34875 5.0375L8.63125 6.455L9.01875 7.30875L9.02125 7.31C9.12375 7.52875 9.34375 7.68 9.6 7.68H11.84C12.1938 7.68 12.48 7.39375 12.48 7.04C12.48 6.68625 12.1938 6.4 11.84 6.4H9.92L9.34875 5.0375ZM4.005 8.1325L3.2775 9.28H0.8C0.3575 9.28 0 9.6375 0 10.08C0 10.5225 0.3575 10.88 0.8 10.88H3.49875C3.91375 10.88 4.3025 10.6788 4.5425 10.34L5.27375 9.30875C5.00875 9.145 4.8175 9.02625 4.815 9.025C4.45 8.8175 4.17 8.5025 4.005 8.1325Z" fill="#00A3FF"/>
</svg>
