<svg width="12" height="12" viewBox="0 0 12 12" fill="none" xmlns="http://www.w3.org/2000/svg">
<path d="M1.85358 1.14648L1.14654 1.85352L2.53424 3.24121C2.26468 3.46095 2.02434 3.695 1.80963 3.92969C1.13763 4.67869 0.746998 5.44435 0.585998 5.79785C0.526998 5.92785 0.526998 6.07215 0.585998 6.20215C0.954998 7.01565 2.54506 10 6.00006 10C6.60006 10 7.14483 9.90988 7.63483 9.75488C7.99438 9.64502 8.32438 9.50078 8.62408 9.33105L10.1465 10.8535L10.8536 10.1465L1.85358 1.14648ZM6.00006 2C5.40006 2 4.85529 2.09012 4.36529 2.24512L5.19537 3.0752C5.44537 3.0252 5.71506 3 6.00006 3C8.64006 3 9.97033 5.135 10.4053 6C10.2403 6.33 9.93553 6.85035 9.48053 7.36035L10.1905 8.07031C10.8625 7.32131 11.2531 6.55565 11.4141 6.20215C11.4731 6.07215 11.4731 5.92785 11.4141 5.79785C11.0451 4.98435 9.45506 2 6.00006 2ZM3.2442 3.95117L4.27936 4.98633C4.09978 5.28606 4.00006 5.63047 4.00006 6C4.00006 6.04 3.99994 6.085 4.00494 6.125C4.06494 7.13 4.87006 7.93512 5.87506 7.99512C5.91506 8.00012 5.96006 8 6.00006 8C6.36959 8 6.714 7.90028 7.01373 7.7207L7.87897 8.58594C7.55426 8.74068 7.1943 8.85988 6.80475 8.9248C6.54975 8.9748 6.28506 9 6.00006 9C3.36006 9 2.02979 6.865 1.59479 6C1.75979 5.67 2.05959 5.14965 2.51959 4.63965C2.72432 4.40496 2.96965 4.17092 3.2442 3.95117ZM6.12506 4.00488L7.99518 5.875C7.93518 4.87 7.13006 4.06488 6.12506 4.00488ZM5.03522 5.74219L6.25787 6.96484C6.17832 6.98944 6.0894 7 6.00006 7C5.45006 7 5.00006 6.55 5.00006 6C5.00006 5.91066 5.01062 5.82174 5.03522 5.74219Z" fill="#D4D6D8"/>
</svg>
