<svg width="22" height="20" viewBox="0 0 9 8" fill="none" xmlns="http://www.w3.org/2000/svg">
<path d="M0.666667 0.333374C0.298333 0.333374 0 0.631707 0 1.00004V2.00004H3.66667H8.66667V1.66671C8.66667 1.29837 8.36833 1.00004 8 1.00004H3.06641L2.86068 0.656942C2.74034 0.456275 2.5234 0.333374 2.28906 0.333374H0.666667ZM0.333333 2.66671C0.149333 2.66671 0 2.81604 0 3.00004V7.00004C0 7.36837 0.298333 7.66671 0.666667 7.66671H8C8.36833 7.66671 8.66667 7.36837 8.66667 7.00004V3.00004C8.66667 2.81604 8.51733 2.66671 8.33333 2.66671H0.333333Z" fill="#333333"/>
</svg>
