<svg width="28" height="22" viewBox="0 0 28 22" fill="none" xmlns="http://www.w3.org/2000/svg">
<path d="M10.3125 0C9.4875 0 8.66304 0.413574 8.11304 1.10107L5.91357 4.125H9.35107L10.4495 2.75H15.125V4.125H17.875V2.75C17.875 1.2375 16.6375 0 15.125 0H10.3125ZM22 0C21.241 0 20.625 0.616 20.625 1.375V2.75C20.625 3.509 21.241 4.125 22 4.125H25.4375C26.5375 4.125 27.5 3.1625 27.5 2.0625C27.5 0.9625 26.5375 0 25.4375 0H22ZM2.75 5.5C1.2375 5.5 0 6.7375 0 8.25V19.25C0 20.7625 1.2375 22 2.75 22H17.875C19.3875 22 20.625 20.7625 20.625 19.25V16.5L26.2029 20.5015C26.7749 20.8438 27.5 20.4338 27.5 19.7683V7.73169C27.5 7.06619 26.7749 6.65616 26.2029 6.99854L20.625 11V8.25C20.625 6.7375 19.3875 5.5 17.875 5.5H2.75ZM4.125 8.25H9.625C10.384 8.25 11 8.866 11 9.625V12.375C11 13.134 10.384 13.75 9.625 13.75H4.125C3.366 13.75 2.75 13.134 2.75 12.375V9.625C2.75 8.866 3.366 8.25 4.125 8.25Z" fill="#333333"/>
</svg>
