<svg width="22" height="22" viewBox="0 0 22 22" fill="none" xmlns="http://www.w3.org/2000/svg">
<path d="M6.9892 2.03177H1.99691C0.895616 2.03177 0 2.92734 0 4.02859V9.02065C0 10.1219 0.895616 11.0175 1.99691 11.0175H6.9892C8.0905 11.0175 8.98611 10.1219 8.98611 9.02065V4.02859C8.98611 2.92734 8.0905 2.03177 6.9892 2.03177ZM21.4159 4.11445L17.8864 0.584071C17.1086 -0.19469 15.8405 -0.19469 15.0627 0.584071L11.5332 4.11445C10.7544 4.89322 10.7544 6.1592 11.5332 6.93796L15.0627 10.4683C15.4521 10.8577 15.9633 11.0524 16.4745 11.0524C16.9858 11.0524 17.497 10.8577 17.8864 10.4683L21.4159 6.93796C22.1947 6.1592 22.1947 4.89322 21.4159 4.11445ZM6.9892 13.0143H1.99691C0.895616 13.0143 0 13.9099 0 15.0111V20.0032C0 21.1044 0.895616 22 1.99691 22H6.9892C8.0905 22 8.98611 21.1044 8.98611 20.0032V15.0111C8.98611 13.9099 8.0905 13.0143 6.9892 13.0143ZM17.9722 13.0143H12.9799C11.8786 13.0143 10.983 13.9099 10.983 15.0111V20.0032C10.983 21.1044 11.8786 22 12.9799 22H17.9722C19.0735 22 19.9691 21.1044 19.9691 20.0032V15.0111C19.9691 13.9099 19.0735 13.0143 17.9722 13.0143Z" fill="#333333"/>
</svg>
