<svg width="12" height="12" viewBox="0 0 12 12" fill="none" xmlns="http://www.w3.org/2000/svg">
<path d="M6 7.5C6.39782 7.5 6.77936 7.34196 7.06066 7.06066C7.34196 6.77936 7.5 6.39782 7.5 6C7.5 5.60218 7.34196 5.22064 7.06066 4.93934C6.77936 4.65804 6.39782 4.5 6 4.5C5.60218 4.5 5.22064 4.65804 4.93934 4.93934C4.65804 5.22064 4.5 5.60218 4.5 6C4.5 6.39782 4.65804 6.77936 4.93934 7.06066C5.22064 7.34196 5.60218 7.5 6 7.5Z" fill="#F8FAFC" fill-opacity="0.8"/>
<path fill-rule="evenodd" clip-rule="evenodd" d="M0.398378 6.354C0.310241 6.12499 0.310241 5.87141 0.398378 5.6424C0.834716 4.5111 1.60345 3.53846 2.60335 2.85258C3.60326 2.1667 4.78744 1.79973 5.99998 1.8C8.55418 1.8 10.7358 3.396 11.6016 5.646C11.6898 5.8746 11.6892 6.1284 11.6016 6.3576C11.1652 7.4889 10.3965 8.46153 9.3966 9.14741C8.3967 9.8333 7.21251 10.2003 5.99998 10.2C3.44578 10.2 1.26418 8.604 0.398378 6.354ZM8.39998 6C8.39998 6.63652 8.14712 7.24697 7.69704 7.69706C7.24695 8.14714 6.6365 8.4 5.99998 8.4C5.36346 8.4 4.75301 8.14714 4.30292 7.69706C3.85283 7.24697 3.59998 6.63652 3.59998 6C3.59998 5.36348 3.85283 4.75303 4.30292 4.30294C4.75301 3.85286 5.36346 3.6 5.99998 3.6C6.6365 3.6 7.24695 3.85286 7.69704 4.30294C8.14712 4.75303 8.39998 5.36348 8.39998 6Z" fill="#F8FAFC" fill-opacity="0.8"/>
</svg>
