<svg width="29" height="30" viewBox="0 0 29 30" fill="none" xmlns="http://www.w3.org/2000/svg">
<path d="M0 0V27.3944H23.5739L25.9226 29.6314C26.419 30.1229 27.2445 30.1229 27.741 29.6314L28.6277 28.7537C29.1241 28.2623 29.1241 27.4438 28.6277 26.9524L28.6251 26.9498L27.6741 26.0301V0H0ZM1.31781 1.3045H3.95344V3.26124H1.31781V1.3045ZM23.7206 1.3045H26.3562V3.26124H23.7206V1.3045ZM1.31781 4.56574H3.95344V6.52248H1.31781V4.56574ZM23.7206 4.56574H26.3562V6.52248H23.7206V4.56574ZM1.31781 7.82698H3.95344V9.78372H1.31781V7.82698ZM23.7206 7.82698H26.3562V9.78372H23.7206V7.82698ZM1.31781 11.0882H3.95344V13.045H1.31781V11.0882ZM23.7206 11.0882H26.3562V13.045H23.7206V11.0882ZM5.27125 13.045H22.4028V14.3495H17.8548L18.7685 16.7406L21.3025 15.4692L20.1249 18.012L22.8365 18.8961L20.9499 19.7254C20.6963 19.6213 20.4265 19.5667 20.1558 19.5725C19.6597 19.5833 19.1671 19.7775 18.7981 20.1535C18.1602 20.8031 18.0905 21.7944 18.5575 22.5293L18.0208 23.9102L16.9861 21.2974L14.4882 22.5331L15.6297 19.9904L12.9542 19.142L15.595 18.1177L14.3106 15.645L16.8793 16.7763L17.6965 14.3495H5.27125V13.045ZM1.31781 14.3495H3.95344V16.3062H1.31781V14.3495ZM23.7206 14.3495H26.3562V16.3062H23.7206V14.3495ZM1.31781 17.6107H3.95344V19.5674H1.31781V17.6107ZM23.7206 17.6107H26.3562V24.7549L23.7206 22.2057V17.6107ZM8.89523 20.2197L9.55414 21.8503L11.2014 22.5026L9.55414 23.1548L8.89523 24.7854L8.23633 23.1548L6.58906 22.5026L8.23633 21.8503L8.89523 20.2197ZM20.1841 20.8681C20.3429 20.8647 20.5035 20.922 20.632 21.0414L20.6333 21.0426L27.6728 27.853L26.8324 28.6862L19.771 21.9624L19.7672 21.9586C19.5008 21.7135 19.4908 21.3209 19.744 21.063V21.0618C19.8673 20.9362 20.0249 20.8716 20.1841 20.8681ZM1.31781 20.8719H3.95344V22.8287H1.31781V20.8719ZM1.31781 24.1332H3.95344V26.0899H1.31781V24.1332Z" fill="#AEAEAE"/>
</svg>
