<svg width="14" height="14" viewBox="0 0 14 14" fill="none" xmlns="http://www.w3.org/2000/svg">
<rect width="14" height="14" rx="7" fill="#71717A"/>
<path d="M7.46875 4.84375C7.46875 4.58487 7.25888 4.375 7 4.375C6.74112 4.375 6.53125 4.58487 6.53125 4.84375V7.03125H4.34375C4.08487 7.03125 3.875 7.24112 3.875 7.5C3.875 7.75888 4.08487 7.96875 4.34375 7.96875L6.53125 7.96875V10.1562C6.53125 10.4151 6.74112 10.625 7 10.625C7.25888 10.625 7.46875 10.4151 7.46875 10.1562V7.96875L9.65625 7.96875C9.91513 7.96875 10.125 7.75888 10.125 7.5C10.125 7.24112 9.91513 7.03125 9.65625 7.03125H7.46875V4.84375Z" fill="#FAFAFA"/>
</svg>
