<svg width="14" height="14" viewBox="0 0 14 14" fill="none" xmlns="http://www.w3.org/2000/svg">
<rect width="14" height="14" rx="7" fill="#71717A"/>
<path fill-rule="evenodd" clip-rule="evenodd" d="M5.125 4.53125V5H3.71875C3.45987 5 3.25 5.20987 3.25 5.46875C3.25 5.72763 3.45987 5.9375 3.71875 5.9375H3.90625L4.41558 11.0308C4.4635 11.51 4.86678 11.875 5.34843 11.875H8.65157C9.13322 11.875 9.5365 11.51 9.58442 11.0308L10.0938 5.9375H10.2812C10.5401 5.9375 10.75 5.72763 10.75 5.46875C10.75 5.20987 10.5401 5 10.2812 5H8.875V4.53125C8.875 3.7546 8.2454 3.125 7.46875 3.125H6.53125C5.7546 3.125 5.125 3.7546 5.125 4.53125ZM6.53125 4.0625C6.27237 4.0625 6.0625 4.27237 6.0625 4.53125V5H7.9375V4.53125C7.9375 4.27237 7.72763 4.0625 7.46875 4.0625H6.53125ZM5.78152 6.25058C6.04008 6.23766 6.26017 6.43678 6.2731 6.69534L6.44497 10.1328C6.4579 10.3914 6.25878 10.6115 6.00022 10.6244C5.74165 10.6373 5.52157 10.4382 5.50864 10.1797L5.33677 6.74216C5.32384 6.4836 5.52296 6.26351 5.78152 6.25058ZM8.21897 6.25058C8.47753 6.26351 8.67665 6.4836 8.66372 6.74216L8.49185 10.1797C8.47892 10.4382 8.25883 10.6373 8.00027 10.6244C7.74171 10.6115 7.54259 10.3914 7.55552 10.1328L7.72739 6.69534C7.74032 6.43678 7.9604 6.23766 8.21897 6.25058Z" fill="#FAFAFA"/>
</svg>
