<svg width="34" height="34" viewBox="0 0 34 34" fill="none" xmlns="http://www.w3.org/2000/svg">
<path d="M9.70831 0.957031V3.8737H12.625V0.957031H9.70831ZM15.5416 0.957031V3.8737H18.4583V0.957031H15.5416ZM21.375 0.957031V3.8737H24.2916V0.957031H21.375ZM8.24998 5.33203C6.65593 5.33203 5.33331 6.65465 5.33331 8.2487V25.7487C5.33331 27.3427 6.65593 28.6654 8.24998 28.6654H25.75C27.344 28.6654 28.6666 27.3427 28.6666 25.7487V8.2487C28.6666 6.65465 27.344 5.33203 25.75 5.33203H8.24998ZM8.24998 8.2487H25.75V25.7487H8.24998V8.2487ZM0.958313 9.70703V12.6237H3.87498V9.70703H0.958313ZM30.125 9.70703V12.6237H33.0416V9.70703H30.125ZM12.625 12.6237V14.082V21.3737H21.375V12.6237H12.625ZM0.958313 15.5404V18.457H3.87498V15.5404H0.958313ZM15.5416 15.5404H18.4583V18.457H15.5416V15.5404ZM30.125 15.5404V18.457H33.0416V15.5404H30.125ZM0.958313 21.3737V24.2904H3.87498V21.3737H0.958313ZM30.125 21.3737V24.2904H33.0416V21.3737H30.125ZM9.70831 30.1237V33.0404H12.625V30.1237H9.70831ZM15.5416 30.1237V33.0404H18.4583V30.1237H15.5416ZM21.375 30.1237V33.0404H24.2916V30.1237H21.375Z" fill="#AEAEAE"/>
</svg>
