<svg xmlns="http://www.w3.org/2000/svg" width="48" height="48" viewBox="0 0 48 48" fill="none">
  <path fill-rule="evenodd" clip-rule="evenodd" d="M18.8014 6.00781C21.1114 2.00781 26.8874 2.00781 29.1954 6.00781L43.9054 31.5038C46.2134 35.5038 43.3254 40.5038 38.7074 40.5038H9.28938C4.67138 40.5038 1.78538 35.5038 4.09338 31.5038L18.7994 6.00781H18.8014ZM23.9994 16.5018C24.3972 16.5018 24.7787 16.6598 25.06 16.9412C25.3413 17.2225 25.4994 17.604 25.4994 18.0018V25.5018C25.4994 25.8996 25.3413 26.2812 25.06 26.5625C24.7787 26.8438 24.3972 27.0018 23.9994 27.0018C23.6016 27.0018 23.22 26.8438 22.9387 26.5625C22.6574 26.2812 22.4994 25.8996 22.4994 25.5018V18.0018C22.4994 17.604 22.6574 17.2225 22.9387 16.9412C23.22 16.6598 23.6016 16.5018 23.9994 16.5018ZM23.9994 33.0018C24.3972 33.0018 24.7787 32.8438 25.06 32.5625C25.3413 32.2812 25.4994 31.8996 25.4994 31.5018C25.4994 31.104 25.3413 30.7225 25.06 30.4412C24.7787 30.1598 24.3972 30.0018 23.9994 30.0018C23.6016 30.0018 23.22 30.1598 22.9387 30.4412C22.6574 30.7225 22.4994 31.104 22.4994 31.5018C22.4994 31.8996 22.6574 32.2812 22.9387 32.5625C23.22 32.8438 23.6016 33.0018 23.9994 33.0018Z" fill="#F8FAFC" fill-opacity="0.8"/>
</svg>