<svg width="20" height="20" viewBox="0 0 20 20" fill="none" xmlns="http://www.w3.org/2000/svg">
<path d="M0.474808 5.80459e-05C0.348761 0.00202836 0.228645 0.0539271 0.140822 0.144364C0.0529989 0.234801 0.00464428 0.356387 0.00637041 0.482437V2.78187C-0.00212346 2.83326 -0.00212346 2.8857 0.00637041 2.93709V9.91996C-0.00212347 9.97135 -0.00212347 10.0238 0.00637041 10.0752V17.0581C-0.00212347 17.1094 -0.00212347 17.1619 0.00637041 17.2133V19.5173C0.0054786 19.5804 0.0171286 19.643 0.0406432 19.7015C0.0641579 19.76 0.0990682 19.8133 0.143346 19.8582C0.187623 19.9031 0.240384 19.9388 0.298563 19.9631C0.356742 19.9875 0.419178 20 0.482243 20C0.545308 20 0.607745 19.9875 0.665923 19.9631C0.724102 19.9388 0.776864 19.9031 0.821141 19.8582C0.865418 19.8133 0.900329 19.76 0.923843 19.7015C0.947358 19.643 0.959008 19.5804 0.958116 19.5173V17.6139H1.97306C2.07844 18.022 2.31632 18.3836 2.64937 18.642C2.98243 18.9004 3.39183 19.0409 3.81335 19.0415C4.23504 19.0411 4.64465 18.9007 4.97789 18.6423C5.31114 18.3839 5.54915 18.0222 5.65457 17.6139H19.5172C19.5802 17.6147 19.6428 17.6031 19.7013 17.5796C19.7599 17.5561 19.8131 17.5212 19.858 17.4769C19.9029 17.4326 19.9386 17.3798 19.9629 17.3217C19.9873 17.2635 19.9998 17.201 19.9998 17.138C19.9998 17.0749 19.9873 17.0125 19.9629 16.9543C19.9386 16.8961 19.9029 16.8434 19.858 16.7991C19.8131 16.7548 19.7599 16.7199 19.7013 16.6964C19.6428 16.6729 19.5802 16.6612 19.5172 16.6621H5.65364C5.54826 16.254 5.31039 15.8924 4.97733 15.634C4.64427 15.3756 4.23488 15.2351 3.81335 15.2345C3.39167 15.2349 2.98206 15.3753 2.64881 15.6337C2.31557 15.8921 2.07755 16.2538 1.97213 16.6621H0.958116V10.4758H13.8699C13.9753 10.8839 14.2131 11.2455 14.5462 11.5039C14.8793 11.7623 15.2886 11.9028 15.7102 11.9034C16.1319 11.903 16.5415 11.7626 16.8747 11.5042C17.208 11.2458 17.446 10.8841 17.5514 10.4758H19.5172C19.5802 10.4767 19.6428 10.465 19.7013 10.4415C19.7599 10.418 19.8131 10.3831 19.858 10.3388C19.9029 10.2945 19.9386 10.2418 19.9629 10.1836C19.9873 10.1254 19.9998 10.063 19.9998 9.99989C19.9998 9.93683 19.9873 9.87439 19.9629 9.81621C19.9386 9.75803 19.9029 9.70527 19.858 9.661C19.8131 9.61672 19.7599 9.58181 19.7013 9.55829C19.6428 9.53478 19.5802 9.52313 19.5172 9.52402H17.5505C17.4451 9.11588 17.2072 8.75427 16.8741 8.49589C16.5411 8.23752 16.1317 8.09701 15.7102 8.0964C15.2885 8.09681 14.8789 8.23722 14.5456 8.49561C14.2124 8.754 13.9744 9.11573 13.869 9.52402H0.958116V3.33767H7.20766C7.31304 3.74581 7.55092 4.10743 7.88398 4.3658C8.21703 4.62417 8.62643 4.76468 9.04795 4.76529C9.46964 4.76489 9.87925 4.62447 10.2125 4.36608C10.5457 4.1077 10.7838 3.74597 10.8892 3.33767H19.5172C19.5802 3.33857 19.6428 3.32692 19.7013 3.3034C19.7599 3.27989 19.8131 3.24498 19.858 3.2007C19.9029 3.15642 19.9386 3.10366 19.9629 3.04548C19.9873 2.9873 19.9998 2.92487 19.9998 2.8618C19.9998 2.79874 19.9873 2.7363 19.9629 2.67812C19.9386 2.61994 19.9029 2.56718 19.858 2.5229C19.8131 2.47863 19.7599 2.44372 19.7013 2.4202C19.6428 2.39669 19.5802 2.38504 19.5172 2.38593H10.8882C10.7829 1.97779 10.545 1.61617 10.2119 1.3578C9.87887 1.09943 9.46948 0.958921 9.04795 0.95831C8.62627 0.958715 8.21666 1.09913 7.88341 1.35752C7.55017 1.61591 7.31216 1.97764 7.20673 2.38593H0.958116V0.482437C0.958988 0.41877 0.947075 0.355576 0.923084 0.296596C0.899092 0.237616 0.86351 0.18405 0.818443 0.13907C0.773376 0.0940902 0.719742 0.0586105 0.660716 0.0347325C0.60169 0.0108545 0.538473 -0.000936343 0.474808 5.80459e-05Z" fill="white"/>
</svg>
