<svg xmlns="http://www.w3.org/2000/svg" width="20" height="20" viewBox="0 0 20 20" fill="none">
  <path d="M9.5 2C9.42297 2 9.34624 2.02402 9.28072 2.07277L1.13503 8.32356C0.982743 8.44195 0.954438 8.6607 1.07485 8.81391C1.19527 8.96364 1.41775 8.99147 1.57358 8.87308L2.06263 8.49766V17.6518C2.06263 17.8433 2.222 18 2.41679 18H7.37504V11.7322H11.625V18H16.5832C16.778 18 16.9374 17.8433 16.9374 17.6518V8.49766L17.4264 8.87308C17.4937 8.92183 17.5678 8.94653 17.6457 8.94653C17.7519 8.94653 17.8543 8.90096 17.9251 8.81391C18.0456 8.6607 18.0173 8.44195 17.865 8.32356L9.71927 2.07277C9.65375 2.02402 9.57703 2 9.5 2ZM13.0416 3.37516V3.74105L15.1666 5.37057V3.37516H13.0416Z" fill="#E9E9E9"/>
</svg>