<svg xmlns="http://www.w3.org/2000/svg" width="16" height="16" viewBox="0 0 16 16" fill="none">
  <path d="M8.0001 1.60001C4.4657 1.60001 1.6001 4.46561 1.6001 8.00001C1.6001 11.5344 4.4657 14.4 8.0001 14.4C11.5345 14.4 14.4001 11.5344 14.4001 8.00001C14.4001 4.46561 11.5345 1.60001 8.0001 1.60001ZM8.0001 12C7.5585 12 7.2001 11.6416 7.2001 11.2C7.2001 10.7584 7.5585 10.4 8.0001 10.4C8.4417 10.4 8.8001 10.7584 8.8001 11.2C8.8001 11.6416 8.4417 12 8.0001 12ZM9.10303 8.26667C8.74997 8.59254 8.53343 8.80641 8.53343 9.06667H7.46676C7.46676 8.32587 7.9729 7.85867 8.3793 7.48267C8.80543 7.08907 9.06676 6.82614 9.06676 6.40001C9.06676 5.81174 8.58836 5.33334 8.0001 5.33334C7.41183 5.33334 6.93343 5.81174 6.93343 6.40001H5.86676C5.86676 5.22347 6.82356 4.26667 8.0001 4.26667C9.17663 4.26667 10.1334 5.22347 10.1334 6.40001C10.1334 7.31467 9.56223 7.84214 9.10303 8.26667Z" fill="#E9E9E9"/>
</svg>