<svg xmlns="http://www.w3.org/2000/svg" width="16" height="16" viewBox="0 0 16 16" fill="none">
  <g clip-path="url(#clip0_18678_222872)">
    <path d="M15.3988 4.49251L11.4851 0.578757C11.3588 0.452507 11.1576 0.452507 11.0326 0.578757L9.87132 1.73876L11.1063 2.97376L10.6538 3.42626L9.41882 2.19126L8.59132 3.01876L10.7863 5.21376L10.3338 5.66626L8.13882 3.47126L7.31132 4.29876L8.54632 5.53376L8.09382 5.98626L6.85882 4.75126L6.03132 5.57876L8.22632 7.77376L7.77382 8.22626L5.57882 6.03126L4.75132 6.85876L5.98632 8.09376L5.53382 8.54626L4.29882 7.31126L3.47132 8.13876L5.66632 10.3338L5.21382 10.7863L3.01882 8.59126L2.19132 9.41876L3.42632 10.6538L2.97382 11.1063L1.73882 9.87126L0.601318 11.0088C0.541318 11.07 0.507568 11.15 0.507568 11.235C0.507568 11.3213 0.541318 11.4025 0.601318 11.4613L4.51507 15.3763C4.57757 15.4388 4.66007 15.47 4.74132 15.47C4.82382 15.47 4.90507 15.4388 4.96757 15.3763L15.3988 4.94501C15.4588 4.88501 15.4926 4.80376 15.4926 4.71876C15.4926 4.63376 15.4588 4.55251 15.3988 4.49251Z" fill="#E9E9E9"/>
  </g>
  <defs>
    <clipPath id="clip0_18678_222872">
      <rect width="16" height="16" fill="white"/>
    </clipPath>
  </defs>
</svg>