<svg width="21" height="15" viewBox="0 0 21 15" fill="none" xmlns="http://www.w3.org/2000/svg">
<path d="M10.5 0C2.86364 0 0 7.5 0 7.5C0 7.5 2.86364 15 10.5 15C18.1364 15 21 7.5 21 7.5C21 7.5 18.1364 0 10.5 0ZM10.5 2.8125C13.1355 2.8125 15.2727 4.91156 15.2727 7.5C15.2727 10.0884 13.1355 12.1875 10.5 12.1875C7.8645 12.1875 5.72727 10.0884 5.72727 7.5C5.72727 4.91156 7.8645 2.8125 10.5 2.8125ZM10.5 4.6875C9.74052 4.6875 9.01214 4.98382 8.4751 5.51126C7.93807 6.03871 7.63636 6.75408 7.63636 7.5C7.63636 8.24592 7.93807 8.96129 8.4751 9.48874C9.01214 10.0162 9.74052 10.3125 10.5 10.3125C11.2595 10.3125 11.9879 10.0162 12.5249 9.48874C13.0619 8.96129 13.3636 8.24592 13.3636 7.5C13.3636 6.75408 13.0619 6.03871 12.5249 5.51126C11.9879 4.98382 11.2595 4.6875 10.5 4.6875Z" fill="white"/>
</svg>
