<svg width="18" height="18" viewBox="0 0 18 18" fill="none" xmlns="http://www.w3.org/2000/svg">
<path d="M8.53015 11.8234L7.86295 13.3516C7.60675 13.939 6.79375 13.939 6.53695 13.3516L5.86975 11.8234C5.27575 10.4632 4.20715 9.38076 2.87395 8.78916L1.03795 7.97436C0.454148 7.71516 0.454148 6.86556 1.03795 6.60636L2.81695 5.81676C4.18435 5.20956 5.27215 4.08696 5.85595 2.68116L6.53155 1.05276C6.78235 0.448559 7.61755 0.448559 7.86835 1.05276L8.54395 2.68116C9.12775 4.08756 10.2155 5.21016 11.5829 5.81676L13.3619 6.60636C13.9457 6.86556 13.9457 7.71516 13.3619 7.97436L11.5253 8.78976C10.1927 9.38136 9.12355 10.4638 8.53015 11.8234Z" fill="#141728"/>
<path d="M14.6886 16.6772L14.4852 17.1434C14.3364 17.4848 13.8636 17.4848 13.7148 17.1434L13.5114 16.6772C13.149 15.8462 12.4956 15.1844 11.6808 14.822L11.0544 14.5436C10.7154 14.393 10.7154 13.9004 11.0544 13.7498L11.646 13.487C12.4818 13.1156 13.1466 12.4292 13.503 11.57L13.7118 11.066C13.8576 10.715 14.343 10.715 14.4882 11.066L14.697 11.57C15.0534 12.4292 15.7182 13.1156 16.554 13.487L17.1456 13.7498C17.4846 13.9004 17.4846 14.393 17.1456 14.5436L16.5192 14.822C15.7044 15.1844 15.051 15.8462 14.6886 16.6772Z" fill="#141728"/>
</svg>
