<svg width="22" height="22" viewBox="0 0 22 22" fill="none" xmlns="http://www.w3.org/2000/svg">
<path d="M11.7697 0C11.4521 0 11.1457 0.134511 10.9309 0.366168L4.78261 6.69565V15.3043L10.9309 21.6338C11.1457 21.8674 11.4521 22 11.7697 22C12.3993 22 12.913 21.4862 12.913 20.8567V1.14334C12.913 0.513757 12.3993 0 11.7697 0ZM18.0282 4.02785L17.492 4.8181C19.6124 6.0642 21.0435 8.36583 21.0435 11C21.0435 13.6342 19.6124 15.9358 17.492 17.1819L18.0282 17.9721C20.4027 16.5523 22 13.963 22 11C22 8.03702 20.4027 5.44769 18.0282 4.02785ZM16.4159 6.39861L15.8742 7.19446C17.2398 7.91746 18.1739 9.35037 18.1739 11C18.1739 12.6496 17.2398 14.0825 15.8742 14.8055L16.4159 15.6014C18.0338 14.7009 19.1304 12.9784 19.1304 11C19.1304 9.02157 18.0338 7.29908 16.4159 6.39861ZM1.43478 6.69565C0.644531 6.69565 0 7.34018 0 8.13043V13.8696C0 14.6598 0.644531 15.3043 1.43478 15.3043H3.82609V6.69565H1.43478ZM14.7887 8.79365L14.2301 9.61753C14.8466 9.77819 15.3043 10.3331 15.3043 11C15.3043 11.6669 14.8466 12.2218 14.2301 12.3825L14.7887 13.2064C15.6518 12.8439 16.2609 11.992 16.2609 11C16.2609 10.008 15.6518 9.15421 14.7887 8.79365Z" fill="white"/>
</svg>
