<svg width="15" height="14" viewBox="0 0 15 14" fill="none" xmlns="http://www.w3.org/2000/svg">
<path fill-rule="evenodd" clip-rule="evenodd" d="M0.854391 13.4435C0.382524 13.4435 -9.53674e-07 13.0517 -9.53674e-07 12.5685V8.85616C-9.53674e-07 8.37291 0.382524 7.98116 0.854391 7.98116H4.47927C4.95114 7.98116 5.33366 8.37291 5.33366 8.85616C5.33366 9.33941 4.95114 9.73116 4.47927 9.73116H2.91708L3.87512 10.7123C5.87709 12.7626 9.12291 12.7626 11.1249 10.7123C11.4504 10.3789 11.7223 10.0129 11.9412 9.62505C12.1774 9.20669 12.7 9.06361 13.1085 9.30547C13.517 9.54734 13.6568 10.0826 13.4206 10.5009C13.1277 11.0197 12.765 11.5075 12.3332 11.9497C9.66388 14.6834 5.33612 14.6834 2.66683 11.9497L1.70878 10.9686V12.5685C1.70878 13.0517 1.32626 13.4435 0.854391 13.4435ZM1.89169 4.69395C1.4832 4.45204 1.34355 3.9168 1.57976 3.49846C1.87255 2.97992 2.23515 2.49234 2.66683 2.05025C5.33612 -0.683416 9.66388 -0.683416 12.3332 2.05025L13.2912 3.03141V1.43153C13.2912 0.948286 13.6737 0.556536 14.1456 0.556537C14.6175 0.556537 15 0.948287 15 1.43154L15 5.14385C15 5.62709 14.6175 6.01885 14.1456 6.01885H10.5207C10.0489 6.01885 9.66634 5.62709 9.66634 5.14384C9.66634 4.6606 10.0489 4.26884 10.5207 4.26885H12.0829L11.1249 3.28769C9.12291 1.23744 5.87709 1.23744 3.87512 3.28769C3.5497 3.62096 3.27792 3.98682 3.05902 4.37449C2.82281 4.79283 2.30018 4.93586 1.89169 4.69395Z" fill="#B2B2B9"/>
</svg>
