<svg width="16" height="16" viewBox="0 0 16 16" fill="none" xmlns="http://www.w3.org/2000/svg">
<path fill-rule="evenodd" clip-rule="evenodd" d="M9.69236 2.28571C9.69232 1.75442 9.86671 1.23971 10.1855 0.830078C10.5044 0.420443 10.9477 0.141475 11.4394 0.0411345C11.9311 -0.0592055 12.4403 0.0253519 12.8796 0.280269C13.3189 0.535187 13.6607 0.944538 13.8464 1.43794C14.0321 1.93135 14.05 2.47798 13.897 2.98387C13.744 3.48975 13.4297 3.92327 13.0082 4.2099C12.5866 4.49653 12.0841 4.61836 11.5871 4.55445C11.09 4.49053 10.6295 4.24486 10.2847 3.85967L4.23889 7.42433C4.33125 7.80152 4.33125 8.19751 4.23889 8.5747L10.2847 12.1394C10.646 11.7363 11.1334 11.4868 11.6556 11.4378C12.1778 11.3888 12.699 11.5436 13.1213 11.8732C13.5437 12.2028 13.8382 12.6845 13.9498 13.2281C14.0614 13.7717 13.9823 14.3397 13.7273 14.8259C13.4724 15.312 13.0592 15.6827 12.565 15.8686C12.0709 16.0545 11.5299 16.0428 11.0433 15.8357C10.5568 15.6285 10.1581 15.2402 9.9221 14.7434C9.68608 14.2467 9.6289 13.6756 9.76128 13.1374L3.71551 9.57348C3.41889 9.90487 3.03546 10.1343 2.61472 10.2321C2.19399 10.3299 1.75529 10.2916 1.35528 10.1221C0.955263 9.95269 0.612314 9.65987 0.370724 9.28149C0.129134 8.90311 0 8.45656 0 7.99951C0 7.54247 0.129134 7.09592 0.370724 6.71754C0.612314 6.33916 0.955263 6.04634 1.35528 5.87688C1.75529 5.70743 2.19399 5.66913 2.61472 5.76694C3.03546 5.86474 3.41889 6.09416 3.71551 6.42555L9.76128 2.8609C9.71539 2.67305 9.69223 2.47977 9.69236 2.28571Z" fill="#B2B2B9"/>
</svg>
