<svg width="9" height="11" viewBox="0 0 9 11" fill="none" xmlns="http://www.w3.org/2000/svg">
<path d="M4.15794 10.0795C3.28061 10.0795 2.52927 9.87879 1.90394 9.47745C1.28794 9.07612 0.816608 8.50212 0.489941 7.75545C0.163275 6.99945 -5.85541e-05 6.09412 -5.85541e-05 5.03945C-5.85541e-05 3.98479 0.163275 3.08412 0.489941 2.33745C0.816608 1.58145 1.28794 1.00279 1.90394 0.601452C2.52927 0.200119 3.28061 -0.000547409 4.15794 -0.000547409C5.03528 -0.000547409 5.78661 0.200119 6.41194 0.601452C7.03727 1.00279 7.51327 1.58145 7.83994 2.33745C8.16661 3.08412 8.32994 3.98479 8.32994 5.03945C8.32994 6.09412 8.16661 6.99945 7.83994 7.75545C7.51327 8.50212 7.03727 9.07612 6.41194 9.47745C5.78661 9.87879 5.03528 10.0795 4.15794 10.0795ZM4.15794 8.06345C4.76461 8.06345 5.23127 7.80212 5.55794 7.27945C5.89394 6.75679 6.06194 6.01012 6.06194 5.03945C6.06194 4.04079 5.89394 3.27545 5.55794 2.74345C5.23127 2.20212 4.76461 1.93145 4.15794 1.93145C3.55127 1.93145 3.07994 2.20212 2.74394 2.74345C2.41727 3.27545 2.25394 4.04079 2.25394 5.03945C2.25394 6.01012 2.41727 6.75679 2.74394 7.27945C3.07994 7.80212 3.55127 8.06345 4.15794 8.06345Z" fill="#B2B2B9" fill-opacity="0.5"/>
</svg>
