<svg width="16" height="16" viewBox="0 0 16 16" fill="none" xmlns="http://www.w3.org/2000/svg">
<path fill-rule="evenodd" clip-rule="evenodd" d="M4.5 1.938C4.58529 1.88866 4.67946 1.8566 4.77714 1.84367C4.87481 1.83074 4.97408 1.83718 5.06927 1.86262C5.16446 1.88807 5.2537 1.93202 5.3319 1.99197C5.41009 2.05192 5.47571 2.12668 5.525 2.212L6.177 3.343C6.528 3.205 6.887 3.11 7.25 3.055V1.75C7.25 1.55109 7.32902 1.36032 7.46967 1.21967C7.61032 1.07902 7.80109 1 8 1C8.19891 1 8.38968 1.07902 8.53033 1.21967C8.67098 1.36032 8.75 1.55109 8.75 1.75V3.056C9.11686 3.11216 9.47639 3.20875 9.822 3.344L10.476 2.212C10.5233 2.12314 10.588 2.04471 10.6663 1.9814C10.7446 1.91808 10.8348 1.87118 10.9316 1.84347C11.0284 1.81577 11.1298 1.80784 11.2297 1.82015C11.3296 1.83246 11.426 1.86476 11.5132 1.91513C11.6004 1.9655 11.6765 2.0329 11.7371 2.11332C11.7977 2.19375 11.8414 2.28554 11.8657 2.38323C11.8901 2.48092 11.8945 2.58251 11.8787 2.68195C11.863 2.78138 11.8274 2.87662 11.774 2.962L11.122 4.092C11.408 4.322 11.672 4.584 11.907 4.878L13.037 4.225C13.1224 4.17575 13.2166 4.1438 13.3143 4.13097C13.412 4.11814 13.5113 4.12468 13.6065 4.15022C13.7016 4.17575 13.7909 4.21978 13.869 4.2798C13.9472 4.33982 14.0128 4.41464 14.062 4.5C14.1112 4.58536 14.1432 4.67958 14.156 4.77729C14.1689 4.875 14.1623 4.97427 14.1368 5.06945C14.1112 5.16463 14.0672 5.25385 14.0072 5.33202C13.9472 5.41018 13.8724 5.47575 13.787 5.525L12.657 6.177C12.794 6.528 12.89 6.887 12.945 7.25H14.25C14.4489 7.25 14.6397 7.32902 14.7803 7.46967C14.921 7.61032 15 7.80109 15 8C15 8.19891 14.921 8.38968 14.7803 8.53033C14.6397 8.67098 14.4489 8.75 14.25 8.75H12.944C12.8878 9.11686 12.7912 9.47638 12.656 9.822L13.788 10.476C13.9529 10.579 14.0713 10.7421 14.1183 10.9307C14.1653 11.1194 14.1372 11.3189 14.0399 11.4872C13.9426 11.6556 13.7838 11.7796 13.5969 11.8331C13.41 11.8866 13.2096 11.8654 13.038 11.774L11.908 11.122C11.678 11.408 11.416 11.672 11.122 11.907L11.774 13.037C11.8654 13.2086 11.8866 13.409 11.8331 13.5959C11.7796 13.7828 11.6556 13.9416 11.4872 14.0389C11.3189 14.1362 11.1194 14.1643 10.9307 14.1173C10.7421 14.0703 10.579 13.9519 10.476 13.787L9.823 12.657C9.472 12.794 9.113 12.89 8.75 12.945V14.25C8.75 14.4489 8.67098 14.6397 8.53033 14.7803C8.38968 14.921 8.19891 15 8 15C7.80109 15 7.61032 14.921 7.46967 14.7803C7.32902 14.6397 7.25 14.4489 7.25 14.25V12.944C6.88314 12.8878 6.52362 12.7912 6.178 12.656L5.525 13.788C5.42554 13.9604 5.26168 14.0862 5.06945 14.1378C4.87723 14.1894 4.67239 14.1625 4.5 14.063C4.32761 13.9635 4.20179 13.7997 4.15022 13.6075C4.09864 13.4152 4.12554 13.2104 4.225 13.038L4.878 11.908C4.58776 11.6762 4.32445 11.4125 4.093 11.122L2.963 11.774C2.7914 11.8654 2.59101 11.8866 2.4041 11.8331C2.21719 11.7796 2.05836 11.6556 1.96109 11.4872C1.86382 11.3189 1.83572 11.1194 1.88272 10.9307C1.92972 10.7421 2.04813 10.579 2.213 10.476L3.343 9.823C3.20716 9.47723 3.11056 9.11731 3.055 8.75H1.75C1.55109 8.75 1.36032 8.67098 1.21967 8.53033C1.07902 8.38968 1 8.19891 1 8C1 7.80109 1.07902 7.61032 1.21967 7.46967C1.36032 7.32902 1.55109 7.25 1.75 7.25H3.056C3.11216 6.88314 3.20875 6.52361 3.344 6.178L2.212 5.525C2.03961 5.42554 1.91379 5.26168 1.86222 5.06945C1.81064 4.87723 1.83754 4.67239 1.937 4.5C2.03646 4.32761 2.20032 4.20179 2.39255 4.15022C2.58477 4.09864 2.78961 4.12554 2.962 4.225L4.092 4.878C4.322 4.592 4.584 4.328 4.878 4.093L4.225 2.963C4.17554 2.87761 4.14342 2.7833 4.13048 2.68548C4.11753 2.58766 4.12402 2.48824 4.14957 2.39293C4.17511 2.29762 4.21922 2.20828 4.27935 2.13004C4.33949 2.05181 4.41447 1.98721 4.5 1.938ZM5.64 5.414C5.28052 5.74206 4.99339 6.14147 4.79693 6.58673C4.60047 7.032 4.499 7.51332 4.499 8C4.499 8.48668 4.60047 8.968 4.79693 9.41327C4.99339 9.85853 5.28052 10.2579 5.64 10.586L7.135 8L5.64 5.414ZM8.434 8.75L6.94 11.336C7.40376 11.4839 7.89332 11.5331 8.37725 11.4806C8.86117 11.4281 9.32877 11.2749 9.75 11.031C10.1719 10.7882 10.5383 10.4598 10.8257 10.067C11.1132 9.67419 11.3153 9.22557 11.419 8.75H8.433H8.434ZM11.421 7.25H8.433L6.94 4.664C7.40391 4.51656 7.89347 4.46749 8.37741 4.51991C8.86135 4.57233 9.32905 4.72509 9.75063 4.96844C10.1722 5.21179 10.5384 5.54038 10.8258 5.93323C11.1133 6.32607 11.3166 6.77454 11.421 7.25Z" fill="white" fill-opacity="0.6"/>
</svg>
