<svg width="16" height="16" viewBox="0 0 16 16" fill="none" xmlns="http://www.w3.org/2000/svg">
<path fill-rule="evenodd" clip-rule="evenodd" d="M0 2.66667C0 1.95942 0.280951 1.28115 0.781048 0.781048C1.28115 0.280951 1.95942 0 2.66667 0H13.3333C14.0406 0 14.7189 0.280951 15.219 0.781048C15.719 1.28115 16 1.95942 16 2.66667V13.3333C16 14.0406 15.719 14.7189 15.219 15.219C14.7189 15.719 14.0406 16 13.3333 16H2.66667C1.95942 16 1.28115 15.719 0.781048 15.219C0.280951 14.7189 0 14.0406 0 13.3333V2.66667ZM6.37333 5.29333C6.5606 5.48083 6.66579 5.735 6.66579 6C6.66579 6.265 6.5606 6.51917 6.37333 6.70667L5.08 8L6.37333 9.29333C6.47158 9.38488 6.55039 9.49528 6.60504 9.61795C6.6597 9.74062 6.68909 9.87303 6.69146 10.0073C6.69382 10.1416 6.66913 10.2749 6.61883 10.3995C6.56854 10.524 6.49368 10.6371 6.39872 10.7321C6.30376 10.827 6.19065 10.9019 6.06613 10.9522C5.94161 11.0025 5.80824 11.0272 5.67397 11.0248C5.5397 11.0224 5.40728 10.993 5.28462 10.9384C5.16195 10.8837 5.05155 10.8049 4.96 10.7067L2.96 8.70667C2.77273 8.51917 2.66755 8.265 2.66755 8C2.66755 7.735 2.77273 7.48083 2.96 7.29333L4.96 5.29333C5.1475 5.10607 5.40167 5.00088 5.66667 5.00088C5.93167 5.00088 6.18583 5.10607 6.37333 5.29333ZM9.62667 6.70667C9.45003 6.5171 9.35386 6.26637 9.35843 6.0073C9.363 5.74824 9.46795 5.50105 9.65117 5.31784C9.83439 5.13462 10.0816 5.02967 10.3406 5.0251C10.5997 5.02053 10.8504 5.11669 11.04 5.29333L13.04 7.29333C13.2273 7.48083 13.3325 7.735 13.3325 8C13.3325 8.265 13.2273 8.51917 13.04 8.70667L11.04 10.7067C10.9485 10.8049 10.8381 10.8837 10.7154 10.9384C10.5927 10.993 10.4603 11.0224 10.326 11.0248C10.1918 11.0272 10.0584 11.0025 9.93387 10.9522C9.80935 10.9019 9.69624 10.827 9.60128 10.7321C9.50632 10.6371 9.43146 10.524 9.38117 10.3995C9.33088 10.2749 9.30618 10.1416 9.30854 10.0073C9.31091 9.87303 9.3403 9.74062 9.39496 9.61795C9.44961 9.49528 9.52842 9.38488 9.62667 9.29333L10.92 8L9.62667 6.70667Z" fill="white"/>
</svg>
