<svg width="10" height="13" viewBox="0 0 10 13" fill="none" xmlns="http://www.w3.org/2000/svg">
<path d="M3.73846 0C3.49386 0 3.24377 0.0929445 3.06671 0.284766C2.88964 0.476587 2.80385 0.74751 2.80385 1.0125V1.51875H0V2.53125H0.467308V10.6312C0.467308 11.4638 1.10073 12.15 1.86923 12.15H7.47692C8.24543 12.15 8.87885 11.4638 8.87885 10.6312V2.53125H9.34615V1.51875H6.54231V1.0125C6.54231 0.74751 6.45651 0.476587 6.27945 0.284766C6.10238 0.0929445 5.8523 0 5.60769 0H3.73846ZM3.73846 1.0125H5.60769V1.51875H3.73846V1.0125ZM1.40192 2.53125H7.94423V10.6312C7.94423 10.9121 7.73613 11.1375 7.47692 11.1375H1.86923C1.61002 11.1375 1.40192 10.9121 1.40192 10.6312V2.53125ZM2.33654 4.05V9.61875H3.27115V4.05H2.33654ZM4.20577 4.05V9.61875H5.14038V4.05H4.20577ZM6.075 4.05V9.61875H7.00962V4.05H6.075Z" fill="#AEAEAE"/>
</svg>
