<svg width="11" height="11" viewBox="0 0 11 11" fill="none" xmlns="http://www.w3.org/2000/svg">
<path d="M5.14146 0C3.01731 0 1.19012 1.289 0.403981 3.12835C0.396722 3.14169 0.390148 3.15539 0.384286 3.1694C0.383094 3.17228 0.382408 3.17527 0.381222 3.17814C0.356318 3.23819 0.33517 3.29999 0.312506 3.36116C0.293794 3.41174 0.272683 3.46193 0.255607 3.51273C0.253049 3.52067 0.250713 3.52868 0.248604 3.53675C0.243169 3.55326 0.236368 3.56909 0.231097 3.58567C0.211943 3.64202 0.204244 3.7016 0.208451 3.76095C0.212658 3.8203 0.228685 3.87822 0.255596 3.93131C0.282506 3.9844 0.319758 4.0316 0.365172 4.07014C0.410585 4.10869 0.463248 4.1378 0.520076 4.15579C0.576904 4.17377 0.636756 4.18026 0.696129 4.17488C0.755501 4.16949 0.813201 4.15234 0.86585 4.12443C0.918499 4.09652 0.96504 4.05841 1.00275 4.01232C1.04046 3.96624 1.06857 3.91311 1.08545 3.85605C1.10189 3.80436 1.12227 3.75442 1.1406 3.70361C1.16376 3.63972 1.18645 3.57585 1.21282 3.51229C1.21287 3.51216 1.21277 3.51198 1.21282 3.51185C1.85271 1.9761 3.36683 0.894562 5.14146 0.894562C7.42074 0.894562 9.27268 2.67366 9.38961 4.91878C9.39577 5.03729 9.44884 5.14851 9.53716 5.22797C9.62548 5.30742 9.74181 5.34861 9.86056 5.34247C9.97931 5.33633 10.0908 5.28337 10.1704 5.19523C10.25 5.10709 10.2913 4.99099 10.2851 4.87248C10.1439 2.16084 7.88995 0 5.14146 0ZM0.361088 4.97818L0.0590872 5.19353L0 5.44294L0.00700293 5.56437L0.00787829 5.5766L0.00919134 5.58839L0.0372031 5.83868L0.0385161 5.85047L0.0407045 5.86226L0.0818467 6.10949L0.0840351 6.12128L0.0866612 6.13308L0.0967279 6.17807L0.319509 6.47378L0.689788 6.50042L0.953274 6.23966L0.971656 5.98369L0.963778 5.94788L0.926137 5.72161L0.901627 5.50234L0.894624 5.39096L0.721739 5.06336L0.361088 4.97818ZM1.27059 7.27923L0.916071 7.38843L0.76507 7.72652L0.840789 7.97156L0.933578 8.11046L0.940581 8.12051L0.947584 8.13012L1.09858 8.33104L1.10559 8.34065L1.11347 8.34983L1.27541 8.54289L1.6098 8.7032L1.95075 8.55731L2.06455 8.20481L1.96301 7.96938L1.80851 7.78505L1.67239 7.60378L1.58573 7.47448L1.27059 7.27923ZM8.42671 8.048C8.3104 8.05043 8.1996 8.09789 8.11771 8.18035C8.0944 8.20322 8.06991 8.22666 8.04418 8.25067C7.99944 8.29031 7.96311 8.33849 7.93732 8.39236C7.91153 8.44623 7.89681 8.50471 7.89403 8.56435C7.89124 8.62398 7.90044 8.68357 7.9211 8.73961C7.94175 8.79564 7.97343 8.84698 8.01428 8.8906C8.05512 8.93422 8.10431 8.96924 8.15893 8.9936C8.21355 9.01795 8.2725 9.03115 8.33231 9.03241C8.39212 9.03367 8.45158 9.02296 8.50718 9.00093C8.56278 8.9789 8.6134 8.94598 8.65606 8.90412C8.68545 8.87669 8.71575 8.84841 8.74622 8.81851C8.81151 8.7562 8.8564 8.67567 8.87503 8.58745C8.89365 8.49924 8.88514 8.40747 8.8506 8.32417C8.81605 8.24087 8.7571 8.16993 8.68146 8.12065C8.60582 8.07137 8.51702 8.04604 8.42671 8.048ZM3.01651 8.88971C2.9159 8.89173 2.81889 8.92748 2.74111 8.99121C2.66333 9.05493 2.6093 9.14293 2.58772 9.24102C2.56615 9.33912 2.57827 9.44161 2.62215 9.53199C2.66603 9.62237 2.73911 9.69538 2.82962 9.73928C2.92883 9.78912 3.03052 9.83466 3.13337 9.87818C3.13352 9.87833 3.13366 9.87847 3.13381 9.87862C3.14314 9.88317 3.15263 9.88739 3.16226 9.89129C3.16304 9.89161 3.16366 9.89227 3.16445 9.8926C3.16822 9.8941 3.17202 9.89556 3.17583 9.89696C3.2107 9.91146 3.24526 9.92511 3.27868 9.93802C3.33357 9.95925 3.39212 9.96947 3.45097 9.96812C3.50982 9.96676 3.56783 9.95385 3.62168 9.93012C3.67553 9.9064 3.72417 9.87232 3.76482 9.82983C3.80548 9.78734 3.83735 9.73728 3.85861 9.6825C3.87988 9.62772 3.89013 9.56929 3.88877 9.51056C3.88741 9.45183 3.87447 9.39394 3.8507 9.3402C3.82692 9.28645 3.79277 9.23791 3.7502 9.19734C3.70762 9.15677 3.65746 9.12496 3.60257 9.10374C3.57096 9.09153 3.54041 9.0794 3.51109 9.06705C3.50877 9.06616 3.50643 9.06528 3.50409 9.06443C3.4108 9.02554 3.32034 8.98439 3.23273 8.94038C3.16606 8.90565 3.0917 8.88823 3.01651 8.88971ZM7.08084 9.01813L6.82523 9.04433L6.72325 9.0867L6.72019 9.08801L6.65672 9.11073L6.39105 9.36888L6.41162 9.73884L6.70443 9.96641L6.96091 9.952L7.04451 9.92186L7.05457 9.91837L7.0642 9.914L7.16969 9.87076L7.42223 9.5995L7.38415 9.23128L7.08084 9.01813ZM5.02854 9.38853L4.68846 9.53704L4.57729 9.89041L4.77074 10.2062L5.01585 10.2831L5.21849 10.2857L5.55857 10.1372L5.66975 9.78427L5.47629 9.46803L5.23119 9.39115L5.02854 9.38853Z" fill="#B6267C"/>
</svg>
