<svg width="24" height="24" viewBox="0 0 24 24" fill="none" xmlns="http://www.w3.org/2000/svg">
<path d="M17.4882 6.51311C17.3257 6.35059 17.1327 6.22167 16.9204 6.13372C16.7081 6.04576 16.4805 6.00049 16.2507 6.00049C16.0208 6.00049 15.7933 6.04576 15.5809 6.13372C15.3686 6.22167 15.1757 6.35059 15.0132 6.51311L10.7502 10.7741C10.4949 11.0294 10.2924 11.3325 10.1542 11.6661L9.30617 13.7131C9.24937 13.8502 9.23449 14.001 9.26342 14.1465C9.29235 14.292 9.36379 14.4257 9.46869 14.5306C9.5736 14.6355 9.70726 14.7069 9.85278 14.7359C9.99829 14.7648 10.1491 14.7499 10.2862 14.6931L12.3332 13.8451C12.6667 13.7069 12.9698 13.5044 13.2252 13.2491L17.4862 8.98711C17.8141 8.65896 17.9983 8.21403 17.9983 7.75011C17.9983 7.2862 17.8141 6.84127 17.4862 6.51311H17.4882Z" fill="#FAFAFA"/>
<path d="M8.75 7.5C8.06 7.5 7.5 8.06 7.5 8.75V15.25C7.5 15.94 8.06 16.5 8.75 16.5H15.25C15.94 16.5 16.5 15.94 16.5 15.25V13C16.5 12.8011 16.579 12.6103 16.7197 12.4697C16.8603 12.329 17.0511 12.25 17.25 12.25C17.4489 12.25 17.6397 12.329 17.7803 12.4697C17.921 12.6103 18 12.8011 18 13V15.25C18 15.9793 17.7103 16.6788 17.1945 17.1945C16.6788 17.7103 15.9793 18 15.25 18H8.75C8.02065 18 7.32118 17.7103 6.80546 17.1945C6.28973 16.6788 6 15.9793 6 15.25V8.75C6 8.02065 6.28973 7.32118 6.80546 6.80546C7.32118 6.28973 8.02065 6 8.75 6H11C11.1989 6 11.3897 6.07902 11.5303 6.21967C11.671 6.36032 11.75 6.55109 11.75 6.75C11.75 6.94891 11.671 7.13968 11.5303 7.28033C11.3897 7.42098 11.1989 7.5 11 7.5H8.75Z" fill="#FAFAFA"/>
</svg>
