<svg width="20" height="20" viewBox="0 0 20 20" fill="none" xmlns="http://www.w3.org/2000/svg">
<path fill-rule="evenodd" clip-rule="evenodd" d="M15.9889 3.012C16.5414 3.07077 17.0527 3.33191 17.4241 3.74512C17.7956 4.15832 18.0011 4.69436 18.0009 5.25V11.75C18.0009 12.3467 17.7639 12.919 17.3419 13.341C16.9199 13.7629 16.3476 14 15.7509 14H13.5009V7C13.5009 6.33696 13.2375 5.70107 12.7687 5.23223C12.2998 4.76339 11.6639 4.5 11.0009 4.5H8.12891C8.27062 4.09953 8.52272 3.74731 8.85609 3.48402C9.18946 3.22072 9.5905 3.05708 10.0129 3.012C10.0717 2.45948 10.3328 1.94825 10.746 1.57677C11.1592 1.20529 11.6953 0.999846 12.2509 1H13.7509C14.3065 0.999846 14.8426 1.20529 15.2558 1.57677C15.669 1.94825 15.9301 2.45948 15.9889 3.012ZM11.5009 3.25C11.5009 3.05109 11.5799 2.86032 11.7206 2.71967C11.8612 2.57902 12.052 2.5 12.2509 2.5H13.7509C13.9498 2.5 14.1406 2.57902 14.2812 2.71967C14.4219 2.86032 14.5009 3.05109 14.5009 3.25V3.5H11.5009V3.25Z" fill="#FAFAFA"/>
<path fill-rule="evenodd" clip-rule="evenodd" d="M2 7C2 6.73478 2.10536 6.48043 2.29289 6.29289C2.48043 6.10536 2.73478 6 3 6H11C11.2652 6 11.5196 6.10536 11.7071 6.29289C11.8946 6.48043 12 6.73478 12 7V17C12 17.2652 11.8946 17.5196 11.7071 17.7071C11.5196 17.8946 11.2652 18 11 18H3C2.73478 18 2.48043 17.8946 2.29289 17.7071C2.10536 17.5196 2 17.2652 2 17V7ZM4 10.25C4 10.0511 4.07902 9.86032 4.21967 9.71967C4.36032 9.57902 4.55109 9.5 4.75 9.5H9.25C9.44891 9.5 9.63968 9.57902 9.78033 9.71967C9.92098 9.86032 10 10.0511 10 10.25C10 10.4489 9.92098 10.6397 9.78033 10.7803C9.63968 10.921 9.44891 11 9.25 11H4.75C4.55109 11 4.36032 10.921 4.21967 10.7803C4.07902 10.6397 4 10.4489 4 10.25ZM4 13.75C4 13.5511 4.07902 13.3603 4.21967 13.2197C4.36032 13.079 4.55109 13 4.75 13H9.25C9.44891 13 9.63968 13.079 9.78033 13.2197C9.92098 13.3603 10 13.5511 10 13.75C10 13.9489 9.92098 14.1397 9.78033 14.2803C9.63968 14.421 9.44891 14.5 9.25 14.5H4.75C4.55109 14.5 4.36032 14.421 4.21967 14.2803C4.07902 14.1397 4 13.9489 4 13.75Z" fill="#FAFAFA" />
</svg>
