<svg width="22" height="16" viewBox="0 0 22 16" fill="none" xmlns="http://www.w3.org/2000/svg">
<path d="M18.289 1.37493C16.9093 0.743259 15.4527 0.295131 13.9565 0.0419922C13.7518 0.407994 13.5666 0.78456 13.4016 1.17012C11.8078 0.92996 10.1871 0.92996 8.59341 1.17012C8.42833 0.7846 8.24308 0.408038 8.03843 0.0419922C6.54129 0.297269 5.08378 0.746461 3.70267 1.37823C0.960814 5.43485 0.21754 9.39072 0.589177 13.2904C2.19488 14.4768 3.99211 15.379 5.90276 15.958C6.33298 15.3793 6.71367 14.7655 7.04079 14.1229C6.41947 13.8908 5.81978 13.6045 5.24868 13.2673C5.39898 13.1583 5.54599 13.046 5.68803 12.937C7.34982 13.7185 9.16358 14.1237 11 14.1237C12.8363 14.1237 14.6501 13.7185 16.3119 12.937C16.4556 13.0542 16.6026 13.1666 16.7512 13.2673C16.179 13.6051 15.5783 13.8919 14.9558 14.1245C15.2825 14.7668 15.6633 15.3802 16.0939 15.958C18.0061 15.3814 19.8048 14.4795 21.4107 13.2921C21.8468 8.76968 20.6658 4.85015 18.289 1.37493ZM7.51153 10.8921C6.4759 10.8921 5.62031 9.95231 5.62031 8.7961C5.62031 7.6399 6.44617 6.69181 7.50823 6.69181C8.57028 6.69181 9.41927 7.6399 9.4011 8.7961C9.38293 9.95231 8.56698 10.8921 7.51153 10.8921ZM14.4884 10.8921C13.4511 10.8921 12.5988 9.95231 12.5988 8.7961C12.5988 7.6399 13.4247 6.69181 14.4884 6.69181C15.5521 6.69181 16.3945 7.6399 16.3763 8.7961C16.3581 9.95231 15.5438 10.8921 14.4884 10.8921Z" fill="#5865F2"/>
</svg>
