<svg width="40" height="40" viewBox="0 0 40 40" fill="none" xmlns="http://www.w3.org/2000/svg">
<mask id="path-1-inside-1_3131_10565" fill="white">
<path d="M0 8C0 3.58172 3.58172 0 8 0H32C36.4183 0 40 3.58172 40 8V32C40 36.4183 36.4183 40 32 40H8.00001C3.58173 40 0 36.4183 0 32V8Z"/>
</mask>
<path d="M0 8C0 3.58172 3.58172 0 8 0H32C36.4183 0 40 3.58172 40 8V32C40 36.4183 36.4183 40 32 40H8.00001C3.58173 40 0 36.4183 0 32V8Z" fill="#3F3F46"/>
<path d="M0 8C0 3.02944 4.02944 -1 9 -1H31C35.9706 -1 40 3.02944 40 8C40 4.13401 36.4183 1 32 1H8C3.58172 1 0 4.13401 0 8ZM40 40H0H40ZM0 40V0V40ZM40 0V40V0Z" fill="#52525B" mask="url(#path-1-inside-1_3131_10565)"/>
<path d="M28.3303 12.4285C26.7535 11.7066 25.0889 11.1945 23.3789 10.9052C23.1449 11.3234 22.9332 11.7538 22.7447 12.1944C20.9233 11.92 19.071 11.92 17.2496 12.1944C17.061 11.7538 16.8493 11.3235 16.6154 10.9052C14.9043 11.1969 13.2386 11.7103 11.6602 12.4323C8.52665 17.0684 7.67719 21.5894 8.10192 26.0463C9.937 27.4021 11.991 28.4332 14.1746 29.0949C14.6663 28.4336 15.1014 27.732 15.4752 26.9976C14.7651 26.7324 14.0798 26.4052 13.4271 26.0198C13.5988 25.8952 13.7669 25.7669 13.9292 25.6423C15.8284 26.5354 17.9013 26.9985 20 26.9985C22.0987 26.9985 24.1716 26.5354 26.0708 25.6423C26.235 25.7763 26.403 25.9047 26.5729 26.0198C25.9189 26.4059 25.2323 26.7337 24.521 26.9995C24.8944 27.7336 25.3295 28.4345 25.8216 29.0949C28.0071 28.4359 30.0626 27.4052 31.898 26.0481C32.3964 20.8797 31.0467 16.4002 28.3303 12.4285ZM16.0132 23.3053C14.8296 23.3053 13.8518 22.2312 13.8518 20.9099C13.8518 19.5885 14.7956 18.505 16.0094 18.505C17.2232 18.505 18.1935 19.5885 18.1727 20.9099C18.1519 22.2312 17.2194 23.3053 16.0132 23.3053ZM23.9868 23.3053C22.8013 23.3053 21.8273 22.2312 21.8273 20.9099C21.8273 19.5885 22.7711 18.505 23.9868 18.505C25.2024 18.505 26.1652 19.5885 26.1444 20.9099C26.1236 22.2312 25.193 23.3053 23.9868 23.3053Z" fill="#A1A1AA"/>
</svg>
