<svg width="104" height="64" viewBox="0 0 104 64" fill="none" xmlns="http://www.w3.org/2000/svg">
<path d="M81.7773 0H21.7863C9.7545 0 0 9.84068 0 21.9788V42.0212C0 54.1593 9.7545 64 21.7863 64H81.7773C93.8091 64 103.564 54.1593 103.564 42.0212V21.9788C103.564 9.84068 93.8091 0 81.7773 0ZM69.1328 21.0653C69.1328 18.4944 71.1986 16.4103 73.7471 16.4103H75.3629C77.9113 16.4103 79.9771 18.4944 79.9771 21.0653V22.6954C79.9771 25.2663 77.9113 27.3504 75.3629 27.3504H73.7471C71.1986 27.3504 69.1328 25.2663 69.1328 22.6954V21.0653ZM42.8352 32C42.8352 33.28 42.3201 34.4451 41.4851 35.2875C40.6501 36.1299 39.4952 36.6496 38.2264 36.6496C36.9576 36.6496 35.8027 37.1692 34.9676 38.0116C34.1326 38.854 33.6175 40.0191 33.6175 41.2991C33.6175 43.8646 31.5517 45.9487 29.0087 45.9487H27.382C26.1132 45.9487 24.9583 45.4291 24.1233 44.5867C23.2883 43.7443 22.7732 42.5791 22.7732 41.2991C22.7732 40.0191 22.258 38.854 21.423 38.0116C20.588 37.1692 19.4331 36.6496 18.1643 36.6496C15.6213 36.6496 13.5554 34.5655 13.5554 32V30.359C13.5554 29.079 14.0706 27.9138 14.9056 27.0715C15.7406 26.2291 16.8955 25.7094 18.1643 25.7094C19.4331 25.7094 20.588 25.1897 21.423 24.3474C22.258 23.505 22.7732 22.3398 22.7732 21.0598C22.7732 18.4944 24.839 16.4103 27.382 16.4103H29.0087C30.2775 16.4103 31.4324 16.9299 32.2674 17.7723C33.1024 18.6147 33.6175 19.7798 33.6175 21.0598C33.6175 23.6253 35.6834 25.7094 38.2264 25.7094C40.7694 25.7094 42.8352 27.7935 42.8352 30.359V32ZM68.8617 31.9945C68.8617 34.5655 66.7958 36.6496 64.2474 36.6496H62.6316C60.0832 36.6496 58.0173 34.5655 58.0173 31.9945V30.3644C58.0173 27.7935 60.0832 25.7094 62.6316 25.7094H64.2474C66.7958 25.7094 68.8617 27.7935 68.8617 30.3644V31.9945ZM79.9771 41.2937C79.9771 43.8646 77.9113 45.9487 75.3629 45.9487H73.7471C71.1986 45.9487 69.1328 43.8646 69.1328 41.2937V39.6636C69.1328 37.0927 71.1986 35.0085 73.7471 35.0085H75.3629C77.9113 35.0085 79.9771 37.0927 79.9771 39.6636V41.2937ZM90.5504 31.9945C90.5504 34.5655 88.4846 36.6496 85.9361 36.6496H84.3203C81.7719 36.6496 79.706 34.5655 79.706 31.9945V30.3644C79.706 27.7935 81.7719 25.7094 84.3203 25.7094H85.9361C88.4846 25.7094 90.5504 27.7935 90.5504 30.3644V31.9945Z" fill="#3F3F46"/>
</svg>
