<svg width="104" height="20" viewBox="0 0 104 20" fill="none" xmlns="http://www.w3.org/2000/svg">
<path d="M0 0V19.6922H14.1537V15.3845H5.34611V11.9999H13.4614V7.69225H5.34611V4.30766H14.1922V0H0Z" fill="url(#paint0_linear_4855_22899)"/>
<path fill-rule="evenodd" clip-rule="evenodd" d="M16.8436 19.6922V0H25.3436C26.8051 0 28.0839 0.266024 29.1801 0.798071C30.2762 1.33012 31.1288 2.09614 31.7377 3.09613C32.3467 4.09612 32.6512 5.29483 32.6512 6.69226C32.6512 8.1025 32.3371 9.2916 31.7089 10.2595C31.1285 11.163 30.3275 11.8599 29.3059 12.3501L33.305 19.6922H27.4974L24.04 13.1922H22.1897V19.6922H16.8436ZM24.0743 9.03839H22.1897V4.2692H24.0743C24.7025 4.2692 25.2378 4.35574 25.6801 4.52881C26.1288 4.69548 26.4718 4.9583 26.7089 5.31727C26.9525 5.66983 27.0743 6.12816 27.0743 6.69226C27.0743 7.24995 26.9525 7.70187 26.7089 8.04802C26.4718 8.39417 26.1288 8.64737 25.6801 8.80763C25.2378 8.96147 24.7025 9.03839 24.0743 9.03839Z" fill="url(#paint1_linear_4855_22899)"/>
<path d="M34.3913 0V4.30766H40.3143V19.6922H45.5835V4.30766H51.5065V0H34.3913Z" fill="url(#paint2_linear_4855_22899)"/>
<path d="M53.5188 19.6922V0H58.8649V7.69225H65.9418V0H71.2879V13.5922C71.2042 13.6643 71.1221 13.7395 71.0418 13.8179L71.0321 13.8275C70.0824 14.7655 69.5757 15.9674 69.5825 17.3079C69.5782 18.1664 69.7787 18.9729 70.1736 19.6922H65.9418V11.9999H58.8649V19.6922H53.5188Z" fill="url(#paint3_linear_4855_22899)"/>
<path fill-rule="evenodd" clip-rule="evenodd" d="M78.8481 19.6922H81.3543L82.5192 15.923H89.1667L90.3316 19.6922H96.2378L89.5835 0H82.1024L77.5564 13.4533C77.6948 13.5625 77.8287 13.6795 77.958 13.8038C78.9269 14.7294 79.4679 15.9288 79.4798 17.2879L79.48 17.3123L79.4797 17.3366C79.469 18.1671 79.261 18.9658 78.8481 19.6922ZM87.9305 11.923L85.9217 5.42304H85.7642L83.7554 11.923H87.9305Z" fill="url(#paint4_linear_4855_22899)"/>
<path d="M76.751 15.8367C76.6492 15.6956 76.5311 15.5609 76.3966 15.4327C75.8581 14.9135 75.2363 14.6539 74.5312 14.6539C73.7876 14.6539 73.1498 14.9135 72.6178 15.4327C72.0921 15.952 71.8325 16.577 71.8389 17.3077C71.8325 18.0577 72.0921 18.6955 72.6178 19.2212C73.1498 19.7404 73.7876 20 74.5312 20C74.9725 20 75.3832 19.8974 75.7634 19.6922C75.7919 19.6768 75.8203 19.6608 75.8485 19.6442C76.2523 19.4006 76.5793 19.0769 76.8293 18.6731C77.0857 18.2628 77.2171 17.8077 77.2235 17.3077C77.2187 16.7574 77.0611 16.2671 76.751 15.8367Z" fill="url(#paint5_linear_4855_22899)"/>
<path d="M103.654 19.6922V0H98.1806V19.6922H103.654Z" fill="url(#paint6_linear_4855_22899)"/>
<defs>
<linearGradient id="paint0_linear_4855_22899" x1="0" y1="19.2661" x2="81.8261" y2="19.2661" gradientUnits="userSpaceOnUse">
<stop stop-color="#8508FB"/>
<stop offset="1" stop-color="#CA35A1"/>
</linearGradient>
<linearGradient id="paint1_linear_4855_22899" x1="0" y1="19.2661" x2="81.8261" y2="19.2661" gradientUnits="userSpaceOnUse">
<stop stop-color="#8508FB"/>
<stop offset="1" stop-color="#CA35A1"/>
</linearGradient>
<linearGradient id="paint2_linear_4855_22899" x1="0" y1="19.2661" x2="81.8261" y2="19.2661" gradientUnits="userSpaceOnUse">
<stop stop-color="#8508FB"/>
<stop offset="1" stop-color="#CA35A1"/>
</linearGradient>
<linearGradient id="paint3_linear_4855_22899" x1="0" y1="19.2661" x2="81.8261" y2="19.2661" gradientUnits="userSpaceOnUse">
<stop stop-color="#8508FB"/>
<stop offset="1" stop-color="#CA35A1"/>
</linearGradient>
<linearGradient id="paint4_linear_4855_22899" x1="0" y1="19.2661" x2="81.8261" y2="19.2661" gradientUnits="userSpaceOnUse">
<stop stop-color="#8508FB"/>
<stop offset="1" stop-color="#CA35A1"/>
</linearGradient>
<linearGradient id="paint5_linear_4855_22899" x1="0" y1="19.2661" x2="81.8261" y2="19.2661" gradientUnits="userSpaceOnUse">
<stop stop-color="#8508FB"/>
<stop offset="1" stop-color="#CA35A1"/>
</linearGradient>
<linearGradient id="paint6_linear_4855_22899" x1="0" y1="19.2661" x2="81.8261" y2="19.2661" gradientUnits="userSpaceOnUse">
<stop stop-color="#8508FB"/>
<stop offset="1" stop-color="#CA35A1"/>
</linearGradient>
</defs>
</svg>
