<svg width="32" height="32" viewBox="0 0 32 32" fill="none" xmlns="http://www.w3.org/2000/svg">
<mask id="path-1-inside-1_2535_2658" fill="white">
<path d="M0 8C0 3.58172 3.58172 0 8 0H24C28.4183 0 32 3.58172 32 8V24C32 28.4183 28.4183 32 24 32H8C3.58172 32 0 28.4183 0 24V8Z"/>
</mask>
<path d="M0 8C0 3.58172 3.58172 0 8 0H24C28.4183 0 32 3.58172 32 8V24C32 28.4183 28.4183 32 24 32H8C3.58172 32 0 28.4183 0 24V8Z" fill="#0284C7"/>
<path d="M0 8C0 3.02944 4.02944 -1 9 -1H23C27.9706 -1 32 3.02944 32 8C32 4.13401 28.4183 1 24 1H8C3.58172 1 0 4.13401 0 8ZM32 32H0H32ZM0 32V0V32ZM32 0V32V0Z" fill="#0EA5E9" mask="url(#path-1-inside-1_2535_2658)"/>
<path d="M12 11.7324C12 10.5488 13.3067 9.83146 14.3053 10.4669L21.0114 14.7344C21.9376 15.3238 21.9376 16.676 21.0114 17.2654L14.3053 21.5329C13.3067 22.1684 12 21.451 12 20.2674V11.7324Z" fill="#FAFAFA"/>
</svg>
