<svg width="20" height="20" viewBox="0 0 20 20" fill="none" xmlns="http://www.w3.org/2000/svg">
<path d="M7.45493 16C7.31675 16 7.18721 15.9793 7.0663 15.938C6.94539 15.8973 6.83311 15.8277 6.72948 15.7293L2.27309 11.4966C2.08308 11.3162 1.99223 11.0822 2.00052 10.7948C2.0095 10.508 2.10899 10.2744 2.29899 10.094C2.489 9.9135 2.73082 9.82327 3.02445 9.82327C3.31809 9.82327 3.55991 9.9135 3.74991 10.094L7.45493 13.613L16.2382 5.27069C16.4282 5.09023 16.6745 5 16.9771 5C17.279 5 17.525 5.09023 17.715 5.27069C17.905 5.45116 18 5.68477 18 5.97154C18 6.25897 17.905 6.49292 17.715 6.67338L8.18039 15.7293C8.07676 15.8277 7.96448 15.8973 7.84357 15.938C7.72266 15.9793 7.59312 16 7.45493 16Z" fill="white"/>
</svg>
