<svg width="27" height="23" viewBox="0 0 27 23" fill="none" xmlns="http://www.w3.org/2000/svg">
<path d="M3.68475 0C3.52305 3.94508e-05 3.36504 0.048321 3.23093 0.138667C3.09683 0.229013 2.99273 0.357315 2.93195 0.507158C2.87117 0.657 2.85648 0.821568 2.88976 0.979806C2.92304 1.13804 3.00277 1.28276 3.11875 1.39543L3.8847 2.16138C3.95957 2.23935 4.04924 2.30161 4.14847 2.3445C4.2477 2.38738 4.35449 2.41004 4.46258 2.41114C4.57068 2.41224 4.67791 2.39176 4.77799 2.3509C4.87807 2.31004 4.96899 2.24962 5.04543 2.17318C5.12187 2.09674 5.18228 2.00582 5.22315 1.90574C5.264 1.80566 5.28448 1.69843 5.28339 1.59034C5.28229 1.48224 5.25963 1.37545 5.21674 1.27622C5.17386 1.17699 5.1116 1.08732 5.03363 1.01245L4.26768 0.246501C4.19194 0.168508 4.10133 0.106505 4.0012 0.0641643C3.90107 0.0218231 3.79346 4.33618e-06 3.68475 0ZM22.3141 0.00105794C22.103 0.00720765 21.9027 0.0952338 21.7555 0.246501L20.9895 1.01245C20.9115 1.08732 20.8493 1.17699 20.8064 1.27622C20.7635 1.37545 20.7409 1.48224 20.7397 1.59034C20.7387 1.69843 20.7591 1.80566 20.8 1.90574C20.8409 2.00582 20.9013 2.09675 20.9777 2.17318C21.0541 2.24962 21.1451 2.31004 21.2451 2.3509C21.3452 2.39176 21.4525 2.41224 21.5606 2.41114C21.6686 2.41004 21.7754 2.38739 21.8747 2.3445C21.9739 2.30161 22.0636 2.23935 22.1384 2.16138L22.9044 1.39543C23.0216 1.28127 23.1016 1.13438 23.134 0.97399C23.1663 0.8136 23.1495 0.647177 23.0857 0.496503C23.0219 0.345829 22.9142 0.217922 22.7765 0.129522C22.6388 0.0411221 22.4776 -0.00365251 22.3141 0.00105794ZM13.0116 1.21346C8.83153 1.21509 5.42824 4.60457 5.42824 8.78516C5.42824 10.8782 6.29764 12.8635 7.79697 14.2854C8.36789 14.8265 8.7319 15.5502 8.90252 16.3177L9.15537 17.4518H16.8678L17.1206 16.3177C17.2912 15.5502 17.6558 14.8265 18.2262 14.2854C19.726 12.8635 20.5949 10.8782 20.5949 8.78516C20.5949 4.60457 17.1916 1.21509 13.0116 1.21346ZM0.824072 7.16016C0.716406 7.15863 0.609511 7.17852 0.5096 7.21867C0.409688 7.25882 0.318752 7.31843 0.242077 7.39403C0.165401 7.46962 0.104516 7.55971 0.0629581 7.65904C0.0214006 7.75838 0 7.86498 0 7.97266C0 8.08033 0.0214006 8.18694 0.0629581 8.28627C0.104516 8.3856 0.165401 8.47569 0.242077 8.55128C0.318752 8.62688 0.409688 8.68649 0.5096 8.72664C0.609511 8.76679 0.716406 8.78668 0.824072 8.78516H2.44907C2.55674 8.78668 2.66363 8.76679 2.76354 8.72664C2.86346 8.68649 2.95439 8.62688 3.03107 8.55128C3.10774 8.47569 3.16863 8.3856 3.21019 8.28627C3.25174 8.18694 3.27314 8.08033 3.27314 7.97266C3.27314 7.86498 3.25174 7.75838 3.21019 7.65904C3.16863 7.55971 3.10774 7.46962 3.03107 7.39403C2.95439 7.31843 2.86346 7.25882 2.76354 7.21867C2.66363 7.17852 2.55674 7.15863 2.44907 7.16016H0.824072ZM23.5741 7.16016C23.4664 7.15863 23.3595 7.17852 23.2596 7.21867C23.1597 7.25882 23.0688 7.31843 22.9921 7.39403C22.9154 7.46962 22.8545 7.55971 22.813 7.65904C22.7714 7.75838 22.75 7.86498 22.75 7.97266C22.75 8.08033 22.7714 8.18694 22.813 8.28627C22.8545 8.3856 22.9154 8.47569 22.9921 8.55128C23.0688 8.62688 23.1597 8.68649 23.2596 8.72664C23.3595 8.76679 23.4664 8.78668 23.5741 8.78516H25.1991C25.3067 8.78668 25.4136 8.76679 25.5135 8.72664C25.6135 8.68649 25.7044 8.62688 25.7811 8.55128C25.8577 8.47569 25.9186 8.3856 25.9602 8.28627C26.0017 8.18694 26.0231 8.08033 26.0231 7.97266C26.0231 7.86498 26.0017 7.75838 25.9602 7.65904C25.9186 7.55971 25.8577 7.46962 25.7811 7.39403C25.7044 7.31843 25.6135 7.25882 25.5135 7.21867C25.4136 7.17852 25.3067 7.15863 25.1991 7.16016H23.5741ZM21.5555 13.5374C21.3938 13.5375 21.2358 13.5858 21.1017 13.6761C20.9676 13.7664 20.8635 13.8947 20.8027 14.0446C20.7419 14.1944 20.7273 14.359 20.7605 14.5172C20.7938 14.6755 20.8735 14.8202 20.9895 14.9329L21.7555 15.6988C21.8303 15.7768 21.92 15.839 22.0192 15.8819C22.1185 15.9248 22.2253 15.9475 22.3334 15.9486C22.4414 15.9497 22.5487 15.9292 22.6488 15.8883C22.7488 15.8475 22.8398 15.787 22.9162 15.7106C22.9926 15.6342 23.053 15.5433 23.0939 15.4432C23.1348 15.3431 23.1552 15.2359 23.1541 15.1278C23.153 15.0197 23.1304 14.9129 23.0875 14.8137C23.0446 14.7144 22.9824 14.6248 22.9044 14.5499L22.1384 13.7839C22.0627 13.7059 21.9721 13.6439 21.872 13.6016C21.7718 13.5593 21.6642 13.5374 21.5555 13.5374ZM4.44329 13.5385C4.23228 13.5446 4.03195 13.6327 3.8847 13.7839L3.11875 14.5499C3.04077 14.6248 2.97852 14.7144 2.93563 14.8137C2.89275 14.9129 2.87009 15.0197 2.86899 15.1278C2.86789 15.2359 2.88837 15.3431 2.92923 15.4432C2.97009 15.5433 3.03051 15.6342 3.10695 15.7106C3.18339 15.7871 3.27431 15.8475 3.37439 15.8883C3.47447 15.9292 3.5817 15.9497 3.68979 15.9486C3.79789 15.9475 3.90467 15.9248 4.0039 15.8819C4.10313 15.839 4.19281 15.7768 4.26768 15.6988L5.03363 14.9329C5.15084 14.8187 5.23086 14.6718 5.26322 14.5114C5.29558 14.351 5.27876 14.1846 5.21497 14.0339C5.15118 13.8833 5.04339 13.7554 4.9057 13.667C4.76801 13.5786 4.60685 13.5338 4.44329 13.5385ZM9.51613 19.0768L10.0282 21.3842C10.221 22.2519 10.9912 22.8685 11.8796 22.8685H14.1436C15.0319 22.8685 15.8021 22.2519 15.995 21.3842L16.507 19.0768H9.51613Z" fill="white"/>
</svg>
