<svg width="34" height="34" viewBox="0 0 34 34" fill="none" xmlns="http://www.w3.org/2000/svg">
<path d="M9.13495 33.575L15.085 19.125H7.4222L14.7399 0.424999H26.4919L19.692 13.175H27.1099L9.1579 33.575H9.13495Z" fill="#FFEEA3"/>
<path d="M25.7831 0.85L19.6495 12.3497L18.9831 13.6H20.4H26.1698L10.4763 31.4339L15.2362 19.8739L15.7191 18.7H14.45H8.04525L15.0297 0.85H25.7831ZM27.2 0H14.45L6.8 19.55H14.45L8.5 34H9.35L28.05 12.75H20.4L27.2 0Z" fill="#C29653"/>
<path d="M15.8159 1.1645L15.8253 1.14155L15.833 1.11775L15.9222 0.85H15.0263L8.05375 18.7H8.9692L15.8159 1.1645ZM15.719 18.7L15.2362 19.8739L10.4762 31.4339L12.2034 29.4712L16.0217 20.1969L16.5053 19.0239L16.6388 18.7H15.719Z" fill="white"/>
</svg>
