<svg width="39" height="39" viewBox="0 0 39 39" fill="none" xmlns="http://www.w3.org/2000/svg">
<path d="M34.125 8.125C25.0884 8.125 24.9616 3.25 19.5 3.25C14.0384 3.25 13.9116 8.125 4.875 8.125C4.4265 8.125 4.0625 8.489 4.0625 8.9375C4.0625 8.9375 4.0625 13.6955 4.0625 16.25C4.0625 17.3696 4.20713 18.4535 4.46306 19.5C6.84775 29.2557 19.1531 35.6744 19.1531 35.6744L19.1563 35.6679C19.2611 35.7175 19.3757 35.75 19.5 35.75C19.6243 35.75 19.7389 35.7175 19.8437 35.6671L19.8469 35.6736C19.8469 35.6736 32.1514 29.2549 34.5369 19.4992C34.7929 18.4535 34.9375 17.3696 34.9375 16.25C34.9375 13.6955 34.9375 8.9375 34.9375 8.9375C34.9375 8.489 34.5735 8.125 34.125 8.125Z" fill="url(#paint0_linear_3008_10998)"/>
<path d="M19.5 6.5C20.8333 6.5 21.4866 6.9095 22.9661 7.91781C24.7991 9.16662 27.2122 10.8111 31.6875 11.2588V16.25C31.6875 17.0592 31.5843 17.8929 31.3796 18.7281C29.77 25.3118 22.3811 30.3696 19.4992 32.1238C18.3755 31.4397 16.5693 30.2551 14.6876 28.6683C12.0226 26.4209 8.63362 22.8727 7.62044 18.7281C7.41569 17.8929 7.3125 17.0592 7.3125 16.25V11.2588C11.7877 10.8119 14.2009 9.16744 16.0339 7.91781C17.5134 6.9095 18.1667 6.5 19.5 6.5Z" fill="url(#paint1_linear_3008_10998)"/>
<defs>
<linearGradient id="paint0_linear_3008_10998" x1="15.9071" y1="3.71231" x2="27.079" y2="34.8067" gradientUnits="userSpaceOnUse">
<stop stop-color="#FFDA1C"/>
<stop offset="1" stop-color="#FEB705"/>
</linearGradient>
<linearGradient id="paint1_linear_3008_10998" x1="16.8683" y1="3.65625" x2="24.2783" y2="33.8122" gradientUnits="userSpaceOnUse">
<stop stop-color="#EBC70F"/>
<stop offset="1" stop-color="#E3A405"/>
</linearGradient>
</defs>
</svg>
