<svg xmlns="http://www.w3.org/2000/svg" width="16" height="16" viewBox="0 0 16 16" fill="none">
  <path d="M5.26785 14C5.44338 14.304 5.69585 14.5565 5.99988 14.732C6.3039 14.9075 6.64878 14.9999 6.99985 15H10.9998C11.5303 15 12.039 14.7892 12.4141 14.4142C12.7891 14.0391 12.9998 13.5304 12.9998 13V9.99995C12.9998 9.64889 12.9074 9.30401 12.7319 8.99998C12.5563 8.69595 12.3039 8.44348 11.9998 8.26795V11C11.9998 11.7956 11.6838 12.5587 11.1212 13.1213C10.5586 13.6839 9.7955 14 8.99985 14H5.26785ZM6.24985 5.99995H7.74985V3.55995L8.96985 4.77995C9.03851 4.85364 9.12131 4.91274 9.21331 4.95373C9.30531 4.99472 9.40462 5.01677 9.50532 5.01854C9.60603 5.02032 9.70606 5.00179 9.79944 4.96407C9.89283 4.92635 9.97767 4.87021 10.0489 4.79899C10.1201 4.72777 10.1762 4.64294 10.214 4.54955C10.2517 4.45616 10.2702 4.35613 10.2684 4.25543C10.2667 4.15473 10.2446 4.05541 10.2036 3.96341C10.1626 3.87141 10.1035 3.78861 10.0298 3.71995L7.52985 1.21995C7.38922 1.0795 7.1986 1.00061 6.99985 1.00061C6.8011 1.00061 6.61047 1.0795 6.46985 1.21995L3.96985 3.71995C3.83737 3.86213 3.76524 4.05017 3.76867 4.24447C3.7721 4.43877 3.85081 4.62416 3.98822 4.76157C4.12564 4.89899 4.31102 4.9777 4.50532 4.98113C4.69963 4.98455 4.88767 4.91243 5.02985 4.77995L6.24985 3.55995V5.99995Z" fill="white"/>
  <path d="M6.25 8.75C6.25 8.94891 6.32902 9.13968 6.46967 9.28033C6.61032 9.42098 6.80109 9.5 7 9.5C7.19891 9.5 7.38968 9.42098 7.53033 9.28033C7.67098 9.13968 7.75 8.94891 7.75 8.75V6H9C9.53043 6 10.0391 6.21071 10.4142 6.58579C10.7893 6.96086 11 7.46957 11 8V11C11 11.5304 10.7893 12.0391 10.4142 12.4142C10.0391 12.7893 9.53043 13 9 13H5C4.46957 13 3.96086 12.7893 3.58579 12.4142C3.21071 12.0391 3 11.5304 3 11V8C3 7.46957 3.21071 6.96086 3.58579 6.58579C3.96086 6.21071 4.46957 6 5 6H6.25V8.75Z" fill="white"/>
</svg>