<svg width="16" height="16" viewBox="0 0 16 16" fill="none" xmlns="http://www.w3.org/2000/svg">
<path fill-rule="evenodd" clip-rule="evenodd" d="M9.78007 4.22007C9.92052 4.3607 9.99941 4.55132 9.99941 4.75007C9.99941 4.94882 9.92052 5.13945 9.78007 5.28007L7.06007 8.00007L9.78007 10.7201C9.85376 10.7887 9.91286 10.8715 9.95385 10.9635C9.99485 11.0555 10.0169 11.1548 10.0187 11.2556C10.0204 11.3563 10.0019 11.4563 9.9642 11.5497C9.92647 11.6431 9.87033 11.7279 9.79911 11.7991C9.72789 11.8703 9.64306 11.9265 9.54967 11.9642C9.45628 12.0019 9.35625 12.0204 9.25555 12.0187C9.15485 12.0169 9.05553 11.9948 8.96353 11.9539C8.87154 11.9129 8.78873 11.8538 8.72007 11.7801L5.47007 8.53007C5.32962 8.38945 5.25073 8.19882 5.25073 8.00007C5.25073 7.80132 5.32962 7.6107 5.47007 7.47007L8.72007 4.22007C8.8607 4.07962 9.05132 4.00073 9.25007 4.00073C9.44882 4.00073 9.63945 4.07962 9.78007 4.22007Z" fill="white"/>
</svg>
