<svg width="20" height="20" viewBox="0 0 20 20" fill="none" xmlns="http://www.w3.org/2000/svg">
<path d="M15.8 18C15.701 18 15.6041 17.9802 15.5092 17.9407C15.4142 17.9012 15.3333 17.842 15.2667 17.763L10.9667 13.3778C10.8869 13.3221 10.8281 13.2449 10.7902 13.1462C10.7523 13.0474 10.7333 12.9496 10.7333 12.8529C10.7333 12.7562 10.7523 12.6556 10.7902 12.5512C10.8281 12.4468 10.8869 12.3555 10.9667 12.2772L12.3667 10.855C12.4326 10.7853 12.5141 10.7255 12.6113 10.6757C12.7086 10.6259 12.8103 10.6011 12.9167 10.6011C13.0119 10.6011 13.1081 10.6259 13.2053 10.6757C13.3026 10.7255 13.3841 10.7853 13.45 10.855L17.7667 15.2571C17.8333 15.3249 17.8889 15.4043 17.9333 15.4954C17.9778 15.5863 18 15.6879 18 15.8001C18 15.9009 17.9727 16.0027 17.9182 16.1054C17.8636 16.2081 17.8131 16.2866 17.7667 16.3407L16.3667 17.7799C16.2897 17.8384 16.2026 17.8897 16.1053 17.9338C16.0081 17.9779 15.9063 18 15.8 18ZM5.23333 17.9831C5.13333 17.9831 5.03256 17.9661 4.931 17.9323C4.82933 17.8984 4.74678 17.842 4.68333 17.763L3.3 16.3577C3.22222 16.3045 3.16667 16.2291 3.13333 16.1315C3.1 16.0339 3.08333 15.9287 3.08333 15.8159C3.08333 15.7143 3.1 15.6121 3.13333 15.5094C3.16667 15.4067 3.22222 15.3226 3.3 15.2571L7.48333 11.0243H9L9.56667 10.4487L6.43333 7.24868H5.97308C5.59565 7.24868 5.23386 7.09789 4.96815 6.82985L3.99128 5.84441C3.44186 5.29018 3.44029 4.39716 3.98776 3.841C4.54479 3.27513 5.45683 3.27353 6.01584 3.83745L6.98062 4.81069C7.2386 5.07092 7.38333 5.42252 7.38333 5.78895V6.2836L10.5167 9.4836L12.75 7.21482L12.5082 6.96922C11.9779 6.43049 11.9817 5.56478 12.5167 5.03069H10.5833C10.3427 4.78622 10.342 4.3941 10.5819 4.14885L12.2348 2.45862C12.4811 2.20675 12.8862 2.20609 13.1333 2.45714V4.40423C13.6552 3.87413 14.5104 3.87526 15.0308 4.40674L17.2322 6.6549C17.4218 6.87015 17.575 7.10155 17.6917 7.34908C17.8083 7.5965 17.8667 7.85651 17.8667 8.1291C17.8667 8.41862 17.8083 8.69697 17.6917 8.96415C17.5151 9.36878 16.9966 9.39554 16.6869 9.0809L15.7 8.07831L15.6167 8.16296C15.0944 8.69349 14.2389 8.69349 13.7167 8.16296L9.95 11.9894V13.5302L5.76667 17.763C5.70078 17.842 5.622 17.8984 5.53033 17.9323C5.43867 17.9661 5.33967 17.9831 5.23333 17.9831Z" fill="#F7F0E7"/>
</svg>
