<svg width="21" height="20" viewBox="0 0 21 20" fill="none" xmlns="http://www.w3.org/2000/svg">
<circle cx="16.0506" cy="8.05063" r="4.05063" fill="white"/>
<path d="M13.2962 13.5407C13.2356 13.5937 13.1225 13.797 12.777 14.3509C12.5376 14.7347 12.3709 15.1874 12.284 15.4225C12.2024 15.6432 12.0625 16.0068 11.9747 16.2349C11.8711 16.5045 11.5009 15.6819 11.2504 15.3842C10.9592 15.0384 10.7777 14.748 10.2816 14.1819C9.90123 13.7477 9.1662 13.1019 8.40508 12.5481C7.64396 11.9943 6.85516 11.5743 6.23542 11.3024C4.62012 10.7993 4.2916 10.7604 4.16509 10.6976C4.105 10.6617 4.05329 10.6175 4 10.572" stroke="white" stroke-width="2" stroke-linecap="round"/>
</svg>
