<svg width="20" height="20" viewBox="0 0 20 20" fill="none" xmlns="http://www.w3.org/2000/svg">
<path fill-rule="evenodd" clip-rule="evenodd" d="M9.638 1.0929C9.74887 1.0318 9.87341 0.999756 10 0.999756C10.1266 0.999756 10.2511 1.0318 10.362 1.0929L12.362 2.1969C12.4512 2.24279 12.5303 2.30611 12.5946 2.3831C12.6588 2.4601 12.707 2.5492 12.7363 2.64515C12.7655 2.7411 12.7752 2.84193 12.7648 2.94169C12.7544 3.04146 12.7241 3.13811 12.6756 3.22595C12.6272 3.31379 12.5616 3.39101 12.4828 3.45306C12.404 3.51512 12.3136 3.56073 12.2168 3.5872C12.1201 3.61368 12.019 3.62048 11.9196 3.6072C11.8202 3.59392 11.7244 3.56084 11.638 3.5099L10 2.6069L8.362 3.5099C8.27559 3.56084 8.17984 3.59392 8.08042 3.6072C7.981 3.62048 7.87993 3.61368 7.78318 3.5872C7.68643 3.56073 7.59598 3.51512 7.51717 3.45306C7.43836 3.39101 7.3728 3.31379 7.32437 3.22595C7.27594 3.13811 7.24562 3.04146 7.2352 2.94169C7.22478 2.84193 7.23448 2.7411 7.26372 2.64515C7.29296 2.5492 7.34116 2.4601 7.40544 2.3831C7.46973 2.30611 7.54881 2.24279 7.638 2.1969L9.638 1.0929ZM5.403 4.2869C5.45056 4.37318 5.48065 4.46798 5.49156 4.56588C5.50247 4.66379 5.49399 4.76289 5.46659 4.85751C5.4392 4.95214 5.39343 5.04044 5.3319 5.11738C5.27037 5.19432 5.19429 5.25838 5.108 5.3059L4.303 5.7499L5.108 6.1939C5.28225 6.28991 5.41122 6.45121 5.46654 6.64231C5.52186 6.83341 5.49901 7.03866 5.403 7.2129C5.30699 7.38715 5.1457 7.51612 4.9546 7.57144C4.7635 7.62677 4.55825 7.60391 4.384 7.5079L3.5 7.0199V7.7499C3.5 7.94881 3.42098 8.13958 3.28033 8.28023C3.13968 8.42088 2.94891 8.4999 2.75 8.4999C2.55109 8.4999 2.36032 8.42088 2.21967 8.28023C2.07902 8.13958 2 7.94881 2 7.7499V5.7499C1.99997 5.61569 2.03596 5.48394 2.10421 5.36837C2.17245 5.25281 2.27046 5.15768 2.388 5.0929L4.384 3.9929C4.55812 3.89678 4.76329 3.87375 4.95438 3.92889C5.14548 3.98402 5.30685 4.1128 5.403 4.2869ZM14.597 4.2869C14.6445 4.20048 14.7086 4.12428 14.7856 4.06267C14.8627 4.00105 14.9511 3.95523 15.0458 3.92783C15.1406 3.90043 15.2398 3.89198 15.3378 3.90298C15.4358 3.91397 15.5307 3.94419 15.617 3.9919L17.612 5.0929C17.7295 5.15768 17.8275 5.25281 17.8958 5.36837C17.964 5.48394 18 5.61569 18 5.7499V7.7499C18 7.94881 17.921 8.13958 17.7803 8.28023C17.6397 8.42088 17.4489 8.4999 17.25 8.4999C17.0511 8.4999 16.8603 8.42088 16.7197 8.28023C16.579 8.13958 16.5 7.94881 16.5 7.7499V7.0199L15.616 7.5079C15.5297 7.55544 15.4349 7.58552 15.337 7.59642C15.2391 7.60733 15.14 7.59884 15.0454 7.57144C14.8543 7.51612 14.693 7.38715 14.597 7.2129C14.5495 7.12662 14.5194 7.03183 14.5085 6.93392C14.4976 6.83602 14.5061 6.73693 14.5335 6.64231C14.5888 6.45121 14.7178 6.28991 14.892 6.1939L15.698 5.7499L14.892 5.3059C14.8056 5.25838 14.7294 5.19427 14.6678 5.11726C14.6062 5.04025 14.5603 4.95184 14.5329 4.85709C14.5055 4.76235 14.4971 4.66313 14.5081 4.56512C14.5191 4.4671 14.5493 4.37222 14.597 4.2859V4.2869ZM7.343 8.2839C7.39061 8.19757 7.45478 8.12146 7.53183 8.05995C7.60888 7.99844 7.6973 7.95272 7.79204 7.92541C7.88678 7.8981 7.98597 7.88974 8.08394 7.90081C8.18191 7.91188 8.27674 7.94215 8.363 7.9899L10 8.8929L11.638 7.9899C11.7244 7.93897 11.8202 7.90588 11.9196 7.8926C12.019 7.87933 12.1201 7.88613 12.2168 7.9126C12.3136 7.93908 12.404 7.98469 12.4828 8.04674C12.5616 8.10879 12.6272 8.18602 12.6756 8.27386C12.7241 8.36169 12.7544 8.45835 12.7648 8.55811C12.7752 8.65787 12.7655 8.75871 12.7363 8.85466C12.707 8.9506 12.6588 9.03971 12.5946 9.1167C12.5303 9.1937 12.4512 9.25701 12.362 9.3029L10.75 10.1929V11.7499C10.75 11.9488 10.671 12.1396 10.5303 12.2802C10.3897 12.4209 10.1989 12.4999 10 12.4999C9.80109 12.4999 9.61032 12.4209 9.46967 12.2802C9.32902 12.1396 9.25 11.9488 9.25 11.7499V10.1929L7.638 9.3029C7.55171 9.25538 7.47563 9.19132 7.4141 9.11438C7.35257 9.03745 7.3068 8.94914 7.27941 8.85451C7.25201 8.75989 7.24353 8.66079 7.25444 8.56288C7.26535 8.46498 7.29544 8.37018 7.343 8.2839ZM2.75 11.4999C2.94891 11.4999 3.13968 11.5789 3.28033 11.7196C3.42098 11.8602 3.5 12.051 3.5 12.2499V13.8069L5.108 14.6939C5.28225 14.7899 5.41122 14.9512 5.46654 15.1423C5.52186 15.3334 5.49901 15.5387 5.403 15.7129C5.30699 15.8871 5.1457 16.0161 4.9546 16.0714C4.7635 16.1268 4.55825 16.1039 4.384 16.0079L2.388 14.9069C2.27046 14.8421 2.17245 14.747 2.10421 14.6314C2.03596 14.5159 1.99997 14.3841 2 14.2499V12.2499C2 12.051 2.07902 11.8602 2.21967 11.7196C2.36032 11.5789 2.55109 11.4999 2.75 11.4999ZM17.25 11.4999C17.4489 11.4999 17.6397 11.5789 17.7803 11.7196C17.921 11.8602 18 12.051 18 12.2499V14.2499C18 14.3841 17.964 14.5159 17.8958 14.6314C17.8275 14.747 17.7295 14.8421 17.612 14.9069L15.616 16.0069C15.5296 16.0578 15.4338 16.0909 15.3344 16.1042C15.235 16.1175 15.1339 16.1107 15.0372 16.0842C14.9404 16.0577 14.85 16.0121 14.7712 15.9501C14.6924 15.888 14.6268 15.8108 14.5784 15.723C14.5299 15.6351 14.4996 15.5385 14.4892 15.4387C14.4788 15.3389 14.4885 15.2381 14.5177 15.1421C14.547 15.0462 14.5952 14.9571 14.6594 14.8801C14.7237 14.8031 14.8028 14.7398 14.892 14.6939L16.5 13.8069V12.2499C16.5 12.051 16.579 11.8602 16.7197 11.7196C16.8603 11.5789 17.0511 11.4999 17.25 11.4999ZM10 15.4999C10.1989 15.4999 10.3897 15.5789 10.5303 15.7196C10.671 15.8602 10.75 16.051 10.75 16.2499V16.9799L11.638 16.4899C11.8116 16.4006 12.0131 16.3825 12.1998 16.4394C12.3865 16.4963 12.5437 16.6237 12.6379 16.7947C12.7322 16.9656 12.7561 17.1665 12.7045 17.3548C12.653 17.543 12.5301 17.7038 12.362 17.8029L10.362 18.9069C10.2511 18.968 10.1266 19 10 19C9.87341 19 9.74887 18.968 9.638 18.9069L7.638 17.8029C7.54881 17.757 7.46973 17.6937 7.40544 17.6167C7.34116 17.5397 7.29296 17.4506 7.26372 17.3547C7.23448 17.2587 7.22478 17.1579 7.2352 17.0581C7.24562 16.9583 7.27594 16.8617 7.32437 16.7739C7.3728 16.686 7.43836 16.6088 7.51717 16.5467C7.59598 16.4847 7.68643 16.4391 7.78318 16.4126C7.87993 16.3861 7.981 16.3793 8.08042 16.3926C8.17984 16.4059 8.27559 16.439 8.362 16.4899L9.25 16.9799V16.2499C9.25 16.051 9.32902 15.8602 9.46967 15.7196C9.61032 15.5789 9.80109 15.4999 10 15.4999Z" fill="#FAFAFA"/>
</svg>
