<svg width="20" height="20" viewBox="0 0 20 20" fill="none" xmlns="http://www.w3.org/2000/svg">
<g clip-path="url(#clip0_8190_10592)">
<path fill-rule="evenodd" clip-rule="evenodd" d="M5 1.33975C5.51246 1.04388 6.16773 1.21946 6.4636 1.73192L7.39637 3.34752C7.89749 3.15067 8.41133 3.01434 8.92857 2.93602V1.07143C8.92857 0.479695 9.40827 2.38512e-07 10 0C10.5917 -2.56948e-07 11.0714 0.479695 11.0714 1.07143V2.93769C11.5955 3.01754 12.1095 3.15526 12.6033 3.34815L13.5364 1.73192C13.8323 1.21946 14.4875 1.04388 15 1.33975C15.5125 1.63561 15.688 2.29089 15.3922 2.80334L14.4599 4.41813C14.8687 4.74457 15.2455 5.11956 15.5811 5.5406L17.1967 4.60783C17.7091 4.31196 18.3644 4.48754 18.6603 5C18.9561 5.51246 18.7805 6.16773 18.2681 6.4636L16.6525 7.39637C16.8493 7.89749 16.9857 8.41133 17.064 8.92857H18.9286C19.5203 8.92857 20 9.40827 20 10C20 10.5917 19.5203 11.0714 18.9286 11.0714H17.0623C16.9825 11.5955 16.8447 12.1095 16.6519 12.6033L18.2681 13.5364C18.7805 13.8323 18.9561 14.4875 18.6603 15C18.3644 15.5125 17.7091 15.688 17.1967 15.3922L15.5819 14.4599C15.2554 14.8687 14.8804 15.2455 14.4594 15.5811L15.3922 17.1967C15.688 17.7091 15.5125 18.3644 15 18.6603C14.4875 18.9561 13.8323 18.7805 13.5364 18.2681L12.6036 16.6525C12.1025 16.8493 11.5887 16.9857 11.0714 17.064V18.9286C11.0714 19.5203 10.5917 20 10 20C9.40827 20 8.92857 19.5203 8.92857 18.9286V17.0623C8.40451 16.9825 7.8905 16.8447 7.39673 16.6519L6.4636 18.2681C6.16773 18.7805 5.51246 18.9561 5 18.6603C4.48754 18.3644 4.31196 17.7091 4.60783 17.1967L5.54013 15.5819C5.13134 15.2554 4.75451 14.8804 4.41895 14.4594L2.80334 15.3922C2.29089 15.688 1.63561 15.5125 1.33975 15C1.04388 14.4875 1.21946 13.8323 1.73192 13.5364L3.34752 12.6036C3.15067 12.1025 3.01434 11.5887 2.93602 11.0714H1.07143C0.479695 11.0714 -1.02083e-07 10.5917 0 10C-8.66462e-08 9.40827 0.479695 8.92857 1.07143 8.92857H2.93769C3.01754 8.40451 3.15526 7.8905 3.34815 7.39673L1.73192 6.4636C1.21946 6.16773 1.04388 5.51246 1.33975 5C1.63561 4.48754 2.29089 4.31196 2.80334 4.60783L4.41813 5.54013C4.74457 5.13134 5.11956 4.75451 5.5406 4.41895L4.60783 2.80334C4.31196 2.29089 4.48754 1.63561 5 1.33975ZM6.62965 6.30524C4.92931 7.85328 4.47304 10.427 5.66987 12.5C5.93389 12.9573 6.25922 13.3571 6.6295 13.695L8.76282 10L6.62965 6.30524ZM10.6186 11.0714L8.48594 14.7653C9.77865 15.1756 11.2329 15.0617 12.5 14.3301C13.7671 13.5986 14.5929 12.3961 14.8839 11.0714H10.6186ZM14.8852 8.92857H10.6186L8.48542 5.23381C10.6762 4.5353 13.1333 5.42703 14.3301 7.5C14.5941 7.95728 14.7777 8.43894 14.8852 8.92857Z" fill="#FAFAFA"/>
</g>
<defs>
<clipPath id="clip0_8190_10592">
<rect width="20" height="20" fill="white"/>
</clipPath>
</defs>
</svg>
