<svg width="21" height="20" viewBox="0 0 21 20" fill="none" xmlns="http://www.w3.org/2000/svg">
<path fill-rule="evenodd" clip-rule="evenodd" d="M7 5.25V6H4.75C4.33579 6 4 6.33579 4 6.75C4 7.16421 4.33579 7.5 4.75 7.5H5.05L5.86493 15.6493C5.94161 16.4161 6.58685 17 7.35748 17H12.6425C13.4131 17 14.0584 16.4161 14.1351 15.6493L14.95 7.5H15.25C15.6642 7.5 16 7.16421 16 6.75C16 6.33579 15.6642 6 15.25 6H13V5.25C13 4.00736 11.9926 3 10.75 3H9.25C8.00736 3 7 4.00736 7 5.25ZM9.25 4.5C8.83579 4.5 8.5 4.83579 8.5 5.25V6H11.5V5.25C11.5 4.83579 11.1642 4.5 10.75 4.5H9.25ZM8.05044 8.00094C8.46413 7.98025 8.81627 8.29885 8.83696 8.71255L9.11195 14.2125C9.13264 14.6262 8.81404 14.9784 8.40034 14.9991C7.98665 15.0197 7.63451 14.7011 7.61383 14.2875L7.33883 8.78745C7.31814 8.37376 7.63674 8.02162 8.05044 8.00094ZM11.9503 8.00094C12.364 8.02162 12.6826 8.37376 12.662 8.78745L12.387 14.2875C12.3663 14.7011 12.0141 15.0197 11.6004 14.9991C11.1867 14.9784 10.8681 14.6262 10.8888 14.2125L11.1638 8.71255C11.1845 8.29885 11.5366 7.98025 11.9503 8.00094Z" fill="#FAFAFA"/>
</svg>
