<svg width="16" height="16" viewBox="0 0 16 16" fill="none" xmlns="http://www.w3.org/2000/svg">
<path d="M5.5 3.5C5.5 3.10218 5.65804 2.72064 5.93934 2.43934C6.22064 2.15804 6.60218 2 7 2H9.879C10.2767 2.00035 10.658 2.15862 10.939 2.44L13.061 4.56C13.2003 4.69936 13.3107 4.86478 13.386 5.04683C13.4614 5.22888 13.5001 5.42398 13.5 5.621V9.5C13.5 9.89782 13.342 10.2794 13.0607 10.5607C12.7794 10.842 12.3978 11 12 11V8.621C11.9998 7.82542 11.6836 7.06248 11.121 6.5L9 4.379C8.43752 3.81635 7.67458 3.50017 6.879 3.5H5.5Z" fill="#FAFAFA"/>
<path d="M4 5C3.60218 5 3.22064 5.15804 2.93934 5.43934C2.65804 5.72065 2.5 6.10218 2.5 6.5V12.5C2.5 12.8978 2.65804 13.2794 2.93934 13.5607C3.22064 13.842 3.60218 14 4 14H9C9.39782 14 9.77936 13.842 10.0607 13.5607C10.342 13.2794 10.5 12.8978 10.5 12.5V8.621C10.4997 8.22331 10.3414 7.84204 10.06 7.561L7.94 5.439C7.80052 5.29962 7.63494 5.1891 7.45271 5.11377C7.27048 5.03844 7.07518 4.99978 6.878 5H4Z" fill="#FAFAFA"/>
</svg>
