<svg width="14" height="12" viewBox="0 0 14 12" fill="none" xmlns="http://www.w3.org/2000/svg">
<path fill-rule="evenodd" clip-rule="evenodd" d="M5.39935 0.749999C5.9767 -0.250001 7.42008 -0.249999 7.99743 0.750001L13.1936 9.75C13.7709 10.75 13.0492 12 11.8945 12H1.50224C0.347535 12 -0.37415 10.75 0.2032 9.75L5.39935 0.749999ZM6.69839 2.5C7.1126 2.5 7.44839 2.83579 7.44839 3.25V6.25C7.44839 6.66421 7.1126 7 6.69839 7C6.28418 7 5.94839 6.66421 5.94839 6.25V3.25C5.94839 2.83579 6.28418 2.5 6.69839 2.5ZM6.69839 10.5C7.25068 10.5 7.69839 10.0523 7.69839 9.5C7.69839 8.94772 7.25068 8.5 6.69839 8.5C6.14611 8.5 5.69839 8.94772 5.69839 9.5C5.69839 10.0523 6.14611 10.5 6.69839 10.5Z" fill="#A1A1AA"/>
</svg>
