<svg xmlns="http://www.w3.org/2000/svg" width="32" height="24" viewBox="0 0 32 24" fill="none">
  <path d="M21.0893 16.3538C19.5233 16.3538 18.2415 14.9392 18.2415 13.1903C18.2415 11.4413 19.4855 10.0208 21.0893 10.0208C22.693 10.0208 23.9622 11.4478 23.937 13.1903C23.9118 14.933 22.6805 16.3538 21.0893 16.3538ZM10.57 16.3538C9.01025 16.3538 7.716 14.9392 7.716 13.1903C7.716 11.4413 8.95975 10.0208 10.5637 10.0208C12.1675 10.0208 13.4427 11.4478 13.4175 13.1903C13.3922 14.933 12.161 16.3538 10.57 16.3538ZM20.2875 0C19.978 0.5495 19.7003 1.11775 19.4475 1.6985C17.0483 1.33875 14.6047 1.33875 12.199 1.6985C11.9527 1.11775 11.6685 0.5495 11.3592 0C9.105 0.38525 6.90775 1.061 4.824 2.01425C0.694749 8.13275 -0.42275 14.0933 0.13275 19.9718C2.551 21.7585 5.25975 23.1225 8.14525 23.9937C8.79575 23.1225 9.37025 22.1943 9.86275 21.2283C8.92825 20.881 8.02525 20.4452 7.16025 19.9403C7.3875 19.776 7.6085 19.6055 7.82325 19.4412C12.8935 21.828 18.7658 21.828 23.8423 19.4412C24.057 19.618 24.278 19.7885 24.5053 19.9403C23.6403 20.4515 22.7372 20.881 21.7965 21.2345C22.289 22.2005 22.8635 23.1287 23.514 24C26.3995 23.1287 29.1082 21.7712 31.5268 19.9842C32.1833 13.165 30.4028 7.255 26.8225 2.02075C24.7453 1.06725 22.5478 0.3915 20.2938 0.01275L20.2875 0Z" fill="#F8FAFC" fill-opacity="0.8"/>
</svg>