<svg width="20" height="20" viewBox="0 0 20 20" fill="none" xmlns="http://www.w3.org/2000/svg">
<g clip-path="url(#clip0_18136_196492)">
<path d="M6.39996 0.800781C5.72027 0.800781 5.19996 1.32109 5.19996 2.00078V2.80078H1.19996C1.18746 2.80078 1.17496 2.80078 1.16246 2.80078C1.14996 2.80078 1.13746 2.80078 1.12496 2.80078C0.904645 2.82109 0.742145 3.01797 0.762457 3.23828C0.782769 3.45859 0.979645 3.62109 1.19996 3.60078H5.19996V4.40078C5.19996 5.08047 5.72027 5.60078 6.39996 5.60078H7.19996C7.87964 5.60078 8.39996 5.08047 8.39996 4.40078V2.00078C8.39996 1.32109 7.87964 0.800781 7.19996 0.800781H6.39996ZM8.79996 2.80078V3.60078H18.8C18.9437 3.60234 19.0781 3.52734 19.1515 3.40234C19.2234 3.27734 19.2234 3.12422 19.1515 2.99922C19.0781 2.87422 18.9437 2.79922 18.8 2.80078H8.79996ZM13.6 7.60078C12.9203 7.60078 12.4 8.12109 12.4 8.80078V9.60078H1.19996C1.18746 9.60078 1.17496 9.60078 1.16246 9.60078C1.14996 9.60078 1.13746 9.60078 1.12496 9.60078C0.904645 9.62109 0.742145 9.81797 0.762457 10.0383C0.782769 10.2586 0.979645 10.4211 1.19996 10.4008H12.4V11.2008C12.4 11.8805 12.9203 12.4008 13.6 12.4008H14.4C15.0796 12.4008 15.6 11.8805 15.6 11.2008V8.80078C15.6 8.12109 15.0796 7.60078 14.4 7.60078H13.6ZM16 9.60078V10.4008H18.8C18.9437 10.4023 19.0781 10.3273 19.1515 10.2023C19.2234 10.0773 19.2234 9.92422 19.1515 9.79922C19.0781 9.67422 18.9437 9.59922 18.8 9.60078H16ZM5.19996 14.4008C4.52027 14.4008 3.99996 14.9211 3.99996 15.6008V16.4008H1.19996C1.18746 16.4008 1.17496 16.4008 1.16246 16.4008C1.14996 16.4008 1.13746 16.4008 1.12496 16.4008C0.904645 16.4211 0.742145 16.618 0.762457 16.8383C0.782769 17.0586 0.979645 17.2211 1.19996 17.2008H3.99996V18.0008C3.99996 18.6805 4.52027 19.2008 5.19996 19.2008H5.99996C6.67964 19.2008 7.19996 18.6805 7.19996 18.0008V15.6008C7.19996 14.9211 6.67964 14.4008 5.99996 14.4008H5.19996ZM7.59996 16.4008V17.2008H18.8C18.9437 17.2023 19.0781 17.1273 19.1515 17.0023C19.2234 16.8773 19.2234 16.7242 19.1515 16.5992C19.0781 16.4742 18.9437 16.3992 18.8 16.4008H7.59996Z" fill="#E9E9E9"/>
</g>
<defs>
<clipPath id="clip0_18136_196492">
<rect width="20" height="20" fill="white"/>
</clipPath>
</defs>
</svg>
