<svg width="48" height="48" viewBox="0 0 48 48" fill="none" xmlns="http://www.w3.org/2000/svg">
<rect width="48" height="48" rx="8" fill="#B6267C"/>
<path fill-rule="evenodd" clip-rule="evenodd" d="M19.5006 18C19.7641 18 20.0193 18.0925 20.2216 18.2613C20.4239 18.4302 20.5605 18.6647 20.6076 18.924L20.9856 21.006C21.0538 21.3811 21.2348 21.7265 21.5044 21.9961C21.774 22.2657 22.1194 22.4467 22.4946 22.515L24.5766 22.893C24.8359 22.94 25.0706 23.0765 25.2396 23.2788C25.4086 23.4812 25.5011 23.7364 25.5011 24C25.5011 24.2636 25.4086 24.5188 25.2396 24.7212C25.0706 24.9235 24.8359 25.06 24.5766 25.107L22.4946 25.485C22.1194 25.5533 21.774 25.7343 21.5044 26.0039C21.2348 26.2735 21.0538 26.6189 20.9856 26.994L20.6076 29.076C20.5606 29.3354 20.424 29.57 20.2217 29.739C20.0194 29.908 19.7642 30.0006 19.5006 30.0006C19.237 30.0006 18.9817 29.908 18.7794 29.739C18.5771 29.57 18.4405 29.3354 18.3936 29.076L18.0156 26.994C17.9473 26.6189 17.7663 26.2735 17.4967 26.0039C17.2271 25.7343 16.8817 25.5533 16.5066 25.485L14.4246 25.107C14.1652 25.06 13.9305 24.9235 13.7615 24.7212C13.5926 24.5188 13.5 24.2636 13.5 24C13.5 23.7364 13.5926 23.4812 13.7615 23.2788C13.9305 23.0765 14.1652 22.94 14.4246 22.893L16.5066 22.515C16.8817 22.4467 17.2271 22.2657 17.4967 21.9961C17.7663 21.7265 17.9473 21.3811 18.0156 21.006L18.3936 18.924C18.4406 18.6647 18.5773 18.4302 18.7796 18.2613C18.9819 18.0925 19.237 18 19.5006 18ZM30.0006 13.5C30.245 13.5001 30.4828 13.5797 30.6779 13.7269C30.873 13.8742 31.0149 14.081 31.0821 14.316L31.3746 15.339C31.5516 15.9615 32.0391 16.449 32.6616 16.626L33.6846 16.9185C33.9195 16.9858 34.1261 17.1277 34.2731 17.3228C34.4202 17.518 34.4998 17.7557 34.4998 18C34.4998 18.2443 34.4202 18.482 34.2731 18.6772C34.1261 18.8723 33.9195 19.0142 33.6846 19.0815L32.6616 19.374C32.3554 19.4616 32.0766 19.6257 31.8514 19.8509C31.6263 20.076 31.4621 20.3548 31.3746 20.661L31.0821 21.684C31.0148 21.9189 30.8728 22.1255 30.6777 22.2726C30.4826 22.4196 30.2449 22.4992 30.0006 22.4992C29.7562 22.4992 29.5185 22.4196 29.3234 22.2726C29.1283 22.1255 28.9863 21.9189 28.9191 21.684L28.6266 20.661C28.539 20.3548 28.3749 20.076 28.1497 19.8509C27.9245 19.6257 27.6457 19.4616 27.3396 19.374L26.3166 19.0815C26.0817 19.0142 25.8751 18.8723 25.728 18.6772C25.5809 18.482 25.5014 18.2443 25.5014 18C25.5014 17.7557 25.5809 17.518 25.728 17.3228C25.8751 17.1277 26.0817 16.9858 26.3166 16.9185L27.3396 16.626C27.6457 16.5384 27.9245 16.3743 28.1497 16.1491C28.3749 15.924 28.539 15.6452 28.6266 15.339L28.9191 14.316C28.9862 14.081 29.1281 13.8742 29.3232 13.7269C29.5183 13.5797 29.7561 13.5001 30.0006 13.5ZM27.0006 28.5C27.2515 28.4999 27.4953 28.5836 27.6932 28.738C27.8911 28.8924 28.0317 29.1085 28.0926 29.352C28.1564 29.6072 28.2884 29.8402 28.4744 30.0262C28.6604 30.2122 28.8934 30.3441 29.1486 30.408C29.3925 30.4684 29.6092 30.6088 29.7641 30.8067C29.9189 31.0046 30.0031 31.2487 30.0031 31.5C30.0031 31.7513 29.9189 31.9954 29.7641 32.1933C29.6092 32.3912 29.3925 32.5316 29.1486 32.592C28.8934 32.6559 28.6604 32.7878 28.4744 32.9738C28.2884 33.1598 28.1564 33.3928 28.0926 33.648C28.0321 33.8919 27.8918 34.1086 27.6939 34.2635C27.4959 34.4184 27.2519 34.5025 27.0006 34.5025C26.7493 34.5025 26.5052 34.4184 26.3073 34.2635C26.1093 34.1086 25.969 33.8919 25.9086 33.648C25.8447 33.3928 25.7127 33.1598 25.5267 32.9738C25.3407 32.7878 25.1077 32.6559 24.8526 32.592C24.6086 32.5316 24.3919 32.3912 24.2371 32.1933C24.0822 31.9954 23.998 31.7513 23.998 31.5C23.998 31.2487 24.0822 31.0046 24.2371 30.8067C24.3919 30.6088 24.6086 30.4684 24.8526 30.408C25.1077 30.3441 25.3407 30.2122 25.5267 30.0262C25.7127 29.8402 25.8447 29.6072 25.9086 29.352C25.9695 29.1085 26.11 28.8924 26.3079 28.738C26.5058 28.5836 26.7496 28.4999 27.0006 28.5Z" fill="white"/>
</svg>
