<svg width="48" height="16" viewBox="0 0 48 16" fill="none" xmlns="http://www.w3.org/2000/svg">
<path fill-rule="evenodd" clip-rule="evenodd" d="M44.0742 0C46.2424 7.88569e-05 48 1.75858 48 3.92676V12.0742C47.9999 14.2423 46.2423 15.9999 44.0742 16H3.92578C1.75769 15.9999 0.000106755 14.2423 0 12.0742V3.92676C0 1.75858 1.75762 7.82609e-05 3.92578 0H44.0742ZM42.3525 2.85938C42.0624 2.84619 41.9891 2.91546 41.9443 3.30371C41.931 3.41964 41.9143 3.53676 41.9141 3.65332C41.9118 4.75579 41.913 5.85846 41.9131 6.96094C41.9131 7.11512 41.8977 7.27269 41.917 7.42285C41.9762 7.88335 41.7781 8.16919 41.4092 8.15723C40.5636 8.12982 39.7178 8.11046 38.8721 8.08887C38.7894 8.08676 38.7066 8.08887 38.5986 8.08887C38.6211 7.89834 38.638 7.74912 38.6562 7.60059C38.7121 7.1454 38.788 6.69232 38.8184 6.23438C38.8476 5.79255 38.753 5.72714 38.4463 5.96875C38.1567 6.19688 37.8832 6.46043 37.6055 6.71289C36.6893 7.54566 35.7759 8.3833 34.8574 9.21191C34.7248 9.33157 34.7221 9.44515 34.8164 9.58496C34.878 9.67619 34.9412 9.77111 35.0166 9.84082C35.7321 10.5021 36.4494 11.1613 37.1689 11.8154C37.6092 12.2157 38.0493 12.6169 38.5 12.9971C38.6888 13.1563 38.8451 13.044 38.873 12.7559C38.8843 12.6397 38.8734 12.5148 38.8535 12.3994C38.7594 11.8534 38.6582 11.3093 38.5547 10.7363C38.9012 10.7363 39.2173 10.7409 39.5332 10.7354C40.6664 10.7154 41.8003 10.7124 42.9326 10.6582C43.2746 10.6418 43.5621 10.4154 43.7334 9.96973C43.894 9.55175 43.9166 9.13675 43.9043 8.68262C43.8831 7.90153 43.9118 7.1182 43.9199 6.30273C43.9199 5.29944 43.9228 4.32857 43.9189 3.3584C43.9181 3.13704 43.9046 2.9045 43.6641 2.89648C43.2272 2.88235 42.7892 2.87932 42.3525 2.85938ZM10.8555 4.12695C10.431 4.01546 10.0544 4.37063 10.0508 4.91699C10.0452 5.77314 10.0304 6.62922 10.0293 7.48535C10.0285 8.11672 10.0436 8.74861 10.0518 9.41309C10.0518 9.96408 10.0645 10.4829 10.0479 11C10.0296 11.571 10.4713 11.7555 10.7754 11.6865C11.0861 11.6159 11.2734 11.3931 11.2812 10.8262C11.2934 9.93796 11.2706 9.04883 11.2646 8.16016C11.262 7.76388 11.2646 7.36739 11.2646 6.88184C11.3901 7.07964 11.4806 7.21448 11.5645 7.35547C12.1115 8.27547 12.6549 9.19923 13.2041 10.1172C13.4693 10.5605 13.7267 11.0153 14.0205 11.4258C14.2549 11.7531 14.5766 11.8172 14.8916 11.6201C15.1549 11.4554 15.2034 11.1347 15.2031 10.7773C15.2024 9.95639 15.2326 9.13539 15.2314 8.31445C15.2299 7.20336 15.189 6.09165 15.208 4.98145C15.218 4.39903 15.0096 4.13603 14.5557 4.16895C14.2284 4.19273 14.0711 4.31103 14.0186 4.7168C13.9793 5.02045 13.9679 5.33298 13.9658 5.6416C13.9594 6.57849 13.9643 7.51616 13.9629 8.45312C13.9628 8.53077 13.9499 8.60893 13.9365 8.7627C13.8512 8.63071 13.8008 8.56107 13.7578 8.48535C13.5074 8.04467 13.2656 7.59544 13.0078 7.16211C12.5308 6.36026 12.0369 5.57464 11.5664 4.7666C11.3789 4.44461 11.1733 4.21059 10.8555 4.12695ZM28.8896 4.18457C28.6326 4.18457 28.4012 4.1794 28.1699 4.18555C27.9067 4.19256 27.6586 4.51795 27.6543 4.8457C27.646 5.47985 27.6263 6.11398 27.6279 6.74805C27.6314 8.13511 27.6542 9.52222 27.6494 10.9092C27.6479 11.3368 27.8868 11.7023 28.291 11.6699C28.7004 11.637 28.8889 11.4258 28.8896 10.9023C28.8903 10.406 28.8954 9.90919 28.8877 9.41309C28.8846 9.21123 28.942 9.13687 29.0977 9.14551C29.3032 9.15703 29.5153 9.11009 29.7139 9.15918C29.8734 9.19862 30.0635 9.29533 30.1602 9.44922C30.5433 10.0593 30.8855 10.7115 31.2617 11.3291C31.528 11.7663 31.9008 11.8537 32.2461 11.5293C32.474 11.3151 32.5228 10.7537 32.3213 10.4238C32.0671 10.0077 31.7912 9.61362 31.5342 9.2002C31.4637 9.08681 31.4273 8.93821 31.3916 8.84668C31.6557 8.61964 31.9206 8.48952 32.0713 8.24414C32.4665 7.60032 32.6494 6.85516 32.4902 6.02344C32.3478 5.27934 32.0491 4.67683 31.4619 4.42676C31.1424 4.29074 30.797 4.21917 30.46 4.19434C29.9469 4.1566 29.4301 4.18457 28.8896 4.18457ZM17.0029 4.18457C16.8579 4.18457 16.7377 4.17776 16.6182 4.18555C16.3775 4.20129 16.1245 4.54509 16.125 4.84766C16.1257 5.19926 16.3479 5.55145 16.5947 5.57227C16.9499 5.6017 17.3063 5.62696 17.6621 5.6377C18.0289 5.64876 18.0293 5.64064 18.0293 6.10449C18.0294 7.73581 18.0379 9.36792 18.0234 10.999C18.0205 11.3441 18.2122 11.688 18.6055 11.7178C18.8937 11.7395 19.1905 11.4967 19.2129 11.1064C19.2315 10.782 19.2614 10.4575 19.2627 10.1328C19.2682 8.73315 19.2649 7.33329 19.2656 5.93359C19.2657 5.83908 19.273 5.74414 19.2783 5.62109C19.7196 5.62109 20.1423 5.62896 20.5645 5.61816C20.9138 5.6091 21.1248 5.29245 21.1182 4.81543C21.1123 4.40234 20.9171 4.18462 20.5518 4.18457C19.3773 4.18441 18.2027 4.18457 17.0029 4.18457ZM5.02637 4.18555C4.76501 4.18613 4.4999 4.50504 4.49414 4.82812C4.47419 5.94817 4.44734 7.0683 4.44531 8.18848C4.44377 9.04273 4.48058 9.89751 4.49121 10.752C4.49935 11.4011 4.69865 11.6619 5.21094 11.6621C6.23945 11.6625 7.26839 11.659 8.29688 11.666C8.52931 11.6675 8.72849 11.604 8.88867 11.3379C9.06514 10.8202 8.86066 10.2841 8.48633 10.2773C7.63701 10.2621 6.78696 10.269 5.9375 10.2734C5.80694 10.2741 5.72707 10.2474 5.72559 10.0469C5.72289 9.66792 5.6953 9.28868 5.7002 8.91016C5.70323 8.67685 5.76813 8.53086 6.00879 8.54199C6.65941 8.57263 7.31238 8.55215 7.96387 8.55176C8.2572 8.55128 8.5004 8.23469 8.5 7.85449C8.49955 7.47929 8.25557 7.16328 7.96582 7.16309C7.31449 7.16265 6.66304 7.16502 6.01172 7.16113C5.88244 7.16038 5.72694 7.18843 5.72754 6.9209C5.72838 6.54637 5.71882 6.17117 5.73535 5.79785C5.73881 5.71993 5.83521 5.58773 5.89258 5.58398C6.27053 5.55932 6.64962 5.56255 7.02832 5.55762C7.48741 5.55164 7.94761 5.56989 8.40527 5.53418C8.74975 5.5073 8.88472 5.24963 8.86816 4.77051C8.85609 4.42218 8.654 4.18773 8.34375 4.18652C7.23798 4.1823 6.13214 4.18309 5.02637 4.18555ZM22.6416 4.18457C22.2911 4.18499 22.0453 4.49793 22.0449 4.95703C22.0432 6.92993 22.0437 8.90308 22.0449 10.876C22.0453 11.3447 22.2927 11.6615 22.6582 11.6621C23.7726 11.6639 24.8875 11.6585 26.002 11.666C26.2214 11.6674 26.409 11.5694 26.4629 11.3135C26.5116 11.0817 26.5075 10.7986 26.4473 10.5732C26.4087 10.4297 26.2266 10.2591 26.1074 10.2568C25.2362 10.24 24.3643 10.251 23.4932 10.2803C23.2743 10.2876 23.2396 10.0887 23.2393 9.94043C23.2381 9.48395 23.2786 9.02685 23.3037 8.55176C24.0413 8.55176 24.7771 8.55416 25.5127 8.55078C25.8739 8.54912 26.1054 8.24035 26.0957 7.78516C26.0884 7.4468 25.8261 7.16349 25.5186 7.16309C24.85 7.16251 24.1809 7.14981 23.5127 7.16992C23.2886 7.17667 23.2401 7.01158 23.2422 6.81055C23.2464 6.41059 23.2793 6.01074 23.3027 5.56445C23.4425 5.55447 23.5969 5.53237 23.751 5.53418C24.3597 5.54134 24.9692 5.57918 25.5771 5.55762C25.8647 5.54748 26.21 5.65828 26.4014 5.22852C26.4567 5.10427 26.479 4.9555 26.5039 4.79688C26.4347 4.34691 26.2893 4.18467 25.96 4.18457C24.8541 4.1844 23.7475 4.18415 22.6416 4.18457ZM29.3828 5.57422C29.8311 5.59619 30.2343 5.57275 30.625 5.65137C31.1792 5.76294 31.4684 6.64012 31.1475 7.22656C30.9745 7.54259 30.6978 7.74006 30.3838 7.75391C29.9572 7.7727 29.5295 7.74957 29.1025 7.76172C28.9261 7.76674 28.8841 7.67173 28.8877 7.46582C28.896 6.99217 28.8895 6.51783 28.8896 6.04395C28.8898 5.57462 28.8904 5.57426 29.2539 5.57422C29.2967 5.57421 29.34 5.57422 29.3828 5.57422Z" fill="#D9D9D9"/>
</svg>
