<svg width="32" height="32" viewBox="0 0 32 32" fill="none" xmlns="http://www.w3.org/2000/svg">
<mask id="path-1-inside-1_4619_10416" fill="white">
<path d="M0 8C0 3.58172 3.58172 0 8 0H24C28.4183 0 32 3.58172 32 8V24C32 28.4183 28.4183 32 24 32H8C3.58172 32 0 28.4183 0 24V8Z"/>
</mask>
<path d="M0 8C0 3.58172 3.58172 0 8 0H24C28.4183 0 32 3.58172 32 8V24C32 28.4183 28.4183 32 24 32H8C3.58172 32 0 28.4183 0 24V8Z" fill="#C702C7"/>
<path d="M0 8C0 3.02944 4.02944 -1 9 -1H23C27.9706 -1 32 3.02944 32 8C32 4.13401 28.4183 1 24 1H8C3.58172 1 0 4.13401 0 8ZM32 32H0H32ZM0 32V0V32ZM32 0V32V0Z" fill="#E90EDE" mask="url(#path-1-inside-1_4619_10416)"/>
<path fill-rule="evenodd" clip-rule="evenodd" d="M13 12C13.3625 12 13.6731 12.2592 13.7379 12.6158L13.9902 14.0036C14.0833 14.5158 14.4842 14.9167 14.9964 15.0098L16.3842 15.2621C16.7408 15.3269 17 15.6375 17 16C17 16.3625 16.7408 16.6731 16.3842 16.7379L14.9964 16.9902C14.4842 17.0833 14.0833 17.4842 13.9902 17.9964L13.7379 19.3842C13.6731 19.7408 13.3625 20 13 20C12.6375 20 12.3269 19.7408 12.2621 19.3842L12.0098 17.9964C11.9167 17.4842 11.5158 17.0833 11.0036 16.9902L9.61584 16.7379C9.25922 16.6731 9 16.3625 9 16C9 15.6375 9.25922 15.3269 9.61584 15.2621L11.0036 15.0098C11.5158 14.9167 11.9167 14.5158 12.0098 14.0036L12.2621 12.6158C12.3269 12.2592 12.6375 12 13 12Z" fill="#FAFAFA"/>
<path fill-rule="evenodd" clip-rule="evenodd" d="M20 9C20.3349 9 20.6291 9.22198 20.7211 9.54396L20.9159 10.2256C21.0345 10.6409 21.3591 10.9655 21.7744 11.0841L22.456 11.2789C22.778 11.3709 23 11.6651 23 12C23 12.3349 22.778 12.6291 22.456 12.7211L21.7744 12.9159C21.3591 13.0345 21.0345 13.3591 20.9159 13.7744L20.7211 14.456C20.6291 14.778 20.3349 15 20 15C19.6651 15 19.3709 14.778 19.2789 14.456L19.0841 13.7744C18.9655 13.3591 18.6409 13.0345 18.2256 12.9159L17.544 12.7211C17.222 12.6291 17 12.3349 17 12C17 11.6651 17.222 11.3709 17.544 11.2789L18.2256 11.0841C18.6409 10.9655 18.9655 10.6409 19.0841 10.2256L19.2789 9.54396C19.3709 9.22198 19.6651 9 20 9Z" fill="#FAFAFA"/>
<path fill-rule="evenodd" clip-rule="evenodd" d="M18 19C18.3442 19 18.6441 19.2342 18.7276 19.5681C18.8143 19.9149 19.0851 20.1857 19.4319 20.2724C19.7658 20.3559 20 20.6558 20 21C20 21.3442 19.7658 21.6441 19.4319 21.7276C19.0851 21.8143 18.8143 22.0851 18.7276 22.4319C18.6441 22.7658 18.3442 23 18 23C17.6558 23 17.3559 22.7658 17.2724 22.4319C17.1857 22.0851 16.9149 21.8143 16.5681 21.7276C16.2342 21.6441 16 21.3442 16 21C16 20.6558 16.2342 20.3559 16.5681 20.2724C16.9149 20.1857 17.1857 19.9149 17.2724 19.5681C17.3559 19.2342 17.6558 19 18 19Z" fill="#FAFAFA"/>
</svg>
