<svg xmlns="http://www.w3.org/2000/svg" width="14" height="16" viewBox="0 0 14 16" fill="none">
  <path d="M9.31359 0.000562785C9.1099 0.00843296 8.91734 0.0984556 8.77734 0.251264L7.44054 1.65989C7.29779 1.63175 7.1507 1.61445 7 1.61445C6.8493 1.61445 6.70221 1.63175 6.55946 1.65989L5.22266 0.251264C5.15087 0.173467 5.06466 0.111329 4.96916 0.0685338C4.87365 0.0257387 4.77079 0.00315773 4.66667 0.00212967C4.51204 0.000627036 4.36049 0.0466951 4.23136 0.134451C4.10224 0.222206 4.0014 0.347667 3.94173 0.494811C3.88206 0.641955 3.86626 0.804105 3.89635 0.960554C3.92645 1.117 4.00106 1.26065 4.11068 1.37315L5.19379 2.51384C4.86893 2.92737 4.66667 3.4474 4.66667 4.02118C4.66667 4.06367 4.67671 4.08896 4.67882 4.12773C4.29567 4.23998 3.94306 4.4385 3.65799 4.73255C3.38529 5.01333 3.14325 5.31449 2.9197 5.62567H0.777778C0.348444 5.62567 0 5.98508 0 6.42792C0 6.87075 0.348444 7.23016 0.777778 7.23016H2.03711C1.82928 7.75404 1.68632 8.29234 1.6148 8.83465H0.777778C0.348444 8.83465 0 9.19405 0 9.63689C0 10.0797 0.348444 10.4391 0.777778 10.4391H1.59049C1.6364 11.0098 1.72896 11.5469 1.87001 12.0436H0.777778C0.348444 12.0436 0 12.403 0 12.8459C0 13.2887 0.348444 13.6481 0.777778 13.6481H2.56727C3.37711 14.9603 4.63679 15.7958 6.22222 16V8.0324C6.22222 7.58956 6.57067 7.23016 7 7.23016C7.42933 7.23016 7.77778 7.58956 7.77778 8.0324V16C9.36321 15.7958 10.6229 14.9603 11.4327 13.6481H13.2222C13.6516 13.6481 14 13.2887 14 12.8459C14 12.403 13.6516 12.0436 13.2222 12.0436H12.13C12.271 11.5469 12.3636 11.0098 12.4095 10.4391H13.2222C13.6516 10.4391 14 10.0797 14 9.63689C14 9.19405 13.6516 8.83465 13.2222 8.83465H12.3806C12.3053 8.29919 12.157 7.75821 11.9462 7.23016H13.2222C13.6516 7.23016 14 6.87075 14 6.42792C14 5.98508 13.6516 5.62567 13.2222 5.62567H11.0727C10.8498 5.31035 10.6095 5.00795 10.342 4.73255C10.0569 4.4385 9.70433 4.23998 9.32118 4.12773C9.32329 4.08896 9.33333 4.06367 9.33333 4.02118C9.33333 3.4474 9.13107 2.92737 8.80621 2.51384L9.88932 1.37315C10.0008 1.25954 10.0765 1.11384 10.1063 0.955132C10.1362 0.796423 10.1189 0.632115 10.0566 0.483739C9.99438 0.335362 9.89013 0.20984 9.75755 0.123622C9.62496 0.0374028 9.47021 -0.00549041 9.31359 0.000562785Z" fill="#E9E9E9"/>
</svg>