<svg xmlns="http://www.w3.org/2000/svg" width="16" height="16" viewBox="0 0 16 16" fill="none">
  <g clip-path="url(#clip0_18678_222861)">
    <path d="M7.99989 0.640015C3.93493 0.640015 0.639893 3.93505 0.639893 8.00001C0.639893 12.065 3.93493 15.36 7.99989 15.36C12.0649 15.36 15.3599 12.065 15.3599 8.00001C15.3599 3.93505 12.0649 0.640015 7.99989 0.640015ZM7.99989 3.52001C8.53013 3.52001 8.95989 3.94977 8.95989 4.48001C8.95989 5.01025 8.53013 5.44001 7.99989 5.44001C7.46965 5.44001 7.03989 5.01025 7.03989 4.48001C7.03989 3.94977 7.46965 3.52001 7.99989 3.52001ZM9.27989 12.16H8.63989H7.35989H6.71989V11.52H7.35989V7.36001H6.71989V6.72001H7.35989H8.63989V7.36001V11.52H9.27989V12.16Z" fill="#E9E9E9"/>
  </g>
  <defs>
    <clipPath id="clip0_18678_222861">
      <rect width="16" height="16" fill="white"/>
    </clipPath>
  </defs>
</svg>