<svg xmlns="http://www.w3.org/2000/svg" width="16" height="16" viewBox="0 0 16 16" fill="none">
  <g clip-path="url(#clip0_18678_222878)">
    <path d="M12.34 -0.0299907C11.1237 -0.00624072 9.6475 0.752509 8.96 1.44001C8.08625 2.31376 8.01 3.51376 8.74 4.76001L7.6 5.90001L8.01 6.30001C8.225 6.12001 8.5025 6.02001 8.8 6.02001C9.13125 6.02001 9.44875 6.14001 9.67 6.36001L9.89 6.59001C10.1812 6.88126 10.3062 7.29251 10.23 7.69001L10.45 7.92001C10.49 7.92001 10.53 7.92751 10.57 7.93001L11.25 7.25001C11.8225 7.55751 12.3737 7.71001 12.88 7.71001C13.5037 7.71001 14.065 7.47501 14.53 7.01001C15.39 6.15001 16.3263 4.14501 15.89 2.84001C15.855 2.73501 15.7688 2.65501 15.66 2.63001C15.5512 2.60376 15.4387 2.64126 15.36 2.72001L13.66 4.41001C13.5562 4.51376 13.3612 4.50751 13.25 4.41001L11.55 2.72001C11.4462 2.61626 11.4525 2.42251 11.55 2.31001L13.25 0.610009C13.3275 0.532509 13.365 0.417509 13.34 0.310009C13.315 0.202509 13.2337 0.116259 13.13 0.0800093C12.89 -0.0024907 12.6212 -0.0349907 12.34 -0.0299907ZM0.8 9.2946e-06L0 0.800009L1.34 3.14001L2.21 3.01001L7.2 8.00001L6.82 8.38001C6.59875 8.60126 6.59875 8.99876 6.82 9.22001L7.04 9.44001C7.1975 9.59626 7.4625 9.64876 7.67 9.57001L7.87 9.50001L8.57 10.2L8.55 10.35C8.51375 10.69 8.6475 11.0475 8.9 11.3L13.1 15.51C13.425 15.835 13.8512 16.01 14.3 16.01C14.7487 16.01 15.1812 15.8288 15.51 15.5C16.1512 14.8288 16.1562 13.7563 15.51 13.11L11.3 8.90001C11.0612 8.66126 10.7188 8.53501 10.35 8.56001L10.2 8.57001L9.5 7.87001L9.57 7.67001C9.655 7.45126 9.605 7.20501 9.44 7.04001L9.22 6.82001C9.0175 6.61751 8.5825 6.61751 8.38 6.82001L8 7.20001L3.01 2.21001L3.14 1.34001L0.8 9.2946e-06ZM5.9 7.60001L3.96 9.54001C3.73875 9.49626 3.52125 9.47001 3.3 9.47001C1.5 9.47001 0.03 10.94 0.03 12.74C0.03 14.54 1.5 16 3.3 16C5.1 16 6.56 14.54 6.56 12.74C6.56 12.4688 6.5375 12.2338 6.48 12.02L7.91 10.59C7.90625 10.5413 7.89875 10.4888 7.9 10.44L7.69 10.23C7.29875 10.3038 6.87125 10.1713 6.59 9.89001L6.36 9.67001C5.9125 9.22251 5.8975 8.48626 6.3 8.01001L5.9 7.60001ZM10.15 9.69001L13.99 13.53L13.53 13.99L9.69 10.15L10.15 9.69001ZM3.68 11.2L4.8 12.32L4.42 13.82L2.88 14.24L1.76 13.12L2.18 11.62L3.68 11.2Z" fill="#E9E9E9"/>
  </g>
  <defs>
    <clipPath id="clip0_18678_222878">
      <rect width="16" height="16" fill="white"/>
    </clipPath>
  </defs>
</svg>