<svg width="72" height="72" viewBox="0 0 72 72" fill="none" xmlns="http://www.w3.org/2000/svg">
<g clip-path="url(#clip0_15348_11960)">
<path d="M26.6691 17.058C26.6691 17.058 28 8.86241 39.5 8.50001C58.3691 7.9054 58.3691 23.18 58.3691 23.18C58.3691 23.18 61.4291 22.272 65.1881 23.715C69.4341 25.346 72.1061 31.92 70.0531 38.642C68.5731 43.487 64.4141 45.973 59.2261 46.072C54.2581 46.167 48.44 45.95 43 45.95C43.5 42.5 43.9281 28.107 43.8281 25.021C43.6341 19.041 42 20 37 20C31.5 20 30.2291 20 30.2291 25.021C30.3441 27.99 31.5 42.5 32 45.95C25.653 45.95 17.7751 46.367 11.6951 45.95C7.11306 45.635 4.15106 42.596 3.19306 38.074C2.15806 33.183 4.27906 27.728 8.80006 26.329C9.97606 25.964 12.2511 25.688 12.2511 25.688C12.2511 25.688 11.0671 21.765 14.5931 18.021C20.0061 12.272 26.6691 17.058 26.6691 17.058Z" fill="white"/>
<path d="M41.198 22V38.976L40.696 44.471C40.696 44.471 39.6958 46.971 37.1958 46.971C34.6958 46.971 33.6958 44.471 33.6958 44.471L33.196 38.852L33 22H41.198Z" fill="#AF4159"/>
<circle cx="37" cy="53" r="4" fill="#AF4159"/>
</g>
<defs>
<clipPath id="clip0_15348_11960">
<rect width="72" height="72" fill="white"/>
</clipPath>
</defs>
</svg>
