<svg width="72" height="72" viewBox="0 0 72 72" fill="none" xmlns="http://www.w3.org/2000/svg">
<g clip-path="url(#clip0_15190_4131)">
<path d="M31.8731 68.186C11.4331 55.985 8.29413 36.616 9.06313 15.633C9.09613 14.721 10.3201 13.413 11.2801 13.043C19.5881 9.839 27.9551 6.786 36.3311 3.762C37.1361 3.472 38.2411 3.4 39.0091 3.711C47.8501 7.295 56.6521 10.972 65.9981 14.846C68.3041 37.807 62.2131 57.129 43.4541 68.314C39.3951 70.734 35.9701 71.464 31.8731 68.186ZM61.8901 22.552V18.305C53.9291 15.098 46.7611 12.148 39.5301 9.362C38.4331 8.94 36.9001 8.9 35.8151 9.319C28.4501 12.161 21.1521 15.174 13.4451 18.288C13.8771 29.47 13.6151 41.511 21.5331 52.503C21.9031 50.766 22.0151 49.938 22.2571 49.149C24.6561 41.321 27.9561 39.272 36.1041 40.319C37.5441 40.504 39.0791 40.325 40.5201 40.05C45.8961 39.026 50.1851 41.39 52.1701 46.666C52.7861 48.303 53.2471 49.998 53.8451 51.876C58.8591 46.234 61.1881 37.751 61.8901 22.552Z" fill="white"/>
<path d="M37.6913 37.9891C42.7171 37.9891 46.7913 33.9149 46.7913 28.8891C46.7913 23.8633 42.7171 19.7891 37.6913 19.7891C32.6655 19.7891 28.5913 23.8633 28.5913 28.8891C28.5913 33.9149 32.6655 37.9891 37.6913 37.9891Z" fill="white"/>
</g>
<defs>
<clipPath id="clip0_15190_4131">
<rect width="72" height="72" fill="white"/>
</clipPath>
</defs>
</svg>
