<svg width="72" height="72" viewBox="0 0 72 72" fill="none" xmlns="http://www.w3.org/2000/svg">
<g clip-path="url(#clip0_15193_3472)">
<path d="M52.4658 40.919C53.9818 38.198 58.7168 30.173 60.8498 29.215C64.0038 27.797 65.9488 28.239 67.4828 29.518C70.3888 31.941 71.4778 32.704 70.9128 36.598C70.3598 40.412 58.6428 47.515 58.6428 47.515L57.5158 46.166C57.5158 46.166 62.9868 41.472 65.4928 39.017C67.1568 37.387 69.1988 35.599 66.6988 33.19C64.3458 30.923 62.4988 32.515 60.8028 34.344C58.4828 36.846 56.1488 39.334 53.8198 41.829C53.3688 41.525 52.9178 41.222 52.4658 40.919Z" fill="white"/>
<path d="M53.5669 52.391C52.0509 55.112 47.3159 63.137 45.1829 64.095C42.0289 65.513 40.0839 65.071 38.5499 63.792C35.6439 61.369 34.5549 60.606 35.1199 56.712C35.6729 52.898 47.3899 45.795 47.3899 45.795L48.5169 47.144C48.5169 47.144 43.0459 51.838 40.5399 54.293C38.8759 55.923 36.8339 57.711 39.3339 60.12C41.6869 62.387 43.5339 60.795 45.2299 58.966C47.5499 56.464 49.8839 53.976 52.2129 51.481C52.6639 51.785 53.1149 52.088 53.5669 52.391Z" fill="white"/>
<path fill-rule="evenodd" clip-rule="evenodd" d="M44.3961 45.222C44.0461 45.626 43.8461 45.856 43.8461 45.856C43.8461 45.856 17.7751 46.367 11.6951 45.95C7.11306 45.635 4.15106 42.596 3.19306 38.074C2.15806 33.183 4.27906 27.728 8.80006 26.329C9.97606 25.964 12.2511 25.688 12.2511 25.688C12.2511 25.688 11.0671 21.765 14.5931 18.021C20.0061 12.272 26.6691 17.058 26.6691 17.058C26.6691 17.058 31.5921 8.66098 40.8901 8.36798C59.5601 7.77998 58.3691 23.18 58.3691 23.18C61.3171 22.224 64.2441 23.049 66.0871 25.812C66.0871 25.812 64.1761 25.673 60.0851 27.511C59.2791 27.873 58.1081 28.963 56.9101 30.506C56.1381 31.501 54.3881 33.585 52.4111 35.907L51.4861 29.782C51.4071 29.256 51.1071 28.789 50.6631 28.498C50.2181 28.207 49.6701 28.119 49.1561 28.257L45.3041 29.289C44.7911 29.426 44.3601 29.776 44.1201 30.251C43.8811 30.725 43.8551 31.28 44.0491 31.775L47.2551 39.951L39.7191 36.25C39.2421 36.015 38.6881 35.995 38.1951 36.195C37.7021 36.394 37.3181 36.794 37.1381 37.295L35.7911 41.049C35.6111 41.549 35.6541 42.102 35.9071 42.569C36.1601 43.037 36.6011 43.374 37.1181 43.497L44.3961 45.222Z" fill="white"/>
<path fill-rule="evenodd" clip-rule="evenodd" d="M38.8962 37.9261L46.9322 41.8733L46.2605 43.7444L37.5488 41.6796L38.8962 37.9261Z" fill="white"/>
<path fill-rule="evenodd" clip-rule="evenodd" d="M49.6397 30.0608L50.9765 38.9135L49.0562 39.428L45.7876 31.093L49.6397 30.0608Z" fill="white"/>
<path fill-rule="evenodd" clip-rule="evenodd" d="M67.4993 55.1296L59.4633 51.1825L60.135 49.3114L68.8467 51.3762L67.4993 55.1296Z" fill="white"/>
<path fill-rule="evenodd" clip-rule="evenodd" d="M56.7563 62.995L55.4195 54.1423L57.3398 53.6278L60.6084 61.9628L56.7563 62.995Z" fill="white"/>
</g>
<defs>
<clipPath id="clip0_15193_3472">
<rect width="72" height="72" fill="white"/>
</clipPath>
</defs>
</svg>
