<svg width="20" height="20" viewBox="0 0 20 20" fill="none" xmlns="http://www.w3.org/2000/svg">
<path d="M15.6569 6.35391C16.1255 5.88528 16.1255 5.12548 15.6569 4.65685C15.1882 4.18822 14.4284 4.18823 13.9598 4.65685L10 8.61665L6.0402 4.65685C5.57157 4.18823 4.81178 4.18822 4.34315 4.65685C3.87452 5.12548 3.87452 5.88528 4.34315 6.35391L8.30294 10.3137L4.34315 14.2735C3.87452 14.7421 3.87452 15.5019 4.34315 15.9706C4.81178 16.4392 5.57157 16.4392 6.0402 15.9706L10 12.0108L13.9598 15.9706C14.4284 16.4392 15.1882 16.4392 15.6569 15.9706C16.1255 15.5019 16.1255 14.7421 15.6569 14.2735L11.6971 10.3137L15.6569 6.35391Z" fill="#FAFAFA"/>
</svg>
