<svg width="43" height="43" viewBox="0 0 43 43" fill="none" xmlns="http://www.w3.org/2000/svg">
<path d="M21.4875 6.45898C13.1756 6.45898 6.4375 13.1971 6.4375 21.509C6.4375 29.8209 13.1756 36.559 21.4875 36.559C29.7994 36.559 36.5375 29.8209 36.5375 21.509C36.5375 13.1971 29.7994 6.45898 21.4875 6.45898Z" fill="#EDDC67"/>
<path d="M21.4938 8.60938C14.3691 8.60938 8.59375 14.3847 8.59375 21.5094C8.59375 28.634 14.3691 34.4094 21.4938 34.4094C28.6184 34.4094 34.3937 28.634 34.3937 21.5094C34.3937 14.3847 28.6184 8.60938 21.4938 8.60938Z" fill="#FEF6AA"/>
<path d="M21.5034 36.9795C12.9675 36.9795 6.02344 30.0355 6.02344 21.4995C6.02344 12.9636 12.9675 6.01953 21.5034 6.01953C30.0394 6.01953 36.9834 12.9636 36.9834 21.4995C36.9834 30.0355 30.0394 36.9795 21.5034 36.9795ZM21.5034 6.87953C13.4418 6.87953 6.88344 13.4379 6.88344 21.4995C6.88344 29.5612 13.4418 36.1195 21.5034 36.1195C29.5651 36.1195 36.1234 29.5612 36.1234 21.4995C36.1234 13.4379 29.5651 6.87953 21.5034 6.87953Z" fill="#1F212B"/>
<path d="M34.0903 23.2267C34.0774 23.2267 34.0636 23.2254 34.0503 23.2228C33.9338 23.2009 33.8568 23.0886 33.8787 22.9721C33.9028 22.8422 33.9161 22.7098 33.9187 22.5774C33.9209 22.4587 34.0211 22.3649 34.1376 22.3662C34.2563 22.3684 34.3509 22.466 34.3487 22.5851C34.3461 22.7412 34.3302 22.8986 34.3014 23.0512C34.2821 23.1544 34.1918 23.2267 34.0903 23.2267Z" fill="#1F212B"/>
<path d="M33.7621 24.9247C33.7441 24.9247 33.7264 24.9226 33.7084 24.9179C33.5936 24.8886 33.5243 24.7712 33.5536 24.6564L33.6611 24.2367C33.6907 24.1211 33.8081 24.0527 33.9229 24.0819C34.0378 24.1112 34.107 24.2286 34.0777 24.3434L33.9702 24.7631C33.9453 24.8602 33.858 24.9247 33.7621 24.9247Z" fill="#1F212B"/>
<path d="M33.2231 26.5693C33.1985 26.5693 33.1736 26.565 33.1491 26.5564C33.0377 26.5155 32.9801 26.3921 33.021 26.2803L33.1697 25.8735C33.2106 25.7622 33.3336 25.705 33.4458 25.7454C33.5572 25.7862 33.6148 25.9096 33.5739 26.0214L33.4252 26.4282C33.3929 26.5151 33.3108 26.5693 33.2231 26.5693Z" fill="#1F212B"/>
<path d="M32.4412 28.1132C32.4034 28.1132 32.3651 28.1033 32.3307 28.0826C32.2288 28.0212 32.1961 27.8891 32.2576 27.7872L32.4808 27.4166C32.5423 27.3147 32.6743 27.2824 32.7758 27.343C32.8777 27.4045 32.9103 27.5365 32.8489 27.6385L32.6257 28.0091C32.5853 28.0762 32.5139 28.1132 32.4412 28.1132Z" fill="#1F212B"/>
<path d="M31.4727 29.544C31.428 29.544 31.3829 29.5302 31.3442 29.501C31.2491 29.43 31.2294 29.295 31.3007 29.2L31.56 28.853C31.6314 28.7579 31.766 28.7381 31.861 28.8095C31.9561 28.8805 31.9758 29.0155 31.9045 29.1105L31.6452 29.4575C31.6026 29.5143 31.5381 29.544 31.4727 29.544Z" fill="#1F212B"/>
<path d="M30.3166 30.8293C30.2555 30.8293 30.1953 30.8035 30.1527 30.7532C30.0758 30.6629 30.087 30.5274 30.1773 30.4505C30.2774 30.3653 30.372 30.2707 30.4589 30.1692C30.5363 30.0785 30.6722 30.0686 30.7621 30.1447C30.8524 30.2221 30.8631 30.3576 30.7861 30.4479C30.6847 30.567 30.5733 30.6779 30.4559 30.7781C30.415 30.8125 30.366 30.8293 30.3166 30.8293Z" fill="#1F212B"/>
<path d="M28.9888 31.9411C28.9234 31.9411 28.8585 31.9115 28.8164 31.8547C28.745 31.7597 28.7648 31.6251 28.8598 31.5541L29.2068 31.2949C29.3023 31.2235 29.4369 31.2432 29.5078 31.3387C29.5792 31.4337 29.5594 31.5683 29.4644 31.6393L29.1174 31.8986C29.0787 31.9274 29.0335 31.9411 28.9888 31.9411Z" fill="#1F212B"/>
<path d="M27.5354 32.8778C27.4623 32.8778 27.3914 32.8408 27.3509 32.7737C27.2899 32.6718 27.323 32.5398 27.4245 32.4783L27.7956 32.2552C27.8979 32.1945 28.0291 32.2268 28.091 32.3287C28.152 32.4306 28.1189 32.5626 28.0174 32.6241L27.6468 32.8473C27.6111 32.8679 27.5733 32.8778 27.5354 32.8778Z" fill="#1F212B"/>
<path d="M25.9496 33.582C25.8619 33.582 25.7793 33.5278 25.7475 33.4409C25.7067 33.3291 25.7643 33.2057 25.8757 33.1648L26.2824 33.0161C26.3938 32.9752 26.5176 33.0328 26.5585 33.1442C26.5993 33.256 26.5417 33.3794 26.4304 33.4203L26.0236 33.5691C25.9991 33.5777 25.9741 33.582 25.9496 33.582Z" fill="#1F212B"/>
<path d="M24.2931 34.0816C24.1972 34.0816 24.1099 34.0175 24.085 33.9203C24.0553 33.8051 24.1246 33.6881 24.2398 33.6585L24.659 33.5505C24.7734 33.5217 24.8917 33.5901 24.9209 33.7049C24.9506 33.8201 24.8814 33.9371 24.7661 33.9668L24.3469 34.0747C24.3292 34.0794 24.3112 34.0816 24.2931 34.0816Z" fill="#1F212B"/>
<path d="M22.5822 34.3452C22.4653 34.3452 22.3694 34.2514 22.3672 34.134C22.3651 34.0154 22.4597 33.9173 22.5784 33.9152C22.7095 33.913 22.8424 33.8997 22.9731 33.8752C23.0896 33.852 23.2019 33.9302 23.2238 34.0467C23.2453 34.1633 23.1683 34.2759 23.0518 34.2974C22.8978 34.3262 22.7409 34.3422 22.5861 34.3447C22.5848 34.3452 22.5835 34.3452 22.5822 34.3452Z" fill="#1F212B"/>
<path d="M21.2885 34.3892C21.2846 34.3892 21.2812 34.3892 21.2773 34.3888L20.8447 34.3669C20.7265 34.3608 20.6349 34.2602 20.6409 34.1416C20.6469 34.0233 20.7536 33.9244 20.8667 33.9377L21.2992 33.9597C21.4175 33.9657 21.5091 34.0663 21.5031 34.185C21.497 34.2998 21.402 34.3892 21.2885 34.3892Z" fill="#1F212B"/>
<path d="M19.5654 34.2354C19.5547 34.2354 19.5439 34.2345 19.5327 34.2328L19.1045 34.1679C18.9871 34.1503 18.9067 34.0406 18.9243 33.9232C18.9424 33.8063 19.052 33.7237 19.169 33.7431L19.5972 33.808C19.7146 33.8256 19.795 33.9353 19.7774 34.0527C19.7615 34.1589 19.6699 34.2354 19.5654 34.2354Z" fill="#1F212B"/>
<path d="M17.8764 33.8656C17.8618 33.8656 17.8467 33.8643 17.8317 33.8609C17.7134 33.836 17.5995 33.7947 17.4864 33.7525L17.3931 33.7181C17.2813 33.6786 17.2228 33.5556 17.2624 33.4438C17.3019 33.3316 17.4253 33.2714 17.5371 33.3131L17.6365 33.3492C17.7298 33.384 17.8227 33.4193 17.9203 33.4399C18.0364 33.4644 18.1108 33.5784 18.0862 33.6945C18.0656 33.7964 17.9762 33.8656 17.8764 33.8656Z" fill="#1F212B"/>
<path d="M16.2537 33.2527C16.2223 33.2527 16.191 33.2458 16.1609 33.2312L15.7704 33.0433C15.6633 32.9921 15.6182 32.8636 15.6698 32.7565C15.7214 32.6499 15.85 32.6043 15.9566 32.6563L16.347 32.8442C16.4541 32.8954 16.4993 33.024 16.4477 33.131C16.4107 33.2076 16.3337 33.2527 16.2537 33.2527Z" fill="#1F212B"/>
<path d="M14.7301 32.4297C14.691 32.4297 14.651 32.4189 14.6153 32.3966L14.485 32.317C14.4016 32.2671 14.3178 32.2168 14.2386 32.1605C14.1419 32.0917 14.1195 31.9571 14.1883 31.8608C14.2571 31.7645 14.3913 31.7412 14.488 31.8105C14.5581 31.8599 14.6317 31.9042 14.7056 31.9481C14.7525 31.9756 14.7994 32.004 14.8454 32.0328C14.9456 32.0964 14.9757 32.2293 14.912 32.3295C14.8712 32.3944 14.8015 32.4297 14.7301 32.4297Z" fill="#1F212B"/>
<path d="M13.3323 31.4123C13.2807 31.4123 13.2291 31.3938 13.1878 31.3564L12.8675 31.0653C12.7793 30.9853 12.7729 30.8494 12.8529 30.7617C12.9328 30.674 13.0692 30.6675 13.1564 30.7471L13.4768 31.0382C13.5649 31.1182 13.5714 31.254 13.4914 31.3418C13.4493 31.3882 13.3908 31.4123 13.3323 31.4123Z" fill="#1F212B"/>
<path d="M12.1002 30.2035C12.0417 30.2035 11.9837 30.1794 11.9411 30.133L11.6496 29.8122C11.5696 29.7245 11.5765 29.5882 11.6642 29.5086C11.7524 29.4291 11.8882 29.436 11.9682 29.5233L12.2598 29.844C12.3397 29.9318 12.3329 30.0681 12.2451 30.1476C12.2034 30.185 12.1518 30.2035 12.1002 30.2035Z" fill="#1F212B"/>
<path d="M11.0149 28.8505C10.9478 28.8505 10.8816 28.8191 10.8394 28.7602C10.7814 28.6793 10.7302 28.5933 10.6791 28.5077L10.6034 28.383C10.5402 28.2824 10.5703 28.1496 10.6709 28.0868C10.7715 28.0231 10.9039 28.0545 10.9672 28.1539L11.048 28.2876C11.0931 28.3633 11.1379 28.4394 11.1895 28.5112C11.2583 28.6079 11.2359 28.7421 11.1392 28.8109C11.1017 28.8371 11.0579 28.8505 11.0149 28.8505Z" fill="#1F212B"/>
<path d="M10.1532 27.3521C10.0732 27.3521 9.99624 27.3074 9.95926 27.2304L9.77135 26.8404C9.71975 26.7333 9.7649 26.6048 9.87197 26.5536C9.97947 26.502 10.1072 26.5471 10.1588 26.6538L10.3467 27.0438C10.3983 27.1509 10.3531 27.2794 10.2461 27.3306C10.2164 27.3456 10.1846 27.3521 10.1532 27.3521Z" fill="#1F212B"/>
<path d="M9.49016 25.7552C9.40158 25.7552 9.31902 25.7002 9.28763 25.612L9.25323 25.5178C9.21109 25.4047 9.17024 25.2917 9.1453 25.1734C9.12079 25.0569 9.19518 24.9429 9.31128 24.9184C9.42695 24.8918 9.54133 24.9679 9.56584 25.0844C9.58648 25.182 9.62174 25.2749 9.65614 25.3682L9.69269 25.468C9.73225 25.5798 9.67377 25.7027 9.56197 25.7427C9.53832 25.7518 9.51381 25.7552 9.49016 25.7552Z" fill="#1F212B"/>
<path d="M9.04593 24.0822C8.94144 24.0822 8.84985 24.0061 8.83351 23.8995L8.76815 23.4716C8.75009 23.3546 8.83093 23.245 8.94832 23.2269C9.06657 23.2097 9.17536 23.2897 9.19299 23.4071L9.25835 23.835C9.27641 23.9519 9.19557 24.0616 9.07818 24.0796C9.06743 24.0813 9.05668 24.0822 9.04593 24.0822Z" fill="#1F212B"/>
<path d="M8.85397 22.3634C8.74002 22.3634 8.64542 22.274 8.6394 22.1592L8.61747 21.7266C8.61145 21.6079 8.70304 21.5069 8.82129 21.5013C8.93954 21.4875 9.04102 21.5864 9.04704 21.7051L9.06897 22.1377C9.07499 22.2564 8.9834 22.3574 8.86515 22.363C8.86128 22.3634 8.85741 22.3634 8.85397 22.3634Z" fill="#1F212B"/>
<path d="M8.87129 20.6329C8.87 20.6329 8.86871 20.6329 8.86742 20.6329C8.74874 20.6307 8.65414 20.5331 8.65629 20.414C8.65887 20.2579 8.67478 20.1005 8.70359 19.9479C8.72552 19.8313 8.83689 19.7539 8.95428 19.7763C9.07081 19.7982 9.14778 19.9105 9.12585 20.027C9.10177 20.1569 9.08844 20.2893 9.08586 20.4217C9.08414 20.5396 8.98825 20.6329 8.87129 20.6329Z" fill="#1F212B"/>
<path d="M9.13712 18.9239C9.11906 18.9239 9.10143 18.9218 9.08337 18.917C8.96856 18.8878 8.89933 18.7704 8.92857 18.6556L9.03607 18.2359C9.06574 18.1202 9.18356 18.0514 9.29794 18.0811C9.41275 18.1104 9.48198 18.2277 9.45274 18.3426L9.34524 18.7622C9.3203 18.8594 9.23301 18.9239 9.13712 18.9239Z" fill="#1F212B"/>
<path d="M9.63711 17.2667C9.6126 17.2667 9.58767 17.2624 9.56316 17.2538C9.45179 17.213 9.39417 17.0895 9.43502 16.9777L9.5838 16.571C9.62465 16.4596 9.74806 16.402 9.85986 16.4428C9.97123 16.4837 10.0288 16.6071 9.98799 16.7189L9.83922 17.1257C9.80697 17.2125 9.72483 17.2667 9.63711 17.2667Z" fill="#1F212B"/>
<path d="M10.3397 15.6864C10.3018 15.6864 10.2635 15.6765 10.2291 15.6559C10.1272 15.5944 10.0946 15.4624 10.156 15.3605L10.3792 14.9898C10.4403 14.8879 10.5723 14.8557 10.6742 14.9163C10.7761 14.9778 10.8088 15.1098 10.7473 15.2117L10.5241 15.5824C10.4837 15.6499 10.4123 15.6864 10.3397 15.6864Z" fill="#1F212B"/>
<path d="M11.2774 14.2315C11.2327 14.2315 11.1876 14.2177 11.1489 14.1885C11.0538 14.1175 11.034 13.9825 11.1054 13.8875L11.3647 13.5405C11.4357 13.4454 11.5707 13.4256 11.6657 13.497C11.7607 13.568 11.7805 13.703 11.7091 13.798L11.4499 14.145C11.4077 14.2014 11.3432 14.2315 11.2774 14.2315Z" fill="#1F212B"/>
<path d="M12.3871 12.9056C12.3376 12.9056 12.2882 12.8888 12.2473 12.8544C12.157 12.777 12.1463 12.6416 12.2232 12.5513C12.3247 12.4322 12.4361 12.3212 12.5535 12.221C12.6442 12.1445 12.7797 12.1548 12.8566 12.246C12.9336 12.3363 12.9224 12.4717 12.8321 12.5487C12.7319 12.6338 12.6373 12.7284 12.5505 12.8299C12.5079 12.8798 12.4477 12.9056 12.3871 12.9056Z" fill="#1F212B"/>
<path d="M13.6763 11.7469C13.6109 11.7469 13.546 11.7173 13.5039 11.6605C13.4325 11.5655 13.4523 11.4309 13.5473 11.3599L13.8943 11.1006C13.9893 11.0293 14.1239 11.0486 14.1953 11.1445C14.2667 11.2395 14.2469 11.3741 14.1519 11.4451L13.8049 11.7044C13.7657 11.7332 13.721 11.7469 13.6763 11.7469Z" fill="#1F212B"/>
<path d="M15.1057 10.7746C15.0326 10.7746 14.9617 10.7376 14.9213 10.6705C14.8602 10.5686 14.8933 10.4366 14.9948 10.3751L15.3655 10.1519C15.4674 10.0909 15.5994 10.1231 15.6609 10.2255C15.7219 10.3274 15.6888 10.4594 15.5873 10.5209L15.2162 10.744C15.1814 10.7642 15.1436 10.7746 15.1057 10.7746Z" fill="#1F212B"/>
<path d="M16.6527 9.99601C16.565 9.99601 16.4825 9.94183 16.4506 9.85497C16.4098 9.74317 16.4674 9.61976 16.5788 9.57891L16.9856 9.43013C17.0969 9.38928 17.2208 9.4469 17.2616 9.55827C17.3025 9.67007 17.2448 9.79348 17.1335 9.83433L16.7267 9.98311C16.7026 9.99171 16.6777 9.99601 16.6527 9.99601Z" fill="#1F212B"/>
<path d="M18.2931 9.4556C18.1972 9.4556 18.1099 9.39153 18.085 9.29435C18.0553 9.17911 18.1246 9.06215 18.2398 9.03248L18.659 8.92455C18.7734 8.89574 18.8912 8.96411 18.9209 9.07892C18.9506 9.19373 18.8814 9.31112 18.7661 9.34079L18.3469 9.44872C18.3288 9.45345 18.3107 9.4556 18.2931 9.4556Z" fill="#1F212B"/>
<path d="M19.9882 9.12834C19.8867 9.12834 19.7964 9.0561 19.777 8.9529C19.7555 8.83637 19.8325 8.72371 19.949 8.70221C20.103 8.6734 20.2599 8.65749 20.4147 8.65491C20.5347 8.64545 20.6314 8.74736 20.6336 8.86604C20.6357 8.98472 20.5411 9.08276 20.4225 9.08491C20.2913 9.08706 20.1584 9.10039 20.0277 9.1249C20.0144 9.12705 20.0015 9.12834 19.9882 9.12834Z" fill="#1F212B"/>
<path d="M22.1557 9.06188C22.1518 9.06188 22.1484 9.06188 22.1445 9.06145L21.7119 9.03952C21.5937 9.0335 21.5021 8.93288 21.5081 8.8142C21.5141 8.69595 21.6177 8.59834 21.7338 8.61038L22.1664 8.63231C22.2847 8.63833 22.3763 8.73895 22.3702 8.85763C22.3647 8.97244 22.2696 9.06188 22.1557 9.06188Z" fill="#1F212B"/>
<path d="M23.8701 9.25786C23.8594 9.25786 23.8486 9.257 23.8374 9.25528L23.4092 9.19035C23.2918 9.17272 23.2114 9.06307 23.229 8.94568C23.247 8.82872 23.355 8.74616 23.4737 8.76551L23.9019 8.83044C24.0193 8.84807 24.0997 8.95772 24.0821 9.07511C24.0662 9.18132 23.9746 9.25786 23.8701 9.25786Z" fill="#1F212B"/>
<path d="M25.5475 9.69803C25.5234 9.69803 25.4993 9.69416 25.4757 9.68556L25.3763 9.64944C25.283 9.61461 25.1901 9.57935 25.0925 9.55871C24.9764 9.5342 24.902 9.42025 24.9265 9.30415C24.9511 9.18762 25.0654 9.11237 25.1811 9.13774C25.2994 9.16268 25.4133 9.20396 25.5264 9.2461L25.6197 9.2805C25.7315 9.32006 25.79 9.44304 25.7504 9.55484C25.7186 9.64299 25.636 9.69803 25.5475 9.69803Z" fill="#1F212B"/>
<path d="M27.1444 10.3642C27.113 10.3642 27.0816 10.3574 27.0515 10.3427L26.661 10.1548C26.554 10.1037 26.5088 9.97509 26.5604 9.86802C26.6116 9.76138 26.7402 9.71537 26.8472 9.76783L27.2377 9.95574C27.3447 10.0069 27.3899 10.1355 27.3383 10.2426C27.3013 10.3191 27.2243 10.3642 27.1444 10.3642Z" fill="#1F212B"/>
<path d="M28.6368 11.2283C28.5938 11.2283 28.5499 11.2154 28.5121 11.1883C28.442 11.1389 28.3684 11.0946 28.2945 11.0507C28.2476 11.0232 28.2007 10.9948 28.1547 10.966C28.0545 10.9024 28.0244 10.7695 28.0881 10.6693C28.1517 10.5687 28.2842 10.5394 28.3848 10.6026L28.5151 10.6822C28.5985 10.7321 28.6823 10.7824 28.7615 10.8387C28.8582 10.9075 28.8806 11.0421 28.8118 11.1384C28.7701 11.1969 28.7038 11.2283 28.6368 11.2283Z" fill="#1F212B"/>
<path d="M29.9964 12.3078C29.9448 12.3078 29.8932 12.2893 29.8519 12.2519L29.5315 11.9608C29.4434 11.8808 29.4369 11.7449 29.5169 11.6572C29.5973 11.5695 29.7328 11.563 29.8205 11.6426L30.1409 11.9337C30.229 12.0137 30.2355 12.1495 30.1555 12.2373C30.1129 12.2837 30.0544 12.3078 29.9964 12.3078Z" fill="#1F212B"/>
<path d="M31.2018 13.5464C31.1433 13.5464 31.0853 13.5224 31.0427 13.4759L30.7511 13.1551C30.6712 13.0674 30.678 12.9311 30.7658 12.8516C30.8543 12.772 30.9898 12.7785 31.0698 12.8662L31.3613 13.187C31.4413 13.2747 31.4344 13.411 31.3467 13.4905C31.305 13.528 31.2534 13.5464 31.2018 13.5464Z" fill="#1F212B"/>
<path d="M32.218 14.9451C32.1466 14.9451 32.0765 14.9094 32.0356 14.8449L31.9548 14.7112C31.9097 14.6355 31.8649 14.5594 31.8133 14.4876C31.7445 14.3909 31.7669 14.2567 31.8636 14.1879C31.9608 14.1195 32.095 14.1423 32.1634 14.2382C32.2214 14.3191 32.2726 14.4051 32.3237 14.4906L32.3994 14.6153C32.4626 14.7159 32.4325 14.8488 32.3319 14.9116C32.2967 14.9344 32.2571 14.9451 32.218 14.9451Z" fill="#1F212B"/>
<path d="M33.0438 16.4665C32.9638 16.4665 32.8869 16.4218 32.8499 16.3449L32.662 15.9548C32.6104 15.8478 32.6555 15.7192 32.7626 15.668C32.8701 15.616 32.9982 15.6616 33.0494 15.7682L33.2373 16.1582C33.2889 16.2653 33.2438 16.3939 33.1367 16.445C33.1066 16.4597 33.0752 16.4665 33.0438 16.4665Z" fill="#1F212B"/>
<path d="M33.6542 18.0845C33.5548 18.0845 33.4654 18.0152 33.4439 17.9142C33.4233 17.8166 33.388 17.7237 33.3536 17.6304L33.3171 17.5306C33.2775 17.4188 33.336 17.2959 33.4478 17.2559C33.5604 17.2154 33.6826 17.2748 33.7225 17.387L33.7569 17.4812C33.7991 17.5943 33.8399 17.7074 33.8649 17.8256C33.8894 17.9421 33.815 18.0561 33.6989 18.0806C33.6838 18.0832 33.6688 18.0845 33.6542 18.0845Z" fill="#1F212B"/>
<path d="M34.0225 19.7748C33.918 19.7748 33.8264 19.6987 33.8101 19.592L33.7447 19.1642C33.7267 19.0472 33.8075 18.9376 33.9249 18.9195C34.0423 18.9015 34.1519 18.9823 34.1696 19.0997L34.2349 19.5275C34.253 19.6445 34.1721 19.7541 34.0547 19.7722C34.044 19.7739 34.0332 19.7748 34.0225 19.7748Z" fill="#1F212B"/>
<path d="M34.1743 21.4987C34.0603 21.4987 33.9657 21.4093 33.9597 21.2945L33.9378 20.8619C33.9318 20.7432 34.0234 20.6422 34.1416 20.6366C34.2581 20.6258 34.3613 20.7217 34.3673 20.8404L34.3893 21.273C34.3953 21.3916 34.3037 21.4927 34.1855 21.4983C34.1816 21.4987 34.1781 21.4987 34.1743 21.4987Z" fill="#1F212B"/>
<path d="M18.0625 25.6482C18.0625 25.5136 18.1141 25.3769 18.2182 25.2363C18.3218 25.0965 18.434 25.0264 18.554 25.0264C18.6301 25.0264 18.7342 25.0935 18.8653 25.2281L19.3241 25.6981C19.4879 25.8667 19.7498 26.0236 20.1106 26.1685C20.4709 26.3143 20.8803 26.393 21.3391 26.4037V21.5151L20.8966 21.3469L20.4873 21.1956C20.2688 21.1061 20.1213 21.039 20.0448 20.9943L19.6845 20.7922C19.4987 20.7028 19.3706 20.6189 19.2996 20.5407C19.2287 20.462 19.1276 20.3614 18.9965 20.238C18.8653 20.115 18.7724 19.9916 18.7178 19.8682L18.5376 19.448C18.4719 19.2911 18.4254 19.1204 18.3983 18.9355C18.3708 18.7506 18.3575 18.5519 18.3575 18.3391C18.3575 17.3763 18.6443 16.669 19.2175 16.2166C19.7907 15.7647 20.4976 15.511 21.3391 15.4551V14.9361C21.3391 14.847 21.3782 14.7718 21.4569 14.7099C21.5352 14.6497 21.6349 14.6191 21.7562 14.6191C21.853 14.6191 21.9471 14.6527 22.0378 14.7193C22.1286 14.7864 22.1737 14.8591 22.1737 14.9369V15.4224C22.7865 15.4452 23.3408 15.554 23.8374 15.7488C24.3336 15.944 24.5822 16.1753 24.5822 16.4436C24.5822 16.5774 24.5417 16.7141 24.4622 16.8534C24.3822 16.9932 24.2855 17.0628 24.1728 17.0628C24.1401 17.0628 23.9178 16.9652 23.5063 16.77C23.0944 16.5752 22.6502 16.4664 22.1746 16.4441V20.6082C22.5874 20.7651 22.9292 20.9165 23.2006 21.0618C23.4719 21.2076 23.7544 21.4119 24.0477 21.675C24.3405 21.9382 24.5632 22.2744 24.715 22.6834C24.8668 23.0923 24.9425 23.5704 24.9425 24.1191C24.9425 25.0828 24.6953 25.8383 24.2016 26.3865C23.7075 26.9343 23.0316 27.2637 22.1742 27.3742V28.0498C22.1742 28.1306 22.1286 28.2059 22.0383 28.2751C21.9471 28.3443 21.853 28.3791 21.7562 28.3791C21.6349 28.3791 21.5352 28.3473 21.4565 28.2837C21.3778 28.22 21.3387 28.1422 21.3387 28.0498V27.4254C20.3991 27.4142 19.6187 27.2061 18.996 26.8002C18.3738 26.3938 18.0625 26.0103 18.0625 25.6482ZM19.3895 18.2466C19.3895 18.8379 19.5559 19.2786 19.8891 19.5689C20.222 19.8596 20.7165 20.1214 21.3713 20.3558V16.472C20.05 16.5838 19.3895 17.1751 19.3895 18.2466ZM22.1247 26.3706C23.3042 26.1797 23.8942 25.4633 23.8942 24.2198C23.8942 23.5481 23.7428 23.0355 23.4397 22.6829C23.1365 22.3299 22.6983 22.0302 22.1251 21.7838L22.1247 26.3706Z" fill="#1F212B"/>
</svg>
