<svg width="28" height="29" viewBox="0 0 28 29" fill="none" xmlns="http://www.w3.org/2000/svg">
<path d="M10.6774 0L9.97615 3.65898C8.80676 4.10901 7.72548 4.73774 6.77599 5.53096L3.3226 4.31885L0 10.1812L2.76327 12.6252C2.66529 13.237 2.60187 13.86 2.60187 14.5C2.60187 15.14 2.66529 15.763 2.76327 16.3748L0 18.8188L3.3226 24.6812L6.77599 23.469C7.72548 24.2623 8.80676 24.891 9.97615 25.341L10.6774 29H17.3226L18.0239 25.341C19.1932 24.891 20.2745 24.2623 21.224 23.469L24.6774 24.6812L28 18.8188L25.2367 16.3748C25.3347 15.763 25.3981 15.14 25.3981 14.5C25.3981 13.86 25.3347 13.237 25.2367 12.6252L28 10.1812L24.6774 4.31885L21.224 5.53096C20.2745 4.73774 19.1932 4.10901 18.0239 3.65898L17.3226 0H10.6774ZM14 8.7C17.1473 8.7 19.6991 11.297 19.6991 14.5C19.6991 17.7031 17.1473 20.3 14 20.3C10.8527 20.3 8.30093 17.7031 8.30093 14.5C8.30093 11.297 10.8527 8.7 14 8.7Z" fill="white"/>
</svg>
