<svg width="16" height="16" viewBox="0 0 16 16" fill="none" xmlns="http://www.w3.org/2000/svg">
<path d="M13.488 2.51311C13.3255 2.35059 13.1326 2.22167 12.9202 2.13372C12.7079 2.04576 12.4803 2.00049 12.2505 2.00049C12.0207 2.00049 11.7931 2.04576 11.5807 2.13372C11.3684 2.22167 11.1755 2.35059 11.013 2.51311L6.74999 6.77411C6.49469 7.02944 6.29217 7.33254 6.15399 7.66611L5.30599 9.71311C5.24918 9.85017 5.23431 10.001 5.26324 10.1465C5.29217 10.292 5.3636 10.4257 5.46851 10.5306C5.57342 10.6355 5.70708 10.7069 5.85259 10.7359C5.99811 10.7648 6.14893 10.7499 6.28599 10.6931L8.33299 9.84511C8.66656 9.70693 8.96966 9.50441 9.22499 9.24911L13.486 4.98711C13.8139 4.65896 13.9981 4.21403 13.9981 3.75011C13.9981 3.2862 13.8139 2.84127 13.486 2.51311H13.488Z" fill="#FAFAFA"/>
<path d="M4.75 3.5C4.06 3.5 3.5 4.06 3.5 4.75V11.25C3.5 11.94 4.06 12.5 4.75 12.5H11.25C11.94 12.5 12.5 11.94 12.5 11.25V9C12.5 8.80109 12.579 8.61032 12.7197 8.46967C12.8603 8.32902 13.0511 8.25 13.25 8.25C13.4489 8.25 13.6397 8.32902 13.7803 8.46967C13.921 8.61032 14 8.80109 14 9V11.25C14 11.9793 13.7103 12.6788 13.1945 13.1945C12.6788 13.7103 11.9793 14 11.25 14H4.75C4.02065 14 3.32118 13.7103 2.80546 13.1945C2.28973 12.6788 2 11.9793 2 11.25V4.75C2 4.02065 2.28973 3.32118 2.80546 2.80546C3.32118 2.28973 4.02065 2 4.75 2H7C7.19891 2 7.38968 2.07902 7.53033 2.21967C7.67098 2.36032 7.75 2.55109 7.75 2.75C7.75 2.94891 7.67098 3.13968 7.53033 3.28033C7.38968 3.42098 7.19891 3.5 7 3.5H4.75Z" fill="#FAFAFA"/>
</svg>
