<svg width="16" height="16" viewBox="0 0 16 16" fill="none" xmlns="http://www.w3.org/2000/svg">
<path d="M13.3487 2.30165L12.2271 3.48898C12.8764 3.77132 13.3334 4.41565 13.3334 5.16732V12.5007C13.3334 13.5113 12.5107 14.334 11.5001 14.334H3.50008C2.48941 14.334 1.66675 13.5113 1.66675 12.5007V5.16732C1.66675 4.15665 2.48941 3.33398 3.50008 3.33398H5.34641C5.40708 2.91232 5.69308 2.56265 6.07875 2.41265C6.24808 1.97698 6.67208 1.66732 7.16675 1.66732C7.66141 1.66732 8.08541 1.97698 8.25475 2.41265C8.64041 2.56265 8.92641 2.91232 8.98708 3.33398H9.16375L11.6517 0.699318C11.8711 0.467318 12.1801 0.333984 12.5001 0.333984C12.7991 0.333984 13.0834 0.446983 13.3007 0.651983C13.7684 1.09465 13.7894 1.83398 13.3487 2.30165ZM4.33341 5.38732C4.33341 5.17398 4.16041 5.00065 3.94675 5.00065H3.72008C3.50675 5.00065 3.33341 5.17365 3.33341 5.38732V5.61398C3.33341 5.82732 3.50641 6.00065 3.72008 6.00065H3.94708C4.16041 6.00065 4.33375 5.82765 4.33375 5.61398V5.38732H4.33341ZM4.33341 7.05398C4.33341 6.84065 4.16041 6.66732 3.94675 6.66732H3.72008C3.50675 6.66732 3.33341 6.84032 3.33341 7.05398V7.28065C3.33341 7.49398 3.50641 7.66732 3.72008 7.66732H3.94708C4.16041 7.66732 4.33375 7.49432 4.33375 7.28065V7.05398H4.33341ZM4.33341 8.72065C4.33341 8.50732 4.16041 8.33398 3.94675 8.33398H3.72008C3.50675 8.33398 3.33341 8.50698 3.33341 8.72065V8.94732C3.33341 9.16065 3.50641 9.33398 3.72008 9.33398H3.94708C4.16041 9.33398 4.33375 9.16098 4.33375 8.94732V8.72065H4.33341ZM4.33341 10.3873C4.33341 10.174 4.16041 10.0007 3.94675 10.0007H3.72008C3.50675 10.0007 3.33341 10.1737 3.33341 10.3873V10.614C3.33341 10.8273 3.50641 11.0007 3.72008 11.0007H3.94708C4.16041 11.0007 4.33375 10.8277 4.33375 10.614V10.3873H4.33341ZM4.33341 12.054C4.33341 11.8407 4.16041 11.6673 3.94675 11.6673H3.72008C3.50675 11.6673 3.33341 11.8403 3.33341 12.054V12.2807C3.33341 12.494 3.50641 12.6673 3.72008 12.6673H3.94708C4.16041 12.6673 4.33375 12.4943 4.33375 12.2807V12.054H4.33341ZM6.49008 7.86432C6.58675 7.95532 6.71041 8.00065 6.83375 8.00065C6.96641 8.00065 7.09875 7.94832 7.19708 7.84398L7.92975 7.06832L7.22208 6.36065L6.46975 7.15732C6.28041 7.35798 6.28941 7.67432 6.49008 7.86432ZM10.6667 12.2807C10.6667 12.494 10.8397 12.6673 11.0534 12.6673H11.2804C11.4937 12.6673 11.6671 12.4943 11.6671 12.2807V12.0537C11.6671 11.8403 11.4941 11.667 11.2804 11.667H11.0534C10.8401 11.667 10.6667 11.84 10.6667 12.0537V12.2807ZM10.6667 10.614C10.6667 10.8273 10.8397 11.0007 11.0534 11.0007H11.2804C11.4937 11.0007 11.6671 10.8277 11.6671 10.614V10.387C11.6671 10.1737 11.4941 10.0003 11.2804 10.0003H11.0534C10.8401 10.0003 10.6667 10.1733 10.6667 10.387V10.614ZM10.6667 8.94732C10.6667 9.16065 10.8397 9.33398 11.0534 9.33398H11.2804C11.4937 9.33398 11.6671 9.16098 11.6671 8.94732V8.72032C11.6671 8.50698 11.4941 8.33365 11.2804 8.33365H11.0534C10.8401 8.33365 10.6667 8.50665 10.6667 8.72032V8.94732ZM10.6667 7.28065C10.6667 7.49398 10.8397 7.66732 11.0534 7.66732H11.2804C11.4937 7.66732 11.6671 7.49432 11.6671 7.28065V7.05365C11.6671 6.84032 11.4941 6.66698 11.2804 6.66698H11.0534C10.8401 6.66698 10.6667 6.83998 10.6667 7.05365V7.28065ZM10.6667 5.61398C10.6667 5.82732 10.8397 6.00065 11.0534 6.00065H11.2804C11.4937 6.00065 11.6671 5.82765 11.6671 5.61398V5.38698C11.6671 5.17365 11.4941 5.00032 11.2804 5.00032H11.0534C10.8401 5.00032 10.6667 5.17332 10.6667 5.38698V5.61398ZM7.16675 10.6673H7.33341V10.834C7.33341 11.11 7.55741 11.334 7.83341 11.334C8.10941 11.334 8.33341 11.11 8.33341 10.834V10.6673H8.50008C8.77608 10.6673 9.00008 10.4433 9.00008 10.1673C9.00008 9.89132 8.77608 9.66732 8.50008 9.66732H8.33341V9.50065C8.33341 9.22465 8.10941 9.00065 7.83341 9.00065C7.55741 9.00065 7.33341 9.22465 7.33341 9.50065V9.66732H7.16675C6.89075 9.66732 6.66675 9.89132 6.66675 10.1673C6.66675 10.4433 6.89075 10.6673 7.16675 10.6673ZM7.83341 3.00065H7.66675V2.83398C7.66675 2.55798 7.44275 2.33398 7.16675 2.33398C6.89075 2.33398 6.66675 2.55798 6.66675 2.83398V3.00065H6.50008C6.22408 3.00065 6.00008 3.22465 6.00008 3.50065C6.00008 3.77665 6.22408 4.00065 6.50008 4.00065H6.66675V4.16732C6.66675 4.44332 6.89075 4.66732 7.16675 4.66732C7.44275 4.66732 7.66675 4.44332 7.66675 4.16732V4.00065H7.83341C8.10941 4.00065 8.33341 3.77665 8.33341 3.50065C8.33341 3.22465 8.10941 3.00065 7.83341 3.00065ZM12.8434 1.13698C12.7467 1.04598 12.6234 1.00065 12.5001 1.00065C12.3674 1.00065 12.2347 1.05298 12.1364 1.15732L7.68008 5.87598L8.38775 6.58365L12.8637 1.84398C13.0531 1.64332 13.0441 1.32698 12.8434 1.13698Z" fill="white"/>
</svg>
