<svg width="17" height="16" viewBox="0 0 17 16" fill="none" xmlns="http://www.w3.org/2000/svg">
<path d="M2.5 3.5C2.5 2.67157 3.17157 2 4 2H6C6.82843 2 7.5 2.67157 7.5 3.5V5.5C7.5 6.32843 6.82843 7 6 7H4C3.17157 7 2.5 6.32843 2.5 5.5V3.5Z" fill="#FAFAFA"/>
<path d="M2.5 10.5C2.5 9.67157 3.17157 9 4 9H6C6.82843 9 7.5 9.67157 7.5 10.5V12.5C7.5 13.3284 6.82843 14 6 14H4C3.17157 14 2.5 13.3284 2.5 12.5V10.5Z" fill="#FAFAFA"/>
<path d="M11 2C10.1716 2 9.5 2.67157 9.5 3.5V5.5C9.5 6.32843 10.1716 7 11 7H13C13.8284 7 14.5 6.32843 14.5 5.5V3.5C14.5 2.67157 13.8284 2 13 2H11Z" fill="#FAFAFA"/>
<path d="M12 9C12.4142 9 12.75 9.33579 12.75 9.75V10.75H13.75C14.1642 10.75 14.5 11.0858 14.5 11.5C14.5 11.9142 14.1642 12.25 13.75 12.25H12.75V13.25C12.75 13.6642 12.4142 14 12 14C11.5858 14 11.25 13.6642 11.25 13.25V12.25H10.25C9.83579 12.25 9.5 11.9142 9.5 11.5C9.5 11.0858 9.83579 10.75 10.25 10.75H11.25V9.75C11.25 9.33579 11.5858 9 12 9Z" fill="#FAFAFA"/>
</svg>
