<svg width="32" height="32" viewBox="0 0 32 32" fill="none" xmlns="http://www.w3.org/2000/svg">
<path d="M13.2803 12.2197C12.9874 11.9268 12.5126 11.9268 12.2197 12.2197C11.9268 12.5126 11.9268 12.9874 12.2197 13.2803L14.9393 16L12.2197 18.7197C11.9268 19.0126 11.9268 19.4874 12.2197 19.7803C12.5126 20.0732 12.9874 20.0732 13.2803 19.7803L16 17.0607L18.7197 19.7803C19.0126 20.0732 19.4874 20.0732 19.7803 19.7803C20.0732 19.4874 20.0732 19.0126 19.7803 18.7197L17.0607 16L19.7803 13.2803C20.0732 12.9874 20.0732 12.5126 19.7803 12.2197C19.4874 11.9268 19.0126 11.9268 18.7197 12.2197L16 14.9393L13.2803 12.2197Z" fill="#FAFAFA"/>
</svg>
