<svg width="72" height="72" viewBox="0 0 72 72" fill="none" xmlns="http://www.w3.org/2000/svg">
<g clip-path="url(#clip0_15193_3450)">
<path d="M11.0142 11.538C11.0392 5.99101 12.9362 4.10201 18.5062 4.07501C27.1602 4.03201 44.4692 4.11101 44.4692 4.11101C44.4692 4.11101 47.6552 4.34801 48.5712 5.21001C53.0462 9.42001 57.3872 13.786 61.5342 18.318C62.5042 19.379 62.9242 21.295 62.9362 22.823C63.0422 36.137 63.0302 49.452 62.9822 62.766C62.9632 68.173 61.1952 69.912 55.8152 69.926C43.1662 69.96 30.5172 69.968 17.8692 69.921C12.8142 69.903 11.0602 68.115 11.0192 62.967M15.1402 65.671H58.4942V22.059C55.4752 22.059 52.8062 21.872 50.1732 22.1C45.4772 22.507 43.8562 20.284 44.1472 15.889C44.3172 13.322 44.1782 10.735 44.1782 8.35201H15.1402M48.7662 18.192C50.5622 19.468 56.3692 18.661 56.3692 18.661L48.1122 9.96101C48.1122 9.96101 47.1232 17.025 48.7662 18.192Z" fill="white"/>
<path d="M41.0689 37.056C43.2059 34.756 45.1129 32.73 47.4199 30.28C48.8529 31.692 49.9919 32.815 51.3369 34.141C45.2399 40.97 39.5169 47.381 33.7709 53.817C30.0719 50.395 26.4849 47.077 22.4609 43.355C24.1429 41.666 25.3689 40.435 27.2929 38.504C29.3009 41.276 30.9459 43.547 32.8119 46.123C35.9739 42.659 38.4069 39.995 41.0689 37.056Z" fill="white"/>
</g>
<defs>
<clipPath id="clip0_15193_3450">
<rect width="72" height="72" fill="white"/>
</clipPath>
</defs>
</svg>
