<svg width="72" height="72" viewBox="0 0 72 72" fill="none" xmlns="http://www.w3.org/2000/svg">
<g clip-path="url(#clip0_15193_3462)">
<path d="M26.6691 17.058C26.6691 17.058 28 8.86241 39.5 8.50001C58.3691 7.9054 58.3691 23.18 58.3691 23.18C58.3691 23.18 61.4291 22.272 65.1881 23.715C69.4341 25.346 72.1061 31.92 70.0531 38.642C68.5731 43.487 64.4141 45.973 59.2261 46.072C54.2581 46.167 49.2861 46.092 43.8461 46.092C43.8461 42.746 43.9281 39.654 43.8281 36.568C43.6341 30.588 39.0541 32.394 35.6981 32.111C32.4351 31.836 30.0751 32.65 30.2291 36.64C30.3441 39.609 30.2521 42.586 30.2521 46.053C23.9051 46.053 17.7751 46.367 11.6951 45.95C7.11306 45.635 4.15106 42.596 3.19306 38.074C2.15806 33.183 4.27906 27.728 8.80006 26.329C9.97606 25.964 12.2511 25.688 12.2511 25.688C12.2511 25.688 11.0671 21.765 14.5931 18.021C20.0061 12.272 26.6691 17.058 26.6691 17.058Z" fill="white"/>
<path d="M41.0019 35.029V52.005L47.0409 52.054L37.0299 65.969L26.6689 51.959L32.9999 51.881L32.8039 35.029H41.0019Z" fill="white"/>
</g>
<defs>
<clipPath id="clip0_15193_3462">
<rect width="72" height="72" fill="white"/>
</clipPath>
</defs>
</svg>
