<svg width="72" height="72" viewBox="0 0 72 72" fill="none" xmlns="http://www.w3.org/2000/svg">
<g clip-path="url(#clip0_15193_3467)">
<path d="M26.6691 36.6436C27.6161 33.9646 27.8741 31.5816 31.0281 31.0046L30.9391 38.5146C30.9751 38.5076 30.7251 40.7666 31.9191 40.8046C33.4271 40.8526 40.7411 40.7636 42.6181 40.6106C44.0111 40.4976 43.9891 38.5146 43.9891 38.5146L43.8901 27.9536C54.2201 27.5816 57.7551 33.1666 58.3691 42.7656C58.3691 42.7656 61.4291 41.8576 65.1881 43.3006C69.4341 44.9316 72.1061 51.5056 70.0531 58.2276C68.5731 63.0726 64.4141 65.5586 59.2261 65.6576C54.2581 65.7526 17.7751 65.9526 11.6951 65.5356C7.11306 65.2206 4.15106 62.1816 3.19306 57.6596C2.15806 52.7686 4.27906 47.3136 8.80006 45.9146C9.97606 45.5496 12.2511 45.2736 12.2511 45.2736C12.2511 45.2736 11.0671 41.3506 14.5931 37.6066C20.0061 31.8576 26.6691 36.6436 26.6691 36.6436Z" fill="white"/>
<path d="M33.2295 38.5144V21.5384L27.1905 21.4894L37.2015 7.5744L47.5625 21.5844L41.2315 21.6624L41.4275 38.5144H33.2295Z" fill="white"/>
</g>
<defs>
<clipPath id="clip0_15193_3467">
<rect width="72" height="72" fill="white"/>
</clipPath>
</defs>
</svg>
