<svg width="44" height="43" viewBox="0 0 44 43" fill="none" xmlns="http://www.w3.org/2000/svg">
<path d="M0.5 8C0.5 3.58172 4.08172 0 8.5 0H35.5C39.9183 0 43.5 3.58172 43.5 8V35C43.5 39.4183 39.9183 43 35.5 43H8.5C4.08172 43 0.5 39.4183 0.5 35V8Z" fill="#3F3F46"/>
<path d="M27.1538 9C25.625 9 24.3846 10.2188 24.3846 11.7209C24.3846 13.2231 25.625 14.4419 27.1538 14.4419C28.6851 14.4419 29.9231 13.2231 29.9231 11.7209C29.9231 10.2188 28.6851 9 27.1538 9ZM18.2308 13.2326C17.9952 13.2326 17.7644 13.2987 17.5673 13.4239H17.5649L17.5457 13.4286L13.2812 16.4353C12.9159 16.6526 12.6923 17.0447 12.6923 17.4651C12.6923 18.1335 13.2428 18.6744 13.9231 18.6744C14.2139 18.6744 14.4928 18.5729 14.7139 18.3886L14.7163 18.391L18.4038 15.7834L21.1178 16.6314L18.0817 21.4922V21.4945C17.7788 21.9055 17.6154 22.3992 17.6154 22.907C17.6178 23.821 18.1442 24.6572 18.976 25.0681L23.6178 27.8812L22.5673 33.1931C22.5481 33.29 22.5385 33.3892 22.5385 33.4884C22.5385 34.3221 23.2284 35 24.0769 35C24.8173 35 25.4519 34.4827 25.5865 33.7694H25.5889L26.8365 27.3143L26.8341 27.3049C26.8413 27.2505 26.8462 27.1939 26.8462 27.1395C26.8462 26.7994 26.6995 26.4758 26.4423 26.2467L26.4399 26.2373L23.1154 23.3416L25.9904 17.758H25.988C26.1466 17.484 26.2308 17.1746 26.2308 16.8605C26.2308 16.1377 25.7933 15.4835 25.1178 15.1977V15.1953L23.5769 14.3497L18.5505 13.2727H18.5433C18.4423 13.2467 18.3365 13.2326 18.2308 13.2326ZM26.9784 18.5185L25.5986 21.1969L26.3438 22.8101L26.3486 22.8125C26.5457 23.2258 26.9688 23.5116 27.4615 23.5116H31.7692C32.4495 23.5116 33 22.9707 33 22.3023C33 21.6339 32.4495 21.093 31.7692 21.093H28.0769L26.9784 18.5185ZM16.7019 24.3666L15.3029 26.5349H10.5385C9.6875 26.5349 9 27.2104 9 28.0465C9 28.8826 9.6875 29.5581 10.5385 29.5581H15.7284C16.5264 29.5581 17.274 29.1779 17.7356 28.5378L19.1418 26.5892C18.6322 26.2798 18.2644 26.0554 18.2596 26.0531C17.5577 25.661 17.0192 25.0658 16.7019 24.3666Z" fill="#FFFEFE"/>
</svg>
