<svg width="20" height="20" viewBox="0 0 20 20" fill="none" xmlns="http://www.w3.org/2000/svg">
<path d="M5.61128 5C5.54057 5.00002 5.47147 5.02113 5.41283 5.06064C5.35419 5.10014 5.30867 5.15625 5.28209 5.22177C5.25551 5.28729 5.24909 5.35926 5.26364 5.42845C5.27819 5.49765 5.31306 5.56093 5.36378 5.6102L5.69871 5.94513C5.73145 5.97923 5.77067 6.00645 5.81406 6.02521C5.85745 6.04396 5.90414 6.05387 5.95141 6.05435C5.99868 6.05483 6.04557 6.04587 6.08933 6.02801C6.1331 6.01014 6.17285 5.98372 6.20628 5.95029C6.23971 5.91687 6.26613 5.87711 6.28399 5.83335C6.30186 5.78958 6.31082 5.74269 6.31033 5.69543C6.30985 5.64816 6.29995 5.60146 6.28119 5.55807C6.26244 5.51468 6.23522 5.47547 6.20112 5.44273L5.86618 5.10779C5.83306 5.07369 5.79344 5.04657 5.74966 5.02806C5.70587 5.00954 5.65882 5 5.61128 5ZM13.7576 5.00046C13.6653 5.00315 13.5777 5.04164 13.5133 5.10779L13.1784 5.44273C13.1443 5.47547 13.117 5.51468 13.0983 5.55807C13.0795 5.60146 13.0696 5.64816 13.0691 5.69543C13.0687 5.7427 13.0776 5.78958 13.0955 5.83335C13.1133 5.87711 13.1398 5.91687 13.1732 5.9503C13.2066 5.98372 13.2464 6.01014 13.2901 6.02801C13.3339 6.04588 13.3808 6.05483 13.4281 6.05435C13.4753 6.05387 13.522 6.04396 13.5654 6.02521C13.6088 6.00646 13.648 5.97923 13.6808 5.94513L14.0157 5.6102C14.067 5.56028 14.102 5.49605 14.1161 5.42591C14.1302 5.35577 14.1229 5.283 14.095 5.21711C14.0671 5.15122 14.02 5.09529 13.9598 5.05664C13.8996 5.01798 13.8291 4.9984 13.7576 5.00046ZM9.68974 5.53063C7.86188 5.53134 6.37368 7.0135 6.37368 8.8416C6.37368 9.75683 6.75385 10.625 7.40948 11.2468C7.65914 11.4834 7.81831 11.7998 7.89292 12.1355L8.00349 12.6314H11.376L11.4866 12.1355C11.5612 11.7998 11.7206 11.4834 11.97 11.2468C12.6259 10.625 13.0058 9.75683 13.0058 8.8416C13.0058 7.0135 11.5176 5.53134 9.68974 5.53063ZM4.36035 8.13101C4.31327 8.13035 4.26653 8.13905 4.22284 8.1566C4.17915 8.17416 4.13938 8.20022 4.10586 8.23328C4.07233 8.26634 4.0457 8.30573 4.02753 8.34917C4.00936 8.39261 4 8.43922 4 8.48631C4 8.53339 4.00936 8.58001 4.02753 8.62344C4.0457 8.66688 4.07233 8.70627 4.10586 8.73933C4.13938 8.77239 4.17915 8.79845 4.22284 8.81601C4.26653 8.83357 4.31327 8.84226 4.36035 8.8416H5.07094C5.11802 8.84226 5.16476 8.83357 5.20845 8.81601C5.25214 8.79845 5.29191 8.77239 5.32543 8.73933C5.35896 8.70627 5.38559 8.66688 5.40376 8.62344C5.42193 8.58001 5.43129 8.53339 5.43129 8.48631C5.43129 8.43922 5.42193 8.39261 5.40376 8.34917C5.38559 8.30573 5.35896 8.26634 5.32543 8.23328C5.29191 8.20022 5.25214 8.17416 5.20845 8.1566C5.16476 8.13905 5.11802 8.13035 5.07094 8.13101H4.36035ZM14.3085 8.13101C14.2615 8.13035 14.2147 8.13905 14.171 8.1566C14.1273 8.17416 14.0876 8.20022 14.054 8.23328C14.0205 8.26634 13.9939 8.30573 13.9757 8.34917C13.9575 8.39261 13.9482 8.43922 13.9482 8.48631C13.9482 8.53339 13.9575 8.58001 13.9757 8.62344C13.9939 8.66688 14.0205 8.70627 14.054 8.73933C14.0876 8.77239 14.1273 8.79845 14.171 8.81601C14.2147 8.83357 14.2615 8.84226 14.3085 8.8416H15.0191C15.0662 8.84226 15.1129 8.83357 15.1566 8.81601C15.2003 8.79845 15.2401 8.77239 15.2736 8.73933C15.3072 8.70627 15.3338 8.66688 15.3519 8.62344C15.3701 8.58001 15.3795 8.53339 15.3795 8.48631C15.3795 8.43922 15.3701 8.39261 15.3519 8.34917C15.3338 8.30573 15.3072 8.26634 15.2736 8.23328C15.2401 8.20022 15.2003 8.17416 15.1566 8.1566C15.1129 8.13905 15.0662 8.13035 15.0191 8.13101H14.3085ZM13.4259 10.9197C13.3552 10.9197 13.2861 10.9408 13.2274 10.9803C13.1688 11.0198 13.1233 11.0759 13.0967 11.1415C13.0701 11.207 13.0637 11.2789 13.0782 11.3481C13.0928 11.4173 13.1276 11.4806 13.1784 11.5299L13.5133 11.8648C13.546 11.8989 13.5852 11.9261 13.6286 11.9449C13.672 11.9636 13.7187 11.9736 13.766 11.974C13.8133 11.9745 13.8602 11.9656 13.9039 11.9477C13.9477 11.9298 13.9874 11.9034 14.0209 11.87C14.0543 11.8366 14.0807 11.7968 14.0986 11.753C14.1164 11.7093 14.1254 11.6624 14.1249 11.6151C14.1244 11.5678 14.1145 11.5212 14.0958 11.4778C14.077 11.4344 14.0498 11.3952 14.0157 11.3624L13.6808 11.0275C13.6476 10.9934 13.608 10.9663 13.5642 10.9477C13.5205 10.9292 13.4734 10.9197 13.4259 10.9197ZM5.94298 10.9202C5.85071 10.9228 5.7631 10.9613 5.69871 11.0275L5.36378 11.3624C5.32968 11.3952 5.30246 11.4344 5.2837 11.4778C5.26495 11.5212 5.25504 11.5678 5.25456 11.6151C5.25408 11.6624 5.26304 11.7093 5.2809 11.753C5.29877 11.7968 5.32519 11.8366 5.35862 11.87C5.39204 11.9034 5.4318 11.9298 5.47556 11.9477C5.51933 11.9656 5.56622 11.9745 5.61348 11.974C5.66075 11.9736 5.70745 11.9636 5.75084 11.9449C5.79423 11.9261 5.83344 11.8989 5.86618 11.8648L6.20112 11.5299C6.25238 11.48 6.28737 11.4157 6.30152 11.3456C6.31567 11.2755 6.30831 11.2027 6.28042 11.1368C6.25252 11.0709 6.20539 11.015 6.14518 10.9763C6.08497 10.9377 6.0145 10.9181 5.94298 10.9202ZM8.16124 13.342L8.38515 14.3509C8.46947 14.7304 8.80628 15 9.19474 15H10.1847C10.5732 15 10.91 14.7304 10.9943 14.3509L11.2182 13.342H8.16124Z" fill="white"/>
</svg>
