<svg width="20" height="20" viewBox="0 0 20 20" fill="none" xmlns="http://www.w3.org/2000/svg">
<path d="M8.78527 18C8.59311 18 8.42154 17.94 8.27056 17.82C8.11958 17.7 8.03036 17.5467 8.00291 17.36L7.69408 15.48C7.43329 15.3867 7.15878 15.26 6.87054 15.1C6.5823 14.94 6.32837 14.7733 6.10876 14.6L4.33814 15.4C4.14598 15.48 3.95382 15.49 3.76166 15.43C3.5695 15.37 3.41852 15.2533 3.30872 15.08L2.11458 13C2.00477 12.8267 1.97389 12.6467 2.02193 12.46C2.06997 12.2733 2.17635 12.12 2.34105 12L3.98814 10.82C3.96069 10.7 3.94353 10.5633 3.93667 10.41C3.9298 10.2567 3.92637 10.12 3.92637 10C3.92637 9.88 3.9298 9.74333 3.93667 9.59C3.94353 9.43667 3.96069 9.3 3.98814 9.18L2.34105 8C2.17635 7.88 2.06997 7.72667 2.02193 7.54C1.97389 7.35333 2.00477 7.17333 2.11458 7L3.30872 4.92C3.41852 4.74667 3.5695 4.63 3.76166 4.57C3.95382 4.51 4.14598 4.52 4.33814 4.6L6.10876 5.4C6.32837 5.22667 6.5823 5.06 6.87054 4.9C7.15878 4.74 7.43329 4.62 7.69408 4.54L8.00291 2.64C8.03036 2.45333 8.11958 2.3 8.27056 2.18C8.42154 2.06 8.59311 2 8.78527 2H11.2147C11.4069 2 11.5785 2.06 11.7294 2.18C11.8804 2.3 11.9696 2.45333 11.9971 2.64L12.3059 4.52C12.5667 4.61333 12.8447 4.73667 13.1398 4.89C13.4349 5.04333 13.6854 5.21333 13.8912 5.4L15.6619 4.6C15.854 4.52 16.0427 4.51 16.228 4.57C16.4133 4.63 16.5609 4.74667 16.6707 4.92L17.8854 7C17.9952 7.17333 18.0261 7.35667 17.9781 7.55C17.93 7.74333 17.8237 7.89333 17.6589 8L16.0119 9.14C16.0393 9.27333 16.0565 9.41667 16.0633 9.57C16.0702 9.72333 16.0736 9.86667 16.0736 10C16.0736 10.1333 16.0702 10.2733 16.0633 10.42C16.0565 10.5667 16.0393 10.7067 16.0119 10.84L17.6589 12C17.8237 12.1067 17.93 12.2567 17.9781 12.45C18.0261 12.6433 17.9952 12.8267 17.8854 13L16.6913 15.08C16.5815 15.2533 16.4305 15.37 16.2383 15.43C16.0462 15.49 15.854 15.48 15.6619 15.4L13.8912 14.6C13.6716 14.7733 13.4211 14.9433 13.1398 15.11C12.8584 15.2767 12.5804 15.4 12.3059 15.48L11.9971 17.36C11.9696 17.5467 11.8804 17.7 11.7294 17.82C11.5785 17.94 11.4069 18 11.2147 18H8.78527ZM10 12.6C10.7412 12.6 11.3726 12.3467 11.8941 11.84C12.4157 11.3333 12.6765 10.72 12.6765 10C12.6765 9.28 12.4157 8.66667 11.8941 8.16C11.3726 7.65333 10.7412 7.4 10 7.4C9.25881 7.4 8.62743 7.65333 8.10585 8.16C7.58427 8.66667 7.32349 9.28 7.32349 10C7.32349 10.72 7.58427 11.3333 8.10585 11.84C8.62743 12.3467 9.25881 12.6 10 12.6Z" fill="#F7F0E7"/>
</svg>
