<svg width="56" height="64" viewBox="0 0 56 64" fill="none" xmlns="http://www.w3.org/2000/svg">
<path d="M6.5 54L13.6929 42.483C14.0726 41.875 14.7487 41.5167 15.465 41.5439L26.8833 41.9766C27.276 41.9915 27.6567 41.8397 27.9313 41.5587C28.2704 41.2117 28.4043 40.7132 28.2847 40.243L23.4077 21.0685C23.0167 19.5313 24.4852 18.1724 25.9875 18.6812L37.5464 22.5962C38.2751 22.843 39.0807 22.65 39.6184 22.0998L49 12.5" stroke="#3F3F46" stroke-width="10" stroke-linecap="round"/>
<path d="M49 12.5L40.48 21.4257C39.2964 22.6657 37.4542 23.0137 35.8998 22.2908L29.3965 19.2664C26.3022 17.8275 22.9429 20.6749 23.8555 23.9631L29 42.5L16.264 41.2372C14.6677 41.0789 13.1313 41.8896 12.3609 43.2966L6.5 54" stroke="url(#paint0_linear_12546_30083)" stroke-width="6" stroke-miterlimit="10" stroke-linecap="round"/>
<path d="M30.999 39C29.9382 39 28.9207 39.4214 28.1706 40.1716C27.4205 40.9217 26.999 41.9391 26.999 43C26.999 44.0609 27.4205 45.0783 28.1706 45.8284C28.9207 46.5786 29.9382 47 30.999 47C32.0599 47 33.0773 46.5786 33.8274 45.8284C34.5776 45.0783 34.999 44.0609 34.999 43C34.999 41.9391 34.5776 40.9217 33.8274 40.1716C33.0773 39.4214 32.0599 39 30.999 39Z" fill="#3F3F46"/>
<path d="M31 40C32.654 40 34 41.346 34 43C34 44.654 32.654 46 31 46C29.346 46 28 44.654 28 43C28 41.346 29.346 40 31 40ZM31 38C28.238 38 26 40.238 26 43C26 45.762 28.238 48 31 48C33.762 48 36 45.762 36 43C36 40.238 33.762 38 31 38Z" fill="#3F3F46"/>
<path d="M5.99902 51C4.93816 51 3.92074 51.4214 3.1706 52.1716C2.42045 52.9217 1.99902 53.9391 1.99902 55C1.99902 56.0609 2.42045 57.0783 3.1706 57.8284C3.92074 58.5786 4.93816 59 5.99902 59C7.05989 59 8.0773 58.5786 8.82745 57.8284C9.5776 57.0783 9.99902 56.0609 9.99902 55C9.99902 53.9391 9.5776 52.9217 8.82745 52.1716C8.0773 51.4214 7.05989 51 5.99902 51Z" fill="#3F3F46"/>
<path d="M6 52C7.654 52 9 53.346 9 55C9 56.654 7.654 58 6 58C4.346 58 3 56.654 3 55C3 53.346 4.346 52 6 52ZM6 50C3.238 50 1 52.238 1 55C1 57.762 3.238 60 6 60C8.762 60 11 57.762 11 55C11 52.238 8.762 50 6 50Z" fill="#3F3F46"/>
<path d="M48.999 8C47.9382 8 46.9207 8.42143 46.1706 9.17157C45.4205 9.92172 44.999 10.9391 44.999 12C44.999 13.0609 45.4205 14.0783 46.1706 14.8284C46.9207 15.5786 47.9382 16 48.999 16C50.0599 16 51.0773 15.5786 51.8274 14.8284C52.5776 14.0783 52.999 13.0609 52.999 12C52.999 10.9391 52.5776 9.92172 51.8274 9.17157C51.0773 8.42143 50.0599 8 48.999 8Z" fill="#3F3F46"/>
<path d="M49 9C50.654 9 52 10.346 52 12C52 13.654 50.654 15 49 15C47.346 15 46 13.654 46 12C46 10.346 47.346 9 49 9ZM49 7C46.238 7 44 9.238 44 12C44 14.762 46.238 17 49 17C51.762 17 54 14.762 54 12C54 9.238 51.762 7 49 7Z" fill="#3F3F46"/>
<path d="M21.999 14C20.9382 14 19.9207 14.4214 19.1706 15.1716C18.4205 15.9217 17.999 16.9391 17.999 18C17.999 19.0609 18.4205 20.0783 19.1706 20.8284C19.9207 21.5786 20.9382 22 21.999 22C23.0599 22 24.0773 21.5786 24.8274 20.8284C25.5776 20.0783 25.999 19.0609 25.999 18C25.999 16.9391 25.5776 15.9217 24.8274 15.1716C24.0773 14.4214 23.0599 14 21.999 14Z" fill="#3F3F46"/>
<path d="M22 15C23.654 15 25 16.346 25 18C25 19.654 23.654 21 22 21C20.346 21 19 19.654 19 18C19 16.346 20.346 15 22 15ZM22 13C19.238 13 17 15.238 17 18C17 20.762 19.238 23 22 23C24.762 23 27 20.762 27 18C27 15.238 24.762 13 22 13Z" fill="#3F3F46"/>
<defs>
<linearGradient id="paint0_linear_12546_30083" x1="27.5002" y1="11.6367" x2="27.5002" y2="55.3617" gradientUnits="userSpaceOnUse">
<stop stop-color="#52525B" stop-opacity="0"/>
<stop offset="1" stop-color="#52525B" stop-opacity="0.4"/>
</linearGradient>
</defs>
</svg>
