<svg width="64" height="64" viewBox="0 0 64 64" fill="none" xmlns="http://www.w3.org/2000/svg">
<path d="M32 60C32 60 20 48 20 36C20 24 32 18 32 18" fill="url(#paint0_linear_smoke)" stroke="#3F3F46" stroke-width="2" stroke-linecap="round"/>
<path d="M32 18C32 18 44 24 44 36C44 48 32 60 32 60" fill="url(#paint0_linear_smoke)" stroke="#3F3F46" stroke-width="2" stroke-linecap="round"/>
<circle cx="32" cy="12" r="6" fill="url(#paint0_linear_smoke)" stroke="#3F3F46" stroke-width="2"/>
<path d="M20 10C14 4 8 6 8 12C8 18 14 20 20 18" stroke="#3F3F46" stroke-width="2" stroke-linecap="round" stroke-dasharray="8 2"/>
<path d="M44 10C50 4 56 6 56 12C56 18 50 20 44 18" stroke="#3F3F46" stroke-width="2" stroke-linecap="round" stroke-dasharray="8 2"/>
<defs>
<linearGradient id="paint0_linear_smoke" x1="32" y1="0" x2="32" y2="64" gradientUnits="userSpaceOnUse">
<stop stop-color="#52525B" stop-opacity="0"/>
<stop offset="1" stop-color="#52525B" stop-opacity="0.4"/>
</linearGradient>
</defs>
</svg>
