<svg width="56" height="64" viewBox="0 0 56 64" fill="none" xmlns="http://www.w3.org/2000/svg">
<mask id="path-1-outside-1_12546_30081" maskUnits="userSpaceOnUse" x="1.00879" y="5.01172" width="54" height="54" fill="black">
<rect fill="white" x="1.00879" y="5.01172" width="54" height="54"/>
<path d="M28 7.01172C41.8018 7.01172 52.9922 18.1989 52.9922 32C52.9917 45.8007 41.8015 56.9873 28 56.9873C14.1986 56.9871 3.00923 45.8006 3.00879 32C3.00879 18.199 14.1984 7.01189 28 7.01172ZM28 21.7412C22.1678 21.7412 17.4397 25.6908 17.4395 30.5625C17.4395 35.4344 22.1676 39.3838 28 39.3838C33.8323 39.3837 38.5605 35.4343 38.5605 30.5625C38.5603 25.6908 33.8322 21.7413 28 21.7412ZM48.3418 26.7988C48.3245 26.7309 48.3061 26.6634 48.2881 26.5957C48.3061 26.6633 48.3245 26.7309 48.3418 26.7988ZM48.2109 26.3076C48.2059 26.2897 48.2014 26.2718 48.1963 26.2539C48.1852 26.215 48.1724 26.1765 48.1611 26.1377C48.1776 26.1943 48.1949 26.2508 48.2109 26.3076ZM48.0742 25.8467C48.0486 25.7631 48.0227 25.6798 47.9961 25.5967C48.0227 25.6798 48.0486 25.7631 48.0742 25.8467ZM47.9463 25.4434C47.9271 25.3851 47.9093 25.3265 47.8896 25.2686C47.8748 25.2248 47.8589 25.1814 47.8438 25.1377C47.8789 25.2392 47.9127 25.3412 47.9463 25.4434ZM47.7891 24.9844C47.7557 24.8904 47.7222 24.7965 47.6875 24.7031C47.7222 24.7965 47.7557 24.8904 47.7891 24.9844ZM47.3418 23.8301C47.4392 24.0603 47.5317 24.293 47.6211 24.5273C47.5317 24.293 47.4393 24.0603 47.3418 23.8301Z"/>
</mask>
<path d="M28 7.01172C41.8018 7.01172 52.9922 18.1989 52.9922 32C52.9917 45.8007 41.8015 56.9873 28 56.9873C14.1986 56.9871 3.00923 45.8006 3.00879 32C3.00879 18.199 14.1984 7.01189 28 7.01172ZM28 21.7412C22.1678 21.7412 17.4397 25.6908 17.4395 30.5625C17.4395 35.4344 22.1676 39.3838 28 39.3838C33.8323 39.3837 38.5605 35.4343 38.5605 30.5625C38.5603 25.6908 33.8322 21.7413 28 21.7412ZM48.3418 26.7988C48.3245 26.7309 48.3061 26.6634 48.2881 26.5957C48.3061 26.6633 48.3245 26.7309 48.3418 26.7988ZM48.2109 26.3076C48.2059 26.2897 48.2014 26.2718 48.1963 26.2539C48.1852 26.215 48.1724 26.1765 48.1611 26.1377C48.1776 26.1943 48.1949 26.2508 48.2109 26.3076ZM48.0742 25.8467C48.0486 25.7631 48.0227 25.6798 47.9961 25.5967C48.0227 25.6798 48.0486 25.7631 48.0742 25.8467ZM47.9463 25.4434C47.9271 25.3851 47.9093 25.3265 47.8896 25.2686C47.8748 25.2248 47.8589 25.1814 47.8438 25.1377C47.8789 25.2392 47.9127 25.3412 47.9463 25.4434ZM47.7891 24.9844C47.7557 24.8904 47.7222 24.7965 47.6875 24.7031C47.7222 24.7965 47.7557 24.8904 47.7891 24.9844ZM47.3418 23.8301C47.4392 24.0603 47.5317 24.293 47.6211 24.5273C47.5317 24.293 47.4393 24.0603 47.3418 23.8301Z" fill="url(#paint0_linear_12546_30081)"/>
<path d="M28 7.01172L28 5.01172L28 5.01172L28 7.01172ZM52.9922 32L54.9922 32.0001V32H52.9922ZM28 56.9873L28 58.9873H28V56.9873ZM3.00879 32L1.00879 32L1.00879 32.0001L3.00879 32ZM28 21.7412L28 19.7412H28V21.7412ZM17.4395 30.5625L15.4395 30.5624V30.5625H17.4395ZM28 39.3838L28 41.3838L28 41.3838L28 39.3838ZM38.5605 30.5625L40.5605 30.5625L40.5605 30.5624L38.5605 30.5625ZM48.3418 26.7988L46.4039 27.2934L50.2798 26.3047L48.3418 26.7988ZM48.2881 26.5957L50.2208 26.0815L46.3552 27.1094L48.2881 26.5957ZM48.2109 26.3076L46.2858 26.8496L50.1363 25.7663L48.2109 26.3076ZM48.1963 26.2539L46.2724 26.8003L46.2724 26.8004L48.1963 26.2539ZM48.1611 26.1377L50.0816 25.5792L46.2405 26.6956L48.1611 26.1377ZM48.0742 25.8467L46.1621 26.4332L49.9864 25.2606L48.0742 25.8467ZM47.9961 25.5967L49.9006 24.9861L46.0914 26.2067L47.9961 25.5967ZM47.9463 25.4434L46.0465 26.0686L49.8462 24.8187L47.9463 25.4434ZM47.8896 25.2686L49.7841 24.6275L49.7841 24.6274L47.8896 25.2686ZM47.8438 25.1377L49.7336 24.4831L45.9537 25.7916L47.8438 25.1377ZM47.7891 24.9844L45.9044 25.6537L49.6739 24.3156L47.7891 24.9844ZM47.6875 24.7031L49.5624 24.007L45.8125 25.3991L47.6875 24.7031ZM47.3418 23.8301L49.1836 23.0504L45.4998 24.6093L47.3418 23.8301ZM47.6211 24.5273L45.7525 25.2403L49.4897 23.8144L47.6211 24.5273ZM28 7.01172V9.01172C40.6976 9.01172 50.9922 19.3039 50.9922 32H52.9922H54.9922C54.9922 17.094 42.906 5.01172 28 5.01172V7.01172ZM52.9922 32L50.9922 31.9999C50.9918 44.6957 40.6973 54.9873 28 54.9873V56.9873V58.9873C42.9057 58.9873 54.9917 46.9057 54.9922 32.0001L52.9922 32ZM28 56.9873L28 54.9873C15.3029 54.9872 5.00919 44.6957 5.00879 31.9999L3.00879 32L1.00879 32.0001C1.00926 46.9055 13.0944 58.9871 28 58.9873L28 56.9873ZM3.00879 32H5.00879C5.00879 19.3039 15.3026 9.01187 28 9.01172L28 7.01172L28 5.01172C13.0941 5.0119 1.00879 17.0942 1.00879 32H3.00879ZM28 21.7412V19.7412C21.4153 19.7412 15.4397 24.2643 15.4395 30.5624L17.4395 30.5625L19.4395 30.5626C19.4396 27.1173 22.9203 23.7412 28 23.7412V21.7412ZM17.4395 30.5625H15.4395C15.4395 36.8609 21.4152 41.3838 28 41.3838V39.3838V37.3838C22.92 37.3838 19.4395 34.0078 19.4395 30.5625H17.4395ZM28 39.3838L28 41.3838C34.5847 41.3837 40.5605 36.8609 40.5605 30.5625H38.5605H36.5605C36.5605 34.0078 33.0799 37.3837 28 37.3838L28 39.3838ZM38.5605 30.5625L40.5605 30.5624C40.5603 24.2643 34.5847 19.7413 28 19.7412L28 21.7412L28 23.7412C33.0797 23.7413 36.5604 27.1173 36.5605 30.5626L38.5605 30.5625ZM48.3418 26.7988L50.2798 26.3047C50.2592 26.2238 50.2346 26.1332 50.221 26.082L48.2881 26.5957L46.3552 27.1094C46.3775 27.1935 46.3898 27.238 46.4038 27.293L48.3418 26.7988ZM48.2881 26.5957L46.3553 27.1099C46.3771 27.192 46.3899 27.2386 46.4039 27.2934L48.3418 26.7988L50.2797 26.3043C50.259 26.2232 50.235 26.1347 50.2208 26.0815L48.2881 26.5957ZM48.2109 26.3076L50.1363 25.7663C50.1373 25.77 50.1379 25.7721 50.1377 25.7715C50.1374 25.7703 50.1371 25.769 50.1356 25.7634C50.1335 25.7556 50.1274 25.7328 50.1202 25.7074L48.1963 26.2539L46.2724 26.8004C46.2711 26.7958 46.2703 26.7928 46.2702 26.7926C46.2702 26.7925 46.2703 26.7928 46.2705 26.7937C46.2708 26.7947 46.2711 26.796 46.2717 26.7981C46.2726 26.8015 46.2747 26.8091 46.2768 26.8169C46.279 26.8252 46.282 26.8363 46.2856 26.849L48.2109 26.3076ZM48.1963 26.2539L50.1202 25.7075C50.1073 25.662 50.0947 25.6215 50.089 25.6032C50.0812 25.5781 50.0812 25.5781 50.0818 25.5798L48.1611 26.1377L46.2405 26.6956C46.2523 26.7362 46.2644 26.7748 46.2686 26.7883C46.2749 26.8087 46.2742 26.8069 46.2724 26.8003L48.1963 26.2539ZM48.1611 26.1377L46.2407 26.6962C46.2707 26.7995 46.2705 26.7952 46.2858 26.8496L48.2109 26.3076L50.1361 25.7656C50.1194 25.7063 50.0845 25.5891 50.0816 25.5792L48.1611 26.1377ZM48.0742 25.8467L49.9864 25.2606C49.9594 25.1724 49.9308 25.0805 49.9008 24.9866L47.9961 25.5967L46.0914 26.2067C46.1146 26.2791 46.1378 26.3539 46.162 26.4328L48.0742 25.8467ZM47.9961 25.5967L46.0916 26.2072C46.1145 26.2788 46.1376 26.3532 46.1621 26.4332L48.0742 25.8467L49.9863 25.2602C49.9596 25.1731 49.9309 25.0807 49.9006 24.9861L47.9961 25.5967ZM47.9463 25.4434L49.8462 24.8187C49.8401 24.8002 49.8346 24.7826 49.8234 24.7476C49.8137 24.7172 49.7999 24.674 49.7841 24.6275L47.8896 25.2686L45.9952 25.9097C46.0184 25.9783 46.0022 25.9336 46.0463 26.068L47.9463 25.4434ZM47.8896 25.2686L49.7841 24.6274C49.7715 24.5903 49.7595 24.5564 49.7515 24.5339C49.7422 24.5075 49.738 24.4959 49.7338 24.4838L47.8438 25.1377L45.9537 25.7916C45.9943 25.9089 45.975 25.8499 45.9952 25.9097L47.8896 25.2686ZM47.8438 25.1377L45.9539 25.7923C45.9835 25.8778 46.0131 25.967 46.0465 26.0686L47.9463 25.4434L49.846 24.8181C49.8122 24.7154 49.7743 24.6005 49.7336 24.4831L47.8438 25.1377ZM47.7891 24.9844L49.6739 24.3156C49.6399 24.2198 49.6024 24.1147 49.5625 24.0072L47.6875 24.7031L45.8125 25.3991C45.8419 25.4783 45.8715 25.561 45.9042 25.6532L47.7891 24.9844ZM47.6875 24.7031L45.8126 25.3993C45.8419 25.4782 45.8713 25.5604 45.9044 25.6537L47.7891 24.9844L49.6738 24.3151C49.6401 24.2203 49.6025 24.1148 49.5624 24.007L47.6875 24.7031ZM47.3418 23.8301L45.4998 24.6093C45.586 24.8129 45.6695 25.0229 45.7525 25.2403L47.6211 24.5273L49.4897 23.8144C49.3938 23.5631 49.2924 23.3077 49.1838 23.0509L47.3418 23.8301ZM47.6211 24.5273L49.4897 23.8144C49.394 23.5635 49.2925 23.3078 49.1836 23.0504L47.3418 23.8301L45.5 24.6097C45.586 24.8128 45.6694 25.0225 45.7525 25.2402L47.6211 24.5273Z" fill="#3F3F46" mask="url(#path-1-outside-1_12546_30081)"/>
<path d="M23.9738 37.0625C23.9738 37.0625 22.6012 41.6505 22.5889 46.2135C22.5765 50.8593 23.9738 55.6337 23.9738 55.6337" stroke="#3F3F46" stroke-width="2" stroke-dasharray="18 6"/>
<path d="M33.8258 9.05318C33.8258 9.05318 30.9673 11.4131 30.0374 14.8136C29.0906 18.2757 29.6318 22.8435 29.6318 22.8435" stroke="#3F3F46" stroke-width="2" stroke-dasharray="18 6"/>
<path d="M18.6339 28.1161C18.6339 28.1161 19.299 24.0005 14.8988 21.6326C8.85602 18.3809 7.07899 22.4904 7.07899 22.4904" stroke="#3F3F46" stroke-width="2" stroke-dasharray="18 6"/>
<path d="M48.7901 42.4062C48.7901 42.4062 50.3591 37.5547 46.1386 33.4808C40.3428 27.8863 37.584 32.4322 37.584 32.4322" stroke="#3F3F46" stroke-width="2" stroke-dasharray="18 6"/>
<defs>
<linearGradient id="paint0_linear_12546_30081" x1="28.0005" y1="9.44955" x2="28.0005" y2="54.5495" gradientUnits="userSpaceOnUse">
<stop stop-color="#52525B" stop-opacity="0"/>
<stop offset="1" stop-color="#52525B" stop-opacity="0.4"/>
</linearGradient>
</defs>
</svg>
