<svg width="56" height="64" viewBox="0 0 56 64" fill="none" xmlns="http://www.w3.org/2000/svg">
<path d="M19.4131 31.8457C20.9052 32.0644 22.4914 32.4657 24.1035 32.9424L25.2334 33.2764L24.7197 34.3369C22.162 39.6201 17.8049 46.4653 7.60156 57.0176C6.98775 57.6554 6.11897 57.9999 5.25879 58C4.41411 58 3.59403 57.7028 2.96094 57.0654L2.96191 57.0645C2.34226 56.445 2 55.5902 2 54.7256C2.00002 53.8471 2.35165 53.0445 2.94727 52.4375H2.94629C11.7895 43.1471 15.7992 37.424 18.377 32.3799L18.7031 31.7422L19.4131 31.8457ZM42.4131 14.8789C42.9135 15.2182 43.3604 15.593 43.7617 15.9971C44.5557 16.7966 45.242 17.6685 45.7891 18.6191L46.1191 19.1924L45.7207 19.7197C39.3882 28.1193 38.0038 33.9753 36.7559 39.2832C35.6785 43.8677 34.6032 48.4507 30.1758 52.9053L30.1768 52.9062C27.7731 55.3317 24.3642 56.6494 20.5732 56.6494C17.6266 56.6494 14.6794 55.8365 12.1074 54.3887L11.0195 53.7764L11.8555 52.8486C12.9666 51.6147 14.0042 50.4326 14.9385 49.3203L15.4248 48.7402L16.1152 49.0527C17.545 49.6986 19.1035 50.0654 20.6084 50.0654C22.7499 50.0654 24.48 49.403 25.5801 48.2998C28.6591 45.1949 29.3504 42.2427 30.3984 37.7939C31.7501 32.0393 33.469 24.9354 41.0605 15.0957L41.6348 14.3506L42.4131 14.8789ZM17.0801 24.834C20.8335 24.834 24.718 25.9411 28.3916 27.1152L29.9512 27.6201L29.9551 27.6211C30.5966 27.832 31.2165 28.0128 31.8818 28.2207L32.8857 28.5342L32.5215 29.5215C31.9649 31.0279 31.5018 32.444 31.1357 33.7754L30.8613 34.7754L29.8721 34.4639C29.2858 34.2796 28.6455 34.091 28.0312 33.8936L28.0273 33.8926C23.9182 32.5567 20.31 31.3828 17.1504 31.3828C14.5819 31.3828 12.6754 32.1512 11.0498 33.7881C10.0935 34.7511 9.58652 36.1354 9.50098 37.7646C9.4155 39.3937 9.75787 41.1984 10.4229 42.8799L10.6406 43.4287L10.2637 43.8848C9.28403 45.0695 8.18644 46.3044 6.99316 47.6436L6.04297 48.71L5.36621 47.4521C2.33103 41.8123 1.705 33.9588 6.4541 29.1807C9.34716 26.2672 12.8344 24.834 17.0801 24.834ZM35.2959 6.17969C36.28 6.11687 37.292 6.17613 38.2959 6.29102L38.6553 6.33594C42.3643 6.84213 46.03 8.61573 48.5605 11.1641C51.2829 13.9056 53.2128 17.4841 53.7793 21.0205C54.4646 25.2986 53.6006 29.11 50.5244 32.415L50.5127 32.4268L50.502 32.4385L50.4609 32.4795C50.455 32.4855 50.4564 32.4831 50.459 32.4805C50.4549 32.4846 50.4612 32.4783 50.457 32.4824V32.4834L50.4521 32.4883C50.4476 32.4929 50.4552 32.4842 50.4502 32.4893C50.4451 32.4943 50.4537 32.4867 50.4492 32.4912L50.3955 32.5449L50.3945 32.5439C50.3724 32.5673 50.3554 32.5874 50.3438 32.5986C50.34 32.6022 50.335 32.6057 50.3311 32.6094C50.3182 32.6237 50.2991 32.6486 50.2412 32.7256C50.1871 32.7975 50.0903 32.9276 49.9609 33.0537L49.96 33.0547C49.832 33.1791 49.6951 33.2755 49.5977 33.3418C49.547 33.3762 49.4952 33.4108 49.4531 33.4385C49.4203 33.46 49.3913 33.4789 49.3643 33.4971C46.8796 35.5589 43.9227 36.5713 40.4404 36.5713C39.9395 36.5713 39.4434 36.5375 38.9482 36.4971L37.7295 36.3975L38.0684 35.2236C38.4825 33.7867 38.9881 32.267 39.6572 30.6416L39.9092 30.0303L40.5713 30.0225C42.8236 29.9984 44.4268 29.3211 45.8008 27.9375L45.8916 27.8564C45.9084 27.8431 45.9254 27.8315 45.9414 27.8203C47.3223 26.2942 47.6583 24.6186 47.3867 22.4902L47.3223 22.0488C46.9755 19.8977 45.7769 17.5953 43.9658 15.7715C42.396 14.1906 39.9763 13.0701 37.5391 12.791V12.79C35.6439 12.5744 33.4453 12.5864 31.4385 14.5371C31.4186 14.5678 31.3938 14.6003 31.3652 14.6348L31.3672 14.6367C30.0531 16.2327 29.6529 18.0508 29.0342 21.0938C28.7701 22.3919 28.4173 23.9312 27.9619 25.6309L27.6943 26.6299L26.7051 26.3291C25.2589 25.8895 23.8663 25.4789 22.4482 25.1777L21.415 24.959L21.6904 23.9395C22.0997 22.421 22.3667 21.0551 22.6289 19.7705C23.3172 16.3955 23.8337 12.8888 26.7139 10.0225C26.7669 9.9697 26.8212 9.92787 26.8721 9.89453C26.9029 9.86183 26.9392 9.82634 26.9854 9.77734C27.0643 9.69365 27.1654 9.58864 27.291 9.48047C27.4042 9.37986 27.5267 9.29115 27.6221 9.22559C29.8181 7.36456 32.3986 6.36147 35.2959 6.18066V6.17969ZM50.4277 6C51.2753 6.00013 52.1406 6.3472 52.7598 6.9707C54.0248 8.24463 54.0248 10.3042 52.7598 11.5781C52.4082 11.9321 52.0685 12.2921 51.7188 12.6621L50.9268 13.5L50.209 12.5967C49.7417 12.0085 49.2691 11.4465 48.7646 10.9385C48.2977 10.4683 47.7424 10.0291 47.1416 9.57422L46.2461 8.89648L47.0234 8.08496C47.388 7.70427 47.7776 7.32545 48.1299 6.9707C48.7375 6.35882 49.5635 6 50.4277 6ZM27.5693 9.73926C27.5679 9.73907 27.5662 9.73947 27.5645 9.73926C27.5625 9.73902 27.5601 9.73857 27.5576 9.73828C27.5622 9.73886 27.5663 9.73884 27.5693 9.73926Z" fill="url(#paint0_linear_12546_30071)" stroke="#3F3F46" stroke-width="2"/>
<defs>
<linearGradient id="paint0_linear_12546_30071" x1="28" y1="7" x2="28" y2="57" gradientUnits="userSpaceOnUse">
<stop stop-color="#52525B" stop-opacity="0"/>
<stop offset="1" stop-color="#52525B" stop-opacity="0.4"/>
</linearGradient>
</defs>
</svg>
