<svg width="34" height="34" viewBox="0 0 34 34" fill="none" xmlns="http://www.w3.org/2000/svg">
<path d="M29.0417 6.375H4.95833C3.39362 6.375 2.125 7.64362 2.125 9.20833V26.2083C2.125 27.773 3.39362 29.0417 4.95833 29.0417H29.0417C30.6064 29.0417 31.875 27.773 31.875 26.2083V9.20833C31.875 7.64362 30.6064 6.375 29.0417 6.375Z" fill="url(#paint0_linear_3008_10991)"/>
<path d="M20.8932 4.25H13.1016C12.5151 4.25 12.0391 4.726 12.0391 5.3125V6.375H21.9557V5.3125C21.9557 4.726 21.4797 4.25 20.8932 4.25Z" fill="url(#paint1_linear_3008_10991)"/>
<path d="M17 26.208C21.6944 26.208 25.5 22.4024 25.5 17.708C25.5 13.0136 21.6944 9.20801 17 9.20801C12.3056 9.20801 8.5 13.0136 8.5 17.708C8.5 22.4024 12.3056 26.208 17 26.208Z" fill="url(#paint2_radial_3008_10991)"/>
<path d="M16.9974 24.7917C20.9094 24.7917 24.0807 21.6203 24.0807 17.7083C24.0807 13.7963 20.9094 10.625 16.9974 10.625C13.0854 10.625 9.91406 13.7963 9.91406 17.7083C9.91406 21.6203 13.0854 24.7917 16.9974 24.7917Z" fill="white"/>
<path d="M21.2526 16.6462H18.0651V13.4587C18.0651 13.2632 17.9064 13.1045 17.7109 13.1045H16.2943C16.0988 13.1045 15.9401 13.2632 15.9401 13.4587V16.6462H12.7526C12.5571 16.6462 12.3984 16.8048 12.3984 17.0003V18.417C12.3984 18.6125 12.5571 18.7712 12.7526 18.7712H15.9401V21.9587C15.9401 22.1542 16.0988 22.3128 16.2943 22.3128H17.7109C17.9064 22.3128 18.0651 22.1542 18.0651 21.9587V18.7712H21.2526C21.4481 18.7712 21.6068 18.6125 21.6068 18.417V17.0003C21.6068 16.8048 21.4481 16.6462 21.2526 16.6462Z" fill="#E52030"/>
<defs>
<linearGradient id="paint0_linear_3008_10991" x1="17" y1="6.22342" x2="17" y2="29.478" gradientUnits="userSpaceOnUse">
<stop stop-color="#F44F5A"/>
<stop offset="0.443" stop-color="#EE3D4A"/>
<stop offset="1" stop-color="#E52030"/>
</linearGradient>
<linearGradient id="paint1_linear_3008_10991" x1="12.0391" y1="5.3125" x2="21.9557" y2="5.3125" gradientUnits="userSpaceOnUse">
<stop stop-color="#5E5E5E"/>
<stop offset="1" stop-color="#545454"/>
</linearGradient>
<radialGradient id="paint2_radial_3008_10991" cx="0" cy="0" r="1" gradientUnits="userSpaceOnUse" gradientTransform="translate(17 17.708) scale(8.5)">
<stop/>
<stop offset="1" stop-opacity="0"/>
</radialGradient>
</defs>
</svg>
