<svg width="33" height="32" viewBox="0 0 33 32" fill="none" xmlns="http://www.w3.org/2000/svg">
<path d="M6.75581 31.416C6.62381 31.416 6.49181 31.35 6.35981 31.284C6.16181 31.152 6.02981 30.822 6.09581 30.558L8.99981 19.734L0.287805 12.672C0.0238049 12.54 -0.0421951 12.21 0.0238049 11.946C0.0898049 11.682 0.353805 11.484 0.617805 11.484L11.8378 10.89L15.8638 0.396C15.9958 0.198 16.2598 0 16.5238 0C16.7878 0 17.0518 0.198 17.1178 0.396L21.1438 10.89L32.3638 11.484C32.6278 11.484 32.8918 11.682 32.9578 11.946C33.0238 12.21 32.9578 12.474 32.7598 12.672L24.0478 19.734L26.9518 30.558C27.0178 30.822 26.9518 31.086 26.6878 31.284C26.4898 31.416 26.1598 31.482 25.9618 31.284L16.5238 25.212L7.0858 31.284C6.9538 31.416 6.8878 31.416 6.75581 31.416Z" fill="white"/>
</svg>
